<?xml version="1.0" standalone="no"?>
<!DOCTYPE svg PUBLIC "-//W3C//DTD SVG 1.1//EN" "http://www.w3.org/Graphics/SVG/1.1/DTD/svg11.dtd" >
<svg>
<metadata>
Created by FontForge 20090622 at Tue Nov 28 15:40:10 2017
 By deploy user
Breetty &#194;&#169; 7NTypes. 2017. All Rights Reserved
</metadata>
<defs>
<font id="Breetty" horiz-adv-x="0" >
  <font-face 
    font-family="Breetty"
    font-weight="400"
    font-stretch="normal"
    units-per-em="2048"
    panose-1="2 0 5 0 0 0 0 0 0 0"
    ascent="1638"
    descent="-410"
    x-height="750"
    cap-height="1613"
    bbox="-1067 -1051 2963 2098"
    underline-thickness="150"
    underline-position="-142"
    unicode-range="U+001D-U+FB06"
  />
<missing-glyph horiz-adv-x="1639" 
d="M912 1404q-122 -32 -199 -117q-26 -29 -70 -95q-48 -74 -69 -100q-65 -80 -106 -113q-66 -53 -139 -53q-59 0 -100 30q-47 33 -55 93q-2 14 -2 29q0 53 25 98q36 62 100 74q16 3 30 3q21 0 39 -7q33 -15 34 -55q-9 10 -22 10q-11 0 -20 -8q-10 -10 -10 -21q0 -28 30 -28
h1q30 0 46 33q9 18 9 35t-8 35q-14 36 -46 53q-36 19 -87 19q-12 0 -25 -1q-107 -9 -173 -89v175h817zM95 894q63 -65 169 -65q15 0 31 2q87 7 205 125q32 32 90 96q52 58 72 76q53 50 108 50q30 0 60 -14q89 -41 179 -41q60 0 121 18q120 36 224 132q-13 -161 -119 -299
q-20 -26 -222 -235h-54q-40 0 -67 32l-86 -86h156q-190 -210 -223 -374q-9 -45 -9 -85q0 -65 23 -115q38 -80 134 -111h-193v687l36 19v33h-635v155zM327 685q76 0 107 -31q33 -32 33 -107v-547h-372v685h232zM523 687h36v-687h-36v687zM1163 0q203 46 336 164v-164h-336z
M1499 179q-128 -72 -242 -86q-23 -2 -45 -2q-80 0 -126 38q-44 37 -44 103q0 26 6 55q26 118 154 282q61 77 88 116h150v-47h59v-459zM1326 740q100 162 100 350q0 42 -6 86q-14 129 -17 129q7 49 96 77v-642h-173zM695 1026q-72 0 -121 -42q-42 -37 -51 -92q-3 -14 -3 -27
q0 -36 20 -62q26 -34 73 -34h17q58 7 75 60q5 15 5 27q0 36 -35 61q-29 21 -29 46q0 5 1 10q7 31 48 41v12z" />
    <glyph glyph-name="uniF001" unicode="fi" horiz-adv-x="1049" 
d="M551 740l-270 -234q29 -69 50 -140q30 -104 50 -211q15 -75 23 -151q6 -62 6 -123v-40q-1 -56 -19 -117.5t-69 -90.5q-23 -12 -50 -12q-45 0 -77.5 34t-54 79t-33.5 82q-29 88 -47 179q-20 102 -33 204q-27 194 -27 389q0 699 95.5 965t302.5 266q36 0 68 -18
q36 -23 50.5 -60.5t14.5 -77.5q0 -16 -11 -27.5t-27 -11.5t-27.5 9t-11.5 30q0 17 -7.5 33t-29.5 16q-148 0 -186.5 -301.5t-38.5 -822.5q0 -190 26 -379q18 -154 57 -303q13 -49 31 -96q8 -21 18 -41q8 38 9 75v38q0 58 -6 115q-8 72 -21 144q-19 103 -49 203
q-22 80 -58 155q-4 9 -4 17q0 17 14 30l345 279q21 18 55 18q62 0 107 -27q29 -18 29 -51q-10 -98 -10 -196q0 -24 1 -49q2 -127 20 -251q4 -26 10 -51q8 -42 18 -83q6 -24 13 -47q7 -21 15 -41q6 -15 15 -27q1 -3 4 -5.5t6 -2.5q1 0 2.5 0.5t2.5 1.5l2 2q7 7 13 15
q17 23 30 49q22 37 41 76q124 259 201 538q4 13 14 19q7 4 16 4q4 0 8 -1q12 -4 18 -15q4 -7 4 -15q0 -4 -1 -8q-38 -142 -83 -282.5t-109 -273.5q-42 -92 -106 -171q-16 -20 -36 -36q-36 -32 -83 -32h-6q-60 9 -99 67t-61 130t-31 124q-26 142 -29 287q-1 37 -1 73
q0 88 7 176zM806 1109q0 -25 -5.5 -61.5t-21.5 -65t-45 -28.5q-26 0 -63.5 3.5t-67 18t-29.5 48.5q0 26 6.5 60.5t24.5 59.5t51 25q23 0 58.5 -3t63.5 -16t28 -41z" />
    <glyph glyph-name="uniF002" unicode="fl" horiz-adv-x="1068" 
d="M741 852l35 36q47 48 96.5 113.5t84 139t34.5 141.5q0 29 -11 58q-10 18 -29 18q-13 0 -27 -5t-24 -13q-57 -51 -90.5 -136t-49 -179t-19.5 -173zM544 593l-263 -229q29 -69 50 -140q30 -104 50 -211q15 -75 23 -151q7 -61 7 -122q0 -20 -1 -41q-1 -56 -19 -117.5
t-69 -90.5q-23 -12 -50 -12q-45 0 -77.5 34t-54 79t-33.5 82q-29 88 -47 179q-20 102 -33 204q-27 194 -27 389q0 699 95.5 965t302.5 266q36 0 68 -18q36 -23 50.5 -60.5t14.5 -77.5q0 -16 -11 -27.5t-27 -11.5t-27.5 9t-11.5 30q0 17 -7 33t-30 16q-148 0 -186.5 -301.5
t-38.5 -822.5q0 -190 26 -379q18 -154 57 -303q13 -49 31 -96q8 -21 18 -41q8 38 9 75q1 20 1 39q0 57 -7 114q-8 72 -21 144q-19 103 -49 203q-22 80 -58 155q-4 10 -4 18q0 16 14 29l336 272q10 373 101 569q101 216 262 216q43 0 82 -22q41 -26 59.5 -68t18.5 -89
q0 -97 -53.5 -198t-129 -189t-148.5 -150q-1 -17 -1 -33q0 -70 5 -140q5 -95 15 -189q7 -69 19 -138q10 -59 27 -117q2 -8 7 -15t13 -7q12 0 25 10.5t21 19.5q81 103 164 265t116 295q3 13 13 20q8 5 17 5l6 -1q13 -3 20 -14q5 -7 5 -17q0 -3 -1 -6q-62 -287 -241 -542
q-24 -35 -60 -77t-80 -73.5t-90 -31.5q-80 0 -136.5 175.5t-56.5 457.5v1z" />
    <glyph glyph-name="uniFB00" unicode="ff" horiz-adv-x="1049" 
d="M515 163l-274 -238q29 -69 50 -140q30 -104 50 -211q15 -75 23 -151q7 -61 7 -122q0 -20 -1 -41q-1 -56 -19 -117.5t-69 -90.5q-23 -12 -50 -12q-45 0 -77.5 34t-54 79t-33.5 82q-29 88 -47 179q-20 102 -33 204q-27 194 -27 389q0 699 95.5 965t302.5 266q36 0 68 -18
q36 -23 50.5 -60.5t14.5 -77.5q0 -16 -11 -27.5t-27 -11.5t-27.5 9t-11.5 30q0 17 -7.5 33t-29.5 16q-148 0 -186.5 -301.5t-38.5 -822.5q0 -190 26 -379q18 -154 57 -303q13 -49 31 -96q8 -21 18 -41q8 38 9 75q1 20 1 39q0 57 -7 114q-8 72 -21 144q-19 103 -49 203
q-22 80 -58 155q-4 10 -4 18q0 16 14 29l340 275q-4 79 -4 159q0 699 95.5 965t302.5 266q36 0 68 -18q36 -23 50.5 -60.5t14.5 -77.5q0 -16 -11 -27.5t-27 -11.5t-27.5 9t-11.5 30q0 17 -7.5 33t-29.5 16q-148 0 -186.5 -301.5t-38.5 -822.5q0 -190 26 -379
q18 -154 57 -303q13 -49 31 -96q8 -21 18 -41q8 38 9 75v38q0 58 -6 115q-8 72 -21 144q-19 103 -49 203q-22 80 -58 155q-4 9 -4 18q0 16 14 29l424 345q9 7 20 7h3q12 -1 21 -10q7 -10 7 -20v-3q-1 -12 -11 -21l-392 -338q29 -69 50 -140q30 -104 50 -211q15 -75 23 -151
q6 -61 6 -122v-41q-1 -56 -19 -117.5t-69 -90.5q-23 -12 -50 -12q-45 0 -77.5 34t-54 79t-33.5 82q-29 88 -47 179q-20 102 -33 204q-11 76 -17 153z" />
    <glyph glyph-name="uniFB03" unicode="ffi" horiz-adv-x="1573" 
d="M537 319l-276 -240q29 -69 50 -140q30 -104 50 -211q15 -75 23 -151q6 -61 6 -122v-41q-1 -56 -19 -117.5t-69 -90.5q-23 -12 -50 -12q-45 0 -77.5 34t-54 79t-33.5 82q-29 88 -47 179q-20 102 -33 204q-27 194 -27 389q0 699 95.5 965t302.5 266q36 0 68 -18
q36 -23 50.5 -60.5t14.5 -77.5q0 -16 -11 -27.5t-27 -11.5t-27.5 9t-11.5 30q0 17 -7.5 33t-29.5 16q-148 0 -186.5 -301.5t-38.5 -822.5q0 -190 26 -379q18 -154 57 -303q13 -49 31 -96q8 -21 18 -41q8 38 9 75v39q0 57 -6 114q-8 72 -21 144q-19 103 -49 203
q-22 80 -58 155q-4 9 -4 18q0 16 14 29l342 276q-7 96 -7 193q0 699 95.5 965t302.5 266q36 0 68 -18q36 -23 50.5 -60.5t14.5 -77.5q0 -16 -11 -27.5t-27 -11.5t-27.5 9t-11.5 30q0 17 -7.5 33t-29.5 16q-148 0 -186.5 -301.5t-38.5 -822.5q0 -190 26 -379q18 -154 57 -303
q13 -49 31 -96q8 -21 18 -41q8 38 9 75v38q0 58 -6 115q-8 72 -21 144q-19 103 -49 203q-22 80 -58 155q-4 9 -4 17q0 17 14 30l345 279q21 18 55 18q62 0 107 -27q29 -18 29 -51q-10 -98 -10 -196q0 -24 1 -49q2 -127 20 -251q4 -26 10 -51q8 -42 18 -83q6 -24 13 -47
q7 -21 15 -41q6 -15 15 -27q1 -3 4 -5.5t6 -2.5q1 0 2.5 0.5t2.5 1.5l2 2q7 7 13 15q17 23 30 49q22 37 41 76q124 259 201 538q4 13 14 19q7 4 16 4q4 0 8 -1q12 -4 18 -15q4 -7 4 -15q0 -4 -1 -8q-38 -142 -83 -282.5t-109 -273.5q-42 -92 -106 -171q-16 -20 -36 -36
q-36 -32 -83 -32h-6q-60 9 -99 67t-61 130t-31 124q-26 142 -29 287q-1 37 -1 73q0 88 7 176l-270 -234q29 -69 50 -140q30 -104 50 -211q15 -75 23 -151q6 -62 6 -123v-40q-1 -56 -19 -117.5t-69 -90.5q-23 -12 -50 -12q-45 0 -77.5 34t-54 79t-33.5 82q-29 88 -47 179
q-20 102 -33 204q-8 60 -14 120zM1330 1109q0 -25 -5.5 -61.5t-21.5 -65t-45 -28.5q-26 0 -63.5 3.5t-67 18t-29.5 48.5q0 26 6.5 60.5t24.5 59.5t51 25q23 0 58.5 -3t63.5 -16t28 -41z" />
    <glyph glyph-name="uniFB04" unicode="ffl" horiz-adv-x="1574" 
d="M1247 852l35 36q47 48 96.5 113.5t84 139t34.5 141.5q0 29 -11 58q-10 18 -29 18q-13 0 -27 -5t-24 -13q-57 -51 -90.5 -136t-49 -179t-19.5 -173zM518 188l-275 -239q29 -69 50 -140q30 -104 50 -211q15 -75 23 -151q7 -62 7 -123q0 -20 -1 -40q-1 -56 -19 -117.5
t-69 -90.5q-23 -12 -50 -12q-45 0 -77.5 34t-54 79t-33.5 82q-29 88 -47 179q-20 102 -33 204q-27 194 -27 389q0 699 95.5 965t302.5 266q36 0 68 -18q36 -23 50.5 -60.5t14.5 -77.5q0 -16 -11 -27.5t-27 -11.5t-27.5 9t-11.5 30q0 17 -7.5 33t-29.5 16
q-148 0 -186.5 -301.5t-38.5 -822.5q0 -190 26 -379q18 -154 57 -303q13 -49 31 -96q8 -21 18 -41q8 38 9 75q1 19 1 38q0 58 -7 115q-8 72 -21 144q-19 103 -49 203q-22 80 -58 155q-4 9 -4 17q0 17 14 30l341 275q-6 91 -6 182q0 699 95.5 965t302.5 266q36 0 68 -18
q36 -23 50.5 -60.5t14.5 -77.5q0 -16 -11 -27.5t-27 -11.5t-27.5 9t-11.5 30q0 17 -7 33t-30 16q-148 0 -186.5 -301.5t-38.5 -822.5q0 -190 26 -379q18 -154 57 -303q13 -49 31 -96q8 -21 18 -41q8 38 9 75q1 20 1 39q0 57 -7 114q-8 72 -21 144q-19 103 -49 203
q-22 80 -58 155q-4 10 -4 18q0 16 14 29l336 272q10 373 101 569q101 216 262 216q43 0 82 -22q41 -26 59.5 -68t18.5 -89q0 -97 -53.5 -198t-129 -189t-148.5 -150q-1 -17 -1 -33q0 -70 5 -140q5 -95 15 -189q7 -69 19 -138q10 -59 27 -117q2 -8 7 -15t13 -7q12 0 25 10.5
t21 19.5q81 103 164 265t116 295q3 13 13 20q8 5 17 5l6 -1q13 -3 20 -14q5 -7 5 -17q0 -3 -1 -6q-62 -287 -241 -542q-24 -35 -60 -77t-80 -73.5t-90 -31.5q-80 0 -136.5 175.5t-56.5 457.5v1l-263 -229q29 -69 50 -140q30 -104 50 -211q15 -75 23 -151q7 -61 7 -122
q0 -20 -1 -41q-1 -56 -19 -117.5t-69 -90.5q-23 -12 -50 -12q-45 0 -77.5 34t-54 79t-33.5 82q-29 88 -47 179q-20 102 -33 204q-9 65 -15 131z" />
    <glyph glyph-name="uniFB06" unicode="st" horiz-adv-x="1467" 
d="M354 347l46 -37q116 -96 146 -152q32 -59 32 -129q0 -123 -78.5 -191.5t-197.5 -68.5q-48 0 -88 29q-29 22 -43.5 53.5t-14.5 97.5q0 68 72 258q-73 65 -97 97q-34 45 -64 94.5t-48.5 104t-18.5 112.5q0 64 26 125t76 100.5t121 39.5q89 0 93 -51q-2 -50 -37 -50
q-16 0 -29 -12q-29 -29 -43.5 -70.5t-14.5 -81.5q0 -37 11 -73q22 -62 62 -114q8 -10 37 -36q66 157 163 366q183 396 273 572t188 176q57 0 101 -44t44 -214q0 -132 -37 -322l165 -10q16 -1 26 -12.5t10 -27.5q-1 -17 -12.5 -27t-27.5 -10l-177 10q-46 -218 -46 -388
q0 -154 45.5 -231t126.5 -77q26 0 49 13.5t41 31.5q80 80 139.5 172t108.5 196q35 75 65 151q5 12 16 17q6 3 13 3q5 0 11 -2q12 -5 17 -16q3 -5 3 -11t-3 -12q-30 -80 -67 -156q-31 -68 -77.5 -153.5t-106 -165.5t-130 -133t-149.5 -53q-133 0 -213.5 109t-80.5 317
q0 174 59 403l-41 2q-17 1 -27 12.5t-10 27.5q1 16 13 26q10 10 25 10h3l58 -3q67 246 67 369q0 71 -36 72q-61 -2 -359 -635q-109 -230 -178 -398zM302 -137q37 0 57.5 19.5t28.5 50t8 61.5q0 32 -17 66q-14 28 -96 100q-50 -145 -50 -211q0 -45 23.5 -65.5t45.5 -20.5z
" />
    <glyph glyph-name="uniEEC5" unicode="ct" horiz-adv-x="1366" 
d="M609 330q-118 -215 -314 -220q-97 1 -156 44.5t-89 114.5t-40 153.5t-10 158.5q0 49 10.5 99.5t38.5 93.5q31 47 79.5 75t105.5 28q64 0 117 -42q51 -51 51 -117q0 -20 -5 -42q-4 -15 -17 -24q-10 -6 -22 -6h-6q-16 4 -25 17q-6 10 -6 22v6q2 13 2 25q0 8 -1 16
q-1 18 -9 33.5t-27 15.5q-11 0 -21 -4q-34 -17 -50 -60.5t-20 -78.5q-4 -28 -4 -57q0 -42 6 -104.5t23.5 -124t52 -103.5t91.5 -42q143 0 235 259q84 281 89 585l-171 -8h-3q-15 0 -25 10q-12 10 -13 26q0 16 10 27.5t27 12.5l177 9q9 339 21 453q2 15 13 24.5t25 9.5
q49 0 98 -18q12 -6 23 -13q29 -18 29 -51q-9 -97 -9 -195q-3 -107 -6 -200l156 8q16 0 27.5 -10t12.5 -27q0 -16 -10 -27.5t-26 -12.5l-162 -8q-11 -412 -11 -500q0 -72 11.5 -147.5t37.5 -144.5q14 -36 40.5 -70t65.5 -44q8 -2 17 -2q26 0 49 13.5t41 31.5q80 80 139.5 172
t108.5 196q35 75 65 151q5 12 16 17q6 3 13 3q5 0 11 -2q12 -5 17 -16q3 -5 3 -11t-3 -12q-30 -80 -67 -156q-31 -68 -77.5 -153.5t-106 -165.5t-130 -133t-149.5 -53q-32 0 -63 10q-65 23 -107.5 76t-66.5 115q-31 76 -44 160q-10 65 -12 128q-22 -96 -71 -194z" />
    <glyph glyph-name="uniEECA" unicode="fr" horiz-adv-x="1320" 
d="M192 356q135 62 249 161q93 81 141 197q-38 52 -38 118q0 105 74 260q11 24 36 24q44 0 89 -14q18 -5 34 -14q15 -9 22 -24q-94 -150 -100 -258q0 -119 193 -170q47 -9 93 -9q18 0 30 -15q9 -11 9 -24q0 -4 -1 -8q-38 -173 -56 -349q-8 -74 -8 -147q0 -23 1 -45
q2 -35 6 -69q3 -21 7 -42q3 -18 9 -36q2 -4 5 -11.5t7.5 -13t10.5 -5.5q8 0 17 11t15 20l3 6q16 21 30 43q74 118 145 283t118 300l32 90l8 24q2 5 3 9q12 35 25 69q5 12 16 17q6 3 13 3q5 0 11 -2q12 -5 17 -16q3 -5 3 -11t-3 -12l-24 -67q-1 -5 -3 -10l-8 -24l-32 -90
l-34 -98q-42 -128 -93.5 -255.5t-128.5 -250.5q-20 -33 -49 -69t-65 -62t-77 -26q-42 0 -79 22q-47 31 -70 86t-29.5 118.5t-6.5 113.5q0 77 8 154q18 169 53 335q-47 12 -91 31q-44 17 -80 44q-72 -146 -189 -227q-104 -72 -179 -105q29 -68 50 -139q30 -104 50 -211
q15 -75 23 -151q7 -61 7 -122q0 -21 -1 -41q-1 -56 -19 -117.5t-69 -90.5q-23 -12 -50 -12q-45 0 -77.5 34t-54 79t-33.5 82q-29 88 -47 179q-20 102 -33 204q-27 194 -27 389q0 699 95.5 965t302.5 266q36 0 68 -18q36 -23 50.5 -60.5t14.5 -77.5q0 -16 -11 -27.5
t-27 -11.5t-27.5 9t-11.5 30q0 17 -7.5 33t-29.5 16q-148 0 -186.5 -301.5t-38.5 -822.5v-43zM194 292q5 -136 24 -272q18 -154 57 -303q13 -49 31 -96q8 -21 18 -41q8 38 9 75q1 19 1 38q0 58 -7 115q-8 72 -21 144q-19 103 -49 203q-19 70 -63 137z" />
    <glyph glyph-name="uniEECD" unicode="fy" horiz-adv-x="1690" 
d="M1195 146q-80 -73 -157 -151q-89 -89 -169 -186q-29 -36 -65 -86.5t-63 -105t-27 -100.5q0 -40 18 -78q10 -16 25 -22.5t33 -6.5q38 0 73 25q127 101 202 247q114 218 130 464zM554 769l-273 -238q29 -69 50 -140q30 -104 50 -211q15 -75 23 -151q7 -61 7 -122
q0 -21 -1 -41q-1 -56 -19 -117.5t-69 -90.5q-23 -12 -50 -12q-45 0 -77.5 34t-54 79t-33.5 82q-29 88 -47 179q-20 102 -33 204q-27 194 -27 389q0 699 95.5 965t302.5 266q36 0 68 -18q36 -23 50.5 -60.5t14.5 -77.5q0 -16 -11 -27.5t-27 -11.5t-27.5 9t-11.5 30
q0 17 -7.5 33t-29.5 16q-148 0 -186.5 -301.5t-38.5 -822.5q0 -190 26 -379q18 -154 57 -303q13 -49 31 -96q8 -21 18 -41q8 38 9 75q1 19 1 38q0 58 -7 115q-8 72 -21 144q-19 103 -49 203q-22 80 -58 155q-4 9 -4 18q0 16 14 29l274.5 240.5t122.5 80.5q24 0 50 -2.5
t49 -11.5q17 -6 31 -17q18 -16 18 -39v-5q-15 -96 -18 -193v-26q0 -54 6 -116q9 -79 36 -136q12 -28 40 -28q20 0 39.5 10t34.5 23q58 51 102 122t72 142q31 75 50 154v4q0 11 5 20q8 15 25 19q19 4 39 4q7 0 15 -1q30 -2 60 -9q16 -4 30.5 -11t21.5 -23q38 -113 55 -231
q10 -65 16 -131q194 156 401 294q9 5 18 5h5q12 -3 19 -13q5 -9 5 -18v-5q-3 -12 -13 -20q-199 -138 -372 -290l-57 -48q1 -42 1 -84q0 -120 -22 -238q-42 -244 -172 -454q-53 -84 -131.5 -152t-179.5 -85q-22 -4 -43 -4q-74 0 -136 53q-36 32 -52.5 75.5t-16.5 90.5
q0 57 28.5 119.5t68 119.5t75.5 101q83 100 175 192q99 100 204 194q5 5 10 9q0 32 -1 63q-5 111 -22 220q-8 50 -19 99q-9 -24 -19 -48q-24 -61 -61.5 -126t-87 -121t-111 -91.5t-134.5 -35.5q-39 0 -74 18q-80 50 -105 169q-20 94 -20 194q0 27 1 55q4 66 9 121z" />
    <glyph glyph-name="uniEECF" unicode="ffy" horiz-adv-x="2234" 
d="M1258 -483q0 -40 18 -78q10 -16 25 -22.5t33 -6.5q38 0 73 25q127 101 202 247q114 218 130 464q-80 -73 -157 -151q-89 -89 -169 -186q-29 -36 -65 -86.5t-63 -105t-27 -100.5zM556 353l-275 -239q29 -69 50 -140q30 -104 50 -211q15 -75 23 -151q7 -61 7 -122
q0 -21 -1 -41q-1 -56 -19 -117.5t-69 -90.5q-23 -12 -50 -12q-45 0 -77.5 34t-54 79t-33.5 82q-29 88 -47 179q-20 102 -33 204q-27 194 -27 389q0 699 95.5 965t302.5 266q36 0 68 -18q36 -23 50.5 -60.5t14.5 -77.5q0 -16 -11 -27.5t-27 -11.5t-27.5 9t-11.5 30
q0 17 -7.5 33t-29.5 16q-148 0 -186.5 -301.5t-38.5 -822.5q0 -190 26 -379q18 -154 57 -303q13 -49 31 -96q8 -21 18 -41q8 38 9 75q1 19 1 38q0 58 -7 115q-8 72 -21 144q-19 103 -49 203q-22 80 -58 155q-4 9 -4 18q0 16 14 29l341 276q-6 91 -6 183q0 699 95.5 965
t302.5 266q36 0 68 -18q36 -23 50.5 -60.5t14.5 -77.5q0 -16 -11 -27.5t-27 -11.5t-27.5 9t-11.5 30q0 17 -7.5 33t-29.5 16q-148 0 -186.5 -301.5t-38.5 -822.5q0 -190 26 -379q18 -154 57 -303q13 -49 31 -96q8 -21 18 -41q8 38 9 75q1 19 1 38q0 58 -7 115q-8 72 -21 144
q-19 103 -49 203q-22 80 -58 155q-4 9 -4 18q0 16 14 29l274.5 240.5t122.5 80.5q24 0 50 -2.5t49 -11.5q17 -6 31 -17q18 -16 18 -39v-5q-15 -96 -18 -193v-26q0 -54 6 -116q9 -79 36 -136q12 -28 40 -28q20 0 39.5 10t34.5 23q58 51 102 122t72 142q31 75 50 154v4
q0 11 5 20q8 15 25 19q19 4 39 4q7 0 15 -1q30 -2 60 -9q16 -4 30.5 -11t21.5 -23q38 -113 55 -231q10 -65 16 -131q194 156 401 294q9 5 18 5h5q12 -3 19 -13q5 -9 5 -18v-5q-3 -12 -13 -20q-199 -138 -372 -290l-57 -48q1 -42 1 -84q0 -120 -22 -238q-42 -244 -172 -454
q-53 -84 -131.5 -152t-179.5 -85q-22 -4 -43 -4q-74 0 -136 53q-36 32 -52.5 75.5t-16.5 90.5q0 57 28.5 119.5t68 119.5t75.5 101q83 100 175 192q99 100 204 194q5 5 10 9q0 32 -1 63q-5 111 -22 220q-8 50 -19 99q-9 -24 -19 -48q-24 -61 -61.5 -126t-87 -121t-111 -91.5
t-134.5 -35.5q-39 0 -74 18q-80 50 -105 169q-20 94 -20 194q0 27 1 55q4 66 10 120l-274 -237q29 -69 50 -140q30 -104 50 -211q15 -75 23 -151q7 -61 7 -122q0 -21 -1 -41q-1 -56 -19 -117.5t-69 -90.5q-23 -12 -50 -12q-45 0 -77.5 34t-54 79t-33.5 82q-29 88 -47 179
q-20 102 -33 204q-9 64 -15 129z" />
    <glyph glyph-name="uniEED9" unicode="tt" horiz-adv-x="1295" 
d="M814 1112q-14 -464 -14 -551q0 -72 11.5 -147.5t37.5 -144.5q14 -36 40.5 -70t65.5 -44q8 -2 17 -2q26 0 49 13.5t41 31.5q80 80 139.5 172t108.5 196q35 75 65 151q5 12 16 17q6 3 13 3q5 0 11 -2q12 -5 17 -16q3 -5 3 -11t-3 -12q-30 -80 -67 -156
q-31 -68 -77.5 -153.5t-106 -165.5t-130 -133t-149.5 -53q-32 0 -63 10q-65 23 -107.5 76t-66.5 115q-31 76 -44 160t-13 165q0 105 13 528l-395 -46q-52 -557 -52 -924q0 -72 11.5 -147.5t37.5 -144.5q14 -36 40.5 -70t65.5 -44q8 -2 17 -2q80 0 165.5 134.5t104.5 181.5
q5 12 16 17q6 3 13 3q18 -1 28 -18q3 -5 3 -11q0 -4 -3 -12q-61 -158 -157.5 -285.5t-239.5 -127.5q-32 0 -63 10q-65 23 -107.5 76t-66.5 115q-31 76 -44 160t-13 165q0 467 49 902l-212 -24q-15 0 -25 10q-12 10 -13 26q0 16 10 27.5t27 12.5l222 25q43 378 54 483
q2 15 13 24.5t25 9.5q49 0 98 -18q12 -6 23 -13q29 -18 29 -51q-9 -97 -30 -236q-10 -90 -18 -176l389 45q15 472 27 585q2 15 13 24.5t25 9.5q49 0 98 -18q12 -6 23 -13q29 -18 29 -51q-8 -91 -22 -514l248 29q16 0 27.5 -10t12.5 -27q0 -16 -10 -27.5t-26 -12.5z" />
    <glyph glyph-name="uniEEDA" unicode="tty" horiz-adv-x="2488" 
d="M1993 146q-80 -73 -157 -151q-89 -89 -169 -186q-29 -36 -65 -86.5t-63 -105t-27 -100.5q0 -40 19 -73.5t57 -33.5t73 25q127 101 202 247q114 218 130 464zM790 1334l-9 -261q-9 -312 -9 -382q0 -72 11.5 -147.5t37.5 -144.5q14 -36 40.5 -70t65.5 -44q8 -2 17 -2
q26 0 49 13.5t41 31.5q80 80 139.5 172t108.5 196q35 75 65 151q5 12 17.5 28.5t39.5 16.5q24 0 50 -2.5t49 -11.5q17 -6 31 -17q18 -16 18 -39v-5q-15 -96 -18 -193v-26q0 -54 6 -116q9 -79 36 -136q12 -28 40 -28q20 0 39.5 10t34.5 23q58 51 102 122t72 142q31 75 50 154
v4q0 11 5 20q8 15 25 19q19 4 39 4q7 0 15 -1q30 -2 60 -9q16 -4 30.5 -11t21.5 -23q38 -113 55 -231q10 -65 16 -131q194 156 401 294q9 5 18 5h5q12 -3 19 -13q5 -9 5 -18v-5q-3 -12 -13 -20q-199 -138 -372 -290l-57 -48q1 -42 1 -84q0 -120 -22 -238q-42 -244 -172 -454
q-53 -84 -131.5 -152t-179.5 -85q-22 -4 -43 -4q-74 0 -136 53q-36 32 -52.5 75.5t-16.5 90.5q0 57 28.5 119.5t68 119.5t75.5 101q83 100 175 192q99 100 204 194q5 5 10 9q0 32 -1 63q-5 111 -22 220q-8 50 -19 99q-9 -24 -19 -48q-24 -61 -61.5 -126t-87 -121t-111 -91.5
t-134.5 -35.5q-39 0 -74 18q-80 50 -105 169q-20 94 -20 194q0 27 1 55l2 40l-8 -18q-31 -68 -77.5 -153.5t-106 -165.5t-130 -133t-149.5 -53q-32 0 -63 10q-65 23 -107.5 76t-66.5 115q-31 76 -44 160t-13 165q0 65 5 252l11 369l-328 -38q-12 -106 -42 -427
q-34 -361 -34 -728q0 -72 11.5 -147.5t37.5 -144.5q14 -36 40.5 -70t65.5 -44q8 -2 17 -2q80 0 165.5 134.5t104.5 181.5q5 12 16 17q6 3 13 3q18 -1 28 -18q3 -5 3 -11q0 -4 -3 -12q-61 -158 -157.5 -285.5t-239.5 -127.5q-32 0 -63 10q-65 23 -107.5 76t-66.5 115
q-31 76 -44 160t-13 165q0 467 51 912l25 222l-332 -38q-16 0 -27 11q-13 11 -14 29q0 17 11 29.5t29 13.5l342 39l27 244q2 15 13 24.5t25 9.5q49 0 98 -18q12 -6 23 -13q29 -18 29 -51q-7 -74 -21 -174l320 37q8 255 19 355q2 15 13 24.5t25 9.5q49 0 98 -18q12 -6 23 -13
q29 -18 29 -51q-5 -56 -13 -285l655 75q18 0 30.5 -11t13.5 -29q0 -18 -11 -30.5t-28 -13.5z" />
    <glyph glyph-name="uniEEDB" unicode="ty" horiz-adv-x="1833" 
d="M1393 -7q-80 -73 -157 -151q-89 -89 -169 -186q-29 -36 -65 -86.5t-63 -105t-27 -100.5q0 -40 18 -78q10 -16 25 -22.5t33 -6.5q38 0 73 25q127 101 202 247q114 218 130 464zM744 512q-27 -57 -64 -125q-47 -86 -106.5 -166t-130 -133t-149.5 -53q-32 0 -63 10
q-65 23 -107.5 76t-66.5 115q-31 76 -44 160t-13 165q0 150 42 297l-154 8q-17 1 -27 12.5t-10 27.5q1 16 13 26q10 10 25 10h3l175 -8q41 112 113 208q12 15 30 15q22 0 45.5 -2.5t44.5 -9.5q21 -8 34 -24q10 -12 10 -27q0 -6 -1 -12q-2 -8 -7 -14q-45 -68 -76 -144
l318 -19q16 -1 26 -12.5t10 -27.5q-1 -17 -12.5 -27t-27.5 -10l-340 20q-42 -142 -42 -287q0 -72 11.5 -147.5t37.5 -144.5q14 -36 40.5 -70t65.5 -44q8 -2 17 -2q26 0 49 13.5t41 31.5q80 80 139.5 172t108.5 196q35 75 65 151q5 12 14.5 17t22.5 5q24 0 50 -2.5t49 -11.5
q17 -6 31 -17q18 -16 18 -39v-5q-15 -96 -18 -193v-26q0 -54 6 -116q9 -79 36 -136q12 -28 40 -28q20 0 39.5 10t34.5 23q58 51 102 122t72 142q31 75 50 154v4q0 11 5 20q8 15 25 19q19 4 39 4q7 0 15 -1q30 -2 60 -9q16 -4 30.5 -11t21.5 -23q38 -113 55 -231
q10 -65 16 -131q194 156 401 294q9 5 18 5h5q12 -3 19 -13q5 -9 5 -18v-5q-3 -12 -13 -20q-199 -138 -372 -290l-57 -48q1 -42 1 -84q0 -120 -22 -238q-42 -244 -172 -454q-53 -84 -131.5 -152t-179.5 -85q-22 -4 -43 -4q-74 0 -136 53q-36 32 -52.5 75.5t-16.5 90.5
q0 57 28.5 119.5t68 119.5t75.5 101q83 100 175 192q99 100 204 194q5 5 10 9q0 32 -1 63q-5 111 -22 220q-8 50 -19 99q-9 -24 -19 -48q-24 -61 -61.5 -126t-87 -121t-111 -91.5t-134.5 -35.5q-39 0 -74 18q-80 50 -105 169q-20 94 -20 194q0 27 1 55q0 9 1 17z" />
    <glyph glyph-name="uniE010" unicode="ee" horiz-adv-x="1344" 
d="M973 425q37 35 47 82.5t10 87.5q0 39 -7.5 82t-28.5 78q-5 9 -13.5 15.5t-19.5 6.5q-9 0 -16.5 -5.5t-12.5 -13.5q-29 -40 -42 -88q-26 -96 -26 -194q0 -22 13 -46t46 -24q33 2 50 19zM202 562q12 -1 24 -1q16 0 33 2q29 4 52 19q35 27 45 74.5t10 87.5q0 39 -7.5 82
t-28.5 78q-5 9 -13.5 15.5t-19.5 6.5q-9 0 -16.5 -5.5t-12.5 -13.5q-29 -40 -42 -88q-27 -96 -27 -195q0 -21 2 -43q0 -9 1 -19zM719 749q38 77 96 112q40 23 86 23q62 0 113 -37q54 -45 73.5 -115.5t19.5 -136.5q0 -61 -17.5 -123.5t-70.5 -101.5q-43 -35 -83 -35
q-51 0 -70 16q22 -153 75 -241.5t121 -88.5q199 17 342 510q5 15 12 22q11 12 27 13q9 0 17 -5q11 -7 11 -27q0 -8 -2 -16q-41 -174 -160.5 -389.5t-276.5 -215.5q-191 0 -272 152.5t-92 314.5q-2 24 -3 49q0 27 2 65q-134 -241 -216 -322q-40 -41 -92.5 -75.5t-110.5 -34.5
q-43 0 -76 25t-56.5 60.5t-38.5 71.5q-62 148 -73 310q-2 24 -3 49q-1 16 -1 33q0 57 8 124q9 86 42 162t100 115q41 21 87 21q62 0 113 -37q54 -45 73.5 -115.5t19.5 -136.5q0 -61 -17.5 -123.5t-70.5 -101.5q-58 -35 -124 -35q-11 0 -22 1q12 -99 44 -192q10 -31 24 -60
q8 -16 20.5 -29.5t31.5 -13.5t36.5 11t31.5 25q94 93 189 269.5t133 253.5z" />
    <glyph glyph-name="bb" unicode="bb" horiz-adv-x="1810" 
d="M207 970q46 35 86 78q56 58 104 140t50 165q0 14 -2 27q-2 15 -10.5 35.5t-26.5 20.5q-30 0 -55 -27.5t-44.5 -67t-32.5 -77.5t-20 -62q-21 -72 -35 -147q-6 -30 -11 -60zM1112 766q46 35 86 78q56 58 104 140.5t50 164.5q0 14 -2 27q-2 16 -10.5 36t-26.5 20
q-30 0 -55 -27.5t-44.5 -67t-32.5 -77.5t-20 -62q-21 -72 -35 -146q-6 -30 -11 -61zM906 443q-70 -88 -160 -164q-128 -112 -274 -199q-109 -90 -248 -116q-9 -3 -17 -5q-5 -1 -11 -1q-9 0 -18 4q-13 7 -18 22q-2 7 -2 13q0 8 4 16q7 14 22 19q155 52 235 195q64 121 64 258
v10q0 20 -3 41l-3 15.5t-6 19.5q-5 12 -13 12q-7 0 -16 -9q-13 -13 -24 -28q-13 -18 -25 -37q-21 -32 -38 -67q-39 -78 -63 -162q-9 -30 -13.5 -47.5t-4.5 -45.5q0 -14 -7.5 -25t-21.5 -14q-5 -2 -11 -2q-17 0 -33 4q-45 14 -77 49.5t-51 76.5q-52 115 -63 242
q-10 96 -10 194q0 119 12 239q6 61 19.5 137t37.5 153.5t63 143.5t96 106.5t136 40.5q43 0 82 -22q41 -26 59.5 -68t18.5 -89q0 -65 -26 -130t-66 -123.5t-83 -104.5q-68 -72 -151 -125q-6 -79 -6 -158q0 -94 10 -187q9 -93 28 -186q22 68 53 131q22 48 57 99.5t81.5 88.5
t104.5 37q50 0 90 -34q35 -33 47 -82t12 -94q0 -53 -13.5 -106t-37.5 -101q37 28 71 59q84 71 164 163q25 28 47 57q1 95 11 190q6 61 19.5 137t37.5 153.5t63 143.5t96 106.5t136 40.5q43 0 82 -22q41 -26 59.5 -68t18.5 -89q0 -65 -26 -130t-66 -123.5t-83 -104.5
q-68 -72 -151 -125q-6 -79 -6 -158q0 -94 10 -187q9 -93 28 -186q22 68 53 131q22 48 57 99.5t81.5 88.5t104.5 37q50 0 90 -34q35 -33 47 -82t12 -94q0 -53 -13.5 -106t-37.5 -101q37 28 71 59q84 71 164 162.5t127 191.5q6 12 17 16q6 3 12 3t12 -3q11 -6 16 -18
q2 -5 2 -10q0 -6 -3 -13q-99 -221 -296 -387q-128 -112 -274 -199q-109 -90 -248 -116q-9 -3 -17 -5q-5 -1 -11 -1q-9 0 -18 4q-13 7 -18 22q-2 7 -2 13q0 9 4 16q7 14 22 19q155 52 235 195q64 121 64 258v10q0 20 -3 41l-3 15.5t-6 19.5q-5 12 -13 12q-7 0 -16 -9
q-13 -13 -24 -28q-13 -18 -25 -37q-21 -32 -38 -67q-39 -78 -63 -162q-9 -30 -13.5 -47.5t-4.5 -45.5q0 -14 -7.5 -25t-21.5 -14q-5 -2 -11 -2q-17 0 -33 4q-45 14 -77 49.5t-51 76.5q-52 115 -63 242q-7 64 -9 129z" />
    <glyph glyph-name="bg" unicode="bg" horiz-adv-x="1970" 
d="M207 970q46 35 86 78q56 58 104 140t50 165q0 14 -2 27q-2 15 -10.5 35.5t-26.5 20.5q-30 0 -55 -27.5t-44.5 -67t-32.5 -77.5t-20 -62q-21 -72 -35 -147q-6 -30 -11 -60zM1510 15q-56 -39 -125 -95.5t-133.5 -123.5t-107 -138.5t-42.5 -139.5q0 -66 46 -107t110 -41
q72 0 120 43.5t76.5 112t42.5 147.5t17 153q2 37 2 69q0 31 -2 57q-1 32 -4 63zM900 435q-68 -83 -154 -156q-128 -112 -274 -199q-109 -90 -248 -116q-9 -3 -17 -5q-5 -1 -11 -1q-9 0 -18 4q-13 7 -18 22q-2 7 -2 13q0 8 4 16q7 14 22 19q155 52 235 195q64 121 64 258v10
q0 20 -3 41l-3 15.5t-6 19.5q-5 12 -13 12q-7 0 -16 -9q-13 -13 -24 -28q-13 -18 -25 -37q-21 -32 -38 -67q-39 -78 -63 -162q-9 -30 -13.5 -47.5t-4.5 -45.5q0 -14 -7.5 -25t-21.5 -14q-5 -2 -11 -2q-17 0 -33 4q-45 14 -77 49.5t-51 76.5q-52 115 -63 242q-10 96 -10 194
q0 119 12 239q6 61 19.5 137t37.5 153.5t63 143.5t96 106.5t136 40.5q43 0 82 -22q41 -26 59.5 -68t18.5 -89q0 -65 -26 -130t-66 -123.5t-83 -104.5q-68 -72 -151 -125q-6 -79 -6 -158q0 -94 10 -187q9 -93 28 -186q22 68 53 131q22 48 57 99.5t81.5 88.5t104.5 37
q50 0 90 -34q35 -33 47 -82t12 -94q0 -53 -13.5 -106t-37.5 -101q37 28 71 59q84 71 164 163q52 58 89 121q29 56 77 96q67 55 181 56h3q92 0 160 -62q47 -45 62 -110q1 -4 1 -8q0 -11 -7 -20q-8 -13 -24 -17q-4 -1 -8 -1q-11 0 -21 7q-13 8 -17 24q-9 41 -39 70
q-27 22 -60 22q-32 0 -63 -18q-41 -30 -63.5 -77t-31 -100t-8.5 -100q0 -41 11 -85t32 -80q23 -38 63 -38q33 0 56 27q43 51 67 121.5t36 135.5q-1 4 -1 8q0 6 2 12q8 20 29 25q27 6 54 6q29 0 58 -7q15 -4 31 -12t26 -20q83 -120 115 -263q88 53 197 109t200 98q7 3 13 3
t11 -2q11 -4 17 -16q3 -6 3 -13q0 -5 -2 -10q-4 -12 -16 -17q-107 -51 -189 -98.5t-169 -103.5l-48 -30q16 -88 20 -177q2 -31 2 -63q0 -70 -9 -143q-12 -106 -53 -202.5t-120 -164.5q-58 -47 -126 -68.5t-142 -21.5q-96 0 -164.5 63.5t-68.5 161.5q0 86 49 170.5t123 161.5
t154.5 141t146.5 110q-7 48 -19 95q-22 92 -66 177q-18 -73 -52.5 -141t-90.5 -113t-141 -45q-60 0 -103.5 28.5t-72 74.5t-42 100t-13.5 106q0 26 2 52z" />
    <glyph glyph-name="ck" unicode="ck" horiz-adv-x="1545" 
d="M876 681q101 104 174.5 205.5t75.5 185.5q0 27 -6.5 50t-24.5 34q-7 4 -15 4q-54 0 -91.5 -43.5t-61.5 -107t-36.5 -128.5t-14.5 -200zM295 110q-97 1 -156 44.5t-89 114.5t-40 153.5t-10 158.5q0 49 10.5 99.5t38.5 93.5q31 47 79.5 75t105.5 28q64 0 117 -42
q51 -51 51 -117q0 -20 -5 -42q-4 -15 -17 -24q-10 -6 -22 -6h-6q-16 4 -25 17q-6 10 -6 22v6q2 13 2 25q0 8 -1 16q-1 18 -9 33.5t-27 15.5q-11 0 -21 -4q-34 -17 -50 -60.5t-20 -78.5q-4 -28 -4 -57q0 -42 6 -104.5t23.5 -124t52 -103.5t91.5 -42q89 0 320 287
q-5 95 -5 156q0 54 3 113q6 126 43 241t122 185q43 33 92.5 48t102.5 15q82 0 121.5 -51t39.5 -128q0 -105 -100.5 -229.5l-230.5 -273.5q0 -28 14 -164l293 250q12 9 25 9h3q15 -2 26 -14q9 -11 9 -25v-3q-1 -15 -13 -26l-245 -209l25 -27l22 -24q51 -56 107 -108
q18 -17 49.5 -42.5t65 -46t57.5 -20.5q44 0 84.5 43.5t76 111.5t65 144t51 143.5l34.5 109.5q2 8 4 15q4 13 15 19q7 3 14 3q5 0 9 -1q13 -4 18 -15q4 -7 4 -15q0 -4 -1 -8q-8 -25 -16 -55q-18 -64 -43 -141.5t-57.5 -155t-75.5 -142t-98 -104.5t-124 -40q-71 0 -137.5 34
t-124 85.5t-103.5 105.5q20 -125 45 -249q1 -6 1 -13q-3 -15 -13.5 -24t-25.5 -9q-54 0 -104 24q-20 9 -37 25t-22 37q-35 173 -54 348q-65 -92 -174.5 -186.5t-225.5 -99.5z" />
    <glyph glyph-name="ey" unicode="ey" horiz-adv-x="1816" 
d="M202 562q12 -1 24 -1q16 0 33 2q29 4 52 19q35 27 45 74.5t10 87.5q0 39 -7.5 82t-28.5 78q-5 9 -13.5 15.5t-19.5 6.5q-9 0 -16.5 -5.5t-12.5 -13.5q-29 -40 -42 -88q-26 -96 -26 -195q0 -21 1 -43q0 -9 1 -19zM1321 35l-157 -151q-89 -89 -169 -187
q-30 -35 -65.5 -85.5t-62.5 -105.5t-27 -100q0 -41 18 -78q10 -17 25 -23.5t33 -6.5q38 0 73 25q127 102 201 247q114 218 131 465zM673 516q-78 -189 -186 -321.5t-239 -132.5q-43 0 -76 25t-56.5 60.5t-38.5 71.5q-62 148 -73 310q-2 24 -3 49q-1 16 -1 33q0 57 8 124
q9 86 42 162t100 115q41 21 87 21q62 0 113 -37q54 -45 73.5 -115.5t19.5 -136.5q0 -61 -17.5 -123.5t-70.5 -101.5q-57 -35 -123 -35q-11 0 -23 1q12 -99 44 -192q10 -31 24 -60q8 -16 20.5 -29.5t31.5 -13.5q63 0 189.5 189t175.5 371q3 14 13.5 22.5t24.5 8.5
q24 0 50 -2.5t49 -11.5q17 -6 31 -17q18 -17 18 -40v-4q-15 -96 -18 -193l-1 -27q0 -53 7 -115q9 -79 36 -136q12 -28 40 -28q20 0 39.5 10t34.5 23q58 51 102 122t72 142q31 75 50 154v3q0 11 5 21q8 15 25 19q19 3 38 3h16q30 -2 60 -9q16 -4 30.5 -11t21.5 -23
q38 -113 55 -231q10 -65 16 -131q194 156 401 294q8 5 17 5h6q12 -3 19 -13q5 -9 5 -18v-5q-3 -12 -13 -20q-199 -138 -372 -290l-57 -48q1 -42 1 -84q0 -120 -22 -238q-42 -244 -172 -454q-53 -84 -131.5 -152t-179.5 -85q-22 -4 -43 -4q-74 0 -136 53q-36 32 -52.5 75.5
t-16.5 90.5q0 57 28.5 119.5t68 119.5t75.5 101q83 100 175 192q99 100 204 194q5 5 10 9q0 32 -1 63q-5 111 -22 220q-8 50 -19 99q-9 -24 -19 -48q-24 -61 -61.5 -126t-87 -121t-111 -91.5t-134.5 -35.5q-39 0 -74 18q-80 50 -105 169q-17 79 -17 228z" />
    <glyph glyph-name="gg" unicode="gg" horiz-adv-x="2102" 
d="M612 301q-56 -39 -125 -95.5t-133.5 -123.5t-107 -138.5t-42.5 -139.5q0 -66 46 -107t110 -41q72 0 120 43.5t76.5 112t42.5 147.5t17 153q2 37 2 69q0 31 -2 57q-1 32 -4 63zM1653 3q-56 -39 -125 -95.5t-133.5 -123.5t-107 -138.5t-42.5 -139.5q0 -66 46 -107t110 -41
q72 0 120 43.5t76.5 112t42.5 147.5t17 153q1 37 1 68q0 32 -1 58q-1 32 -4 63zM1085 597l-80 -44l-169 -104l-48 -30q16 -88 20 -177q2 -31 2 -63q0 -70 -9 -143q-12 -106 -53 -202.5t-120 -164.5q-58 -47 -126 -68.5t-142 -21.5q-96 0 -164.5 63.5t-68.5 161.5
q0 86 49 170.5t123 161.5t154.5 141t146.5 110q-7 48 -19 95q-22 92 -66 177q-18 -73 -52.5 -141t-90.5 -113t-141 -45q-60 0 -103.5 28.5t-72 74.5t-42 100t-13.5 106q0 99 29.5 188.5t97 145t181.5 56.5h3q92 0 160 -62q47 -45 62 -110q1 -4 1 -8q0 -11 -7 -20
q-8 -13 -24 -17q-4 -1 -8 -1q-11 0 -21 7q-13 8 -17 24q-9 41 -39 70q-27 22 -60 22q-32 0 -63 -18q-41 -30 -63.5 -77t-31 -100t-8.5 -100q0 -41 11 -85t32 -80q23 -38 63 -38q33 0 56 27q43 51 67 121.5t36 135.5q-1 4 -1 8q0 6 2 12q8 20 29 25q27 6 54 6q29 0 58 -7
q15 -4 31 -12t26 -20q83 -120 115 -263q88 53 197 109t200 98q1 1 3 1q67 53 178 54h2q93 0 161 -62q47 -45 62 -110v-8q0 -11 -6 -20q-8 -13 -24 -17q-4 -1 -8 -1q-12 0 -21 7q-13 8 -17 24q-9 41 -39 70q-27 22 -60 22q-32 0 -63 -18q-41 -30 -63.5 -77t-31 -100
t-8.5 -100q0 -41 11 -85t32 -80q23 -38 63 -38q33 0 56 27q43 51 67 121.5t36 135.5q-1 4 -1 8q0 6 2 12q8 20 29 25q26 6 53 6q29 0 59 -7q15 -4 31 -12t26 -20q83 -120 115 -263q88 53 197 109t200 98q6 3 13 3q5 0 11 -2q11 -4 17 -16q2 -6 2 -13q0 -5 -1 -10
q-4 -12 -16 -17q-107 -51 -189 -98.5t-169 -103.5l-48 -30q16 -88 20 -177q1 -32 1 -64q0 -69 -8 -142q-12 -106 -53 -202.5t-120 -164.5q-58 -47 -126 -68.5t-142 -21.5q-96 0 -164.5 63.5t-68.5 161.5q0 86 49 170.5t123 161.5t154.5 141t146.5 110q-7 48 -19 95
q-22 92 -66 177q-18 -73 -52.5 -141t-90.5 -113t-141 -45q-60 0 -103.5 28.5t-72 74.5t-42 100t-13.5 106q0 99 30 189q6 19 14 37z" />
    <glyph glyph-name="pp" unicode="pp" horiz-adv-x="1699" 
d="M283 311q90 56 146 147q19 32 32 69.5t13 74.5q0 18 -7 35q-6 11 -17 11t-22 -7q-61 -50 -95.5 -142.5t-49.5 -187.5zM1172 133q90 56 146 147q19 32 32 69.5t13 74.5q0 18 -7 35q-6 11 -17 11t-22 -7q-61 -50 -95.5 -142.5t-49.5 -187.5zM890 564q-47 -69 -100 -117
q-64 -56 -174 -104q-50 -22 -101 -39q-23 -20 -50 -33q-72 -31 -151 -31h-10q-18 0 -30 14q-4 -27 -7 -50q-19 -182 -22 -364v-27q-1 -48 -3 -96v-4q-1 -14 -3 -29q-2 -19 -12 -34t-32 -15h-9q-45 5 -73 43.5t-43.5 87.5t-21.5 87q-19 97 -28 196q-10 111 -14 222
q-6 176 -6 352q0 69 1 137v16l1 37l-1 36q0 16 11 28q12 11 28 11q30 0 60 -7q28 -5 55 -19t37 -43q2 -7 2 -13q0 -5 -1 -9q-22 -216 -24 -433q-1 -56 -1 -113q0 -127 6 -254q4 108 17 216q6 57 19 127.5t35.5 142t59 132t90 97.5t127.5 37q65 0 104.5 -41.5t39.5 -105.5
q0 -46 -14 -90.5t-37 -84.5q66 32 128.5 79t104.5 108q25 35 43 77q6 12 17 16q6 3 12 3h9q30 0 60 -7q28 -5 55 -19t37 -43q2 -7 2 -13q0 -5 -1 -9q-22 -216 -24 -433q-1 -56 -1 -113q0 -127 6 -254q4 108 17 216q6 57 19 127.5t35.5 142t59 132t90 97.5t127.5 37
q65 0 104.5 -41.5t39.5 -105.5q0 -46 -14 -90.5t-37 -84.5q66 32 128.5 79t104.5 108q25 35 43 77q6 12 17 16q6 3 12 3t12 -3q11 -6 16 -18q2 -5 2 -10q0 -6 -3 -13q-18 -41 -41 -77q-53 -86 -116.5 -142t-173.5 -104q-50 -22 -101 -39q-23 -20 -50 -33q-72 -31 -151 -31
h-10q-18 0 -30 14q-4 -27 -7 -50q-19 -182 -22 -364v-27q-1 -48 -3 -96v-4q-1 -14 -3 -29q-2 -19 -12 -34t-32 -15h-9q-45 5 -73 43.5t-43.5 87.5t-21.5 87q-19 97 -28 196q-10 111 -14 222q-6 176 -6 352q0 60 1 119z" />
    <glyph glyph-name="sp" unicode="sp" horiz-adv-x="1519" 
d="M271 121q-13 -16 -25 -33q-24 -32 -53.5 -82t-29.5 -87q0 -15 5.5 -27t19.5 -20q22 -9 44 -9q37 0 57.5 19.5t28.5 50t8 61.5q0 32 -17.5 66t-37.5 61zM992 91q91 56 146 147q20 32 32.5 69.5t12.5 74.5q0 18 -6 35q-6 11 -18 11q-11 0 -21 -7q-61 -50 -95.5 -142.5
t-50.5 -187.5zM711 573l-23 -20q-143 -126 -273 -268q-8 -8 -15 -16q44 -52 76 -111t32 -129q0 -123 -78.5 -191.5t-197.5 -68.5q-48 0 -88 29q-29 22 -43.5 53.5t-14.5 67.5q0 43 23.5 92t55 94.5t59.5 79.5l-34 43l-59 76q-34 45 -64 94.5t-48.5 104t-18.5 112.5
q0 64 26 125t76 100.5t121 39.5q67 0 122 -45q51 -51 51 -117q0 -20 -5 -42q-3 -15 -16 -24q-10 -6 -23 -6h-6q-16 4 -24 17q-7 9 -7 20q0 4 1 8q3 12 3 24q0 28 -16 52q-10 12 -24 12q-16 0 -29 -12q-29 -29 -43.5 -70.5t-14.5 -81.5q0 -37 11 -73q22 -62 62 -114
q39 -50 81 -97q2 -2 3 -4q128 129 270 248q15 12 29 25l73 61q13 11 39 11q16 0 49 -9t56 -21q27 -14 37 -43q1 -7 1 -13v-9q-22 -216 -24 -433q-2 -56 -2 -113q0 -127 7 -254q4 108 17 216q6 57 19 127.5t35.5 142t59 132t90 97.5t127.5 37q65 0 104.5 -41.5t39.5 -105.5
q0 -46 -14 -90.5t-37 -84.5q66 32 128.5 79t104.5 108q25 35 43 77q6 12 17 16q6 2 12 2t12 -2q11 -6 16 -18q1 -5 1 -10q0 -6 -2 -13q-18 -41 -41 -77q-53 -86 -116.5 -142t-173.5 -104q-50 -22 -101 -39q-23 -20 -50 -33q-72 -31 -152 -31h-9q-18 0 -30 14q-4 -27 -7 -50
q-19 -182 -22 -364v-27q-1 -48 -3 -96v-4q-1 -14 -3 -29q-2 -19 -12 -34t-32 -15h-9q-45 5 -73 43.5t-43.5 87.5t-21.5 87q-19 97 -28 196q-10 111 -14 222q-6 176 -6 352q0 69 1 137v33z" />
    <glyph glyph-name="Th" unicode="Th" horiz-adv-x="2387" 
d="M1382 450q-46 -73 -100 -151q-102 -149 -207 -241q-46 -39 -97 -64.5t-105 -25.5q-18 0 -35 4q-57 17 -94.5 68.5t-60 115.5t-34.5 116q-28 124 -43 251q-16 141 -24 282q-12 235 -12 471v169q0 7 1 14l-114 2q-120 2 -241 2q-21 0 -40.5 -5.5t-35.5 -19.5
q-34 -32 -45 -87t-11 -98q0 -100 26 -199q21 -91 51 -179q53 -154 127 -299q29 -57 63 -111q22 -37 50 -68q12 -12 12 -28v-2q0 -17 -13 -30q-12 -11 -27 -11h-3q-17 0 -29 12q-35 38 -61 81q-37 58 -67 119q-77 150 -131 310q-33 93 -55 190q-27 107 -27 215q0 65 17 134
t69 116q27 23 60.5 33.5t69.5 10.5q79 0 159 -2q65 -1 131 -1h65v36q1 17 13 29.5t30 12.5q29 0 60.5 -5t58.5 -19q15 -7 27.5 -19t17.5 -28q78 3 190 19t211 53.5t138 106.5q13 29 13 61q0 18 12.5 30t30.5 12q22 0 46.5 -2t46.5 -9q8 -2 16 -6q31 -16 31 -51v-2
q-5 -39 -22 -74q-38 -70 -108 -110t-144 -60q-186 -49 -378 -55q-41 -2 -82 -3v-32q-1 -95 -1 -190q0 -222 12 -444q7 -127 21 -253q12 -113 36 -225q14 -67 38 -132q12 -35 31 -68q13 -22 39 -22q18 0 36.5 9t32.5 21q121 104 214 230q70 93 134 194q-4 42 -7 83
q-5 76 -6 171q0 220 8 299q8 104 45 212t124 173q73 47 159 47q80 0 120 -51.5t40 -127.5q0 -121 -100 -310.5t-201 -357.5q10 -192 40 -383q24 74 53 146q16 39 40.5 87.5t57 93.5t73 75t88.5 30q45 0 72 -23.5t39 -60t12 -76.5q0 -47 -5.5 -93.5t-12.5 -93.5
q-1 -12 -3 -25q-12 -81 -18 -163v-7q0 -7 1 -14l1 -1q0 -1 0.5 -2t1.5 -1q2 0 4.5 1.5t4.5 2.5q8 8 15 17q167 243 297 508q6 11 18 15q4 2 9 2q7 0 14 -4q12 -6 16 -18q1 -4 1 -8q0 -7 -3 -15l-45 -89q-63 -129 -133.5 -257t-155.5 -236q-17 -23 -41.5 -48.5t-53.5 -45
t-59 -19.5q-13 0 -25 5q-38 18 -49.5 62t-11.5 81q0 61 6 122.5t15 122.5q1 13 3 27q7 43 12 87t5 87q0 3 -0.5 8t-2.5 9t-6 4q-8 0 -16 -7t-13 -14q-8 -12 -15 -25q-38 -62 -66 -130q-38 -93 -66 -189l-19 -73v-2q-6 -20 -9 -41q0 -1 -1 -2q-3 -14 -13 -22t-24 -9
q-15 0 -30 4q-54 15 -90 58q-44 49 -57 113q-16 95 -27 192zM1778 1355q0 24 -8 48q-9 29 -37 29q-24 0 -46 -18q-72 -58 -102 -165q-25 -90 -30 -417q34 56 128.5 239.5t94.5 283.5z" />
    <glyph glyph-name="ky" unicode="ky" horiz-adv-x="2012" 
d="M196 769q53 33 110.5 79.5t98 103t42.5 120.5q-1 20 -7 46.5t-24 37.5q-7 4 -15 4q-54 0 -91.5 -43.5t-61.5 -107t-36.5 -128.5t-15.5 -112zM1518 -151l-158 -151q-89 -89 -169 -186q-29 -36 -65 -86.5t-63 -105.5t-27 -100q0 -41 19 -78q9 -16 24.5 -23t33.5 -7
q37 0 72 26q127 101 202 247q114 218 131 464zM866 270q-24 -50 -53 -93q-43 -65 -98 -105t-124 -40q-71 0 -137.5 34t-124 85.5t-103.5 105.5q20 -125 45 -249q1 -6 1 -13q-3 -15 -13.5 -24t-25.5 -9q-54 0 -104 24q-20 9 -37 25t-22 37q-49 241 -66 486q-4 55 -4 116
q0 54 3 113q6 126 43 241t122 185q43 33 92.5 48t102.5 15q82 0 121.5 -51t39.5 -128q0 -67 -32 -125.5t-82 -108.5t-107.5 -90.5t-110.5 -70.5q0 -136 15 -272l293 250q12 9 25 9h3q15 -2 26 -14q9 -11 9 -25v-3q-1 -15 -13 -26l-245 -209l25 -27l22 -24q51 -56 107 -108
q18 -17 49.5 -42.5t65 -46t57.5 -20.5q44 0 84.5 43.5t76 111.5t63 158.5t35.5 130.5q3 14 14 23q10 8 37 9q14 0 31 -2q34 -5 55 -13q17 -6 31 -17q18 -16 18 -39v-5q-15 -96 -18 -193v-26q0 -54 6 -116q9 -79 36 -136q12 -28 40 -28q20 0 39.5 10t34.5 23q58 51 102 122
t72 142q31 75 50 154v4q0 10 5 20q8 15 25 19q19 3 39 3h15q30 -2 60 -9q16 -4 30.5 -11t21.5 -23q38 -113 55 -231q10 -65 16 -131q194 156 401 294q9 5 18 5h5q12 -3 19 -13q6 -9 6 -18l-1 -5q-3 -12 -13 -20q-199 -138 -372 -290l-57 -48q1 -42 1 -84q0 -120 -22 -238
q-42 -244 -172 -454q-53 -84 -131.5 -152t-179.5 -85q-22 -4 -43 -4q-74 0 -136 53q-36 32 -52.5 75.5t-16.5 90.5q0 57 28.5 119.5t68 119.5t75.5 101q83 100 175 192q99 100 204 194q5 5 10 9q0 32 -1 63q-5 111 -22 220q-8 50 -19 99q-9 -24 -19 -48q-24 -61 -61.5 -126
t-87 -121t-111 -91.5t-134.5 -35.5q-39 0 -74 18q-80 50 -105 169q-17 82 -20 168z" />
    <glyph glyph-name="py" unicode="py" horiz-adv-x="2000" 
d="M283 311q90 56 146 147q19 32 32 69.5t13 74.5q0 18 -7 35q-6 11 -17 11t-22 -7q-61 -50 -95.5 -142.5t-49.5 -187.5zM1514 -37q-80 -73 -157 -151q-89 -89 -169 -186q-29 -36 -65 -86.5t-63 -105t-27 -100.5q0 -40 18 -78q10 -16 25 -22.5t33 -6.5q38 0 73 25
q127 101 202 247q114 218 130 464zM869 534q-38 -50 -79 -87q-64 -56 -174 -104q-50 -22 -101 -39q-23 -20 -50 -33q-72 -31 -151 -31h-10q-18 0 -30 14q-4 -27 -7 -50q-19 -182 -22 -364v-27q-1 -48 -3 -96v-4q-1 -14 -3 -29q-2 -19 -12 -34t-32 -15h-9q-45 5 -73 43.5
t-43.5 87.5t-21.5 87q-19 97 -28 196q-10 111 -14 222q-6 176 -6 352q0 69 1 137v16l1 37l-1 36q0 16 11 28q12 11 28 11q30 0 60 -7q28 -5 55 -19t37 -43q2 -7 2 -13q0 -5 -1 -9q-22 -216 -24 -433q-1 -56 -1 -113q0 -127 6 -254q4 108 17 216q6 57 19 127.5t35.5 142
t59 132t90 97.5t127.5 37q65 0 104.5 -41.5t39.5 -105.5q0 -46 -14 -90.5t-37 -84.5q66 32 128.5 79t104.5 108q25 35 43 77q6 12 14 15t22 3q23 0 48 -2q26 -3 49 -12q17 -6 31 -17q18 -16 18 -39v-5q-15 -96 -18 -193v-26q0 -54 6 -116q9 -79 36 -136q12 -28 40 -28
q20 0 39.5 10t34.5 23q58 51 102 122t72 142q31 75 50 154v4q0 11 5 20q8 15 25 19q19 4 39 4q7 0 15 -1q30 -2 60 -9q16 -4 30.5 -11t21.5 -23q38 -113 55 -231q10 -65 16 -131q194 156 401 294q9 5 18 5h5q12 -3 19 -13q5 -9 5 -18v-5q-3 -12 -13 -20q-199 -138 -372 -290
l-57 -48q1 -42 1 -84q0 -120 -22 -238q-42 -244 -172 -454q-53 -84 -131.5 -152t-179.5 -85q-22 -4 -43 -4q-74 0 -136 53q-36 32 -52.5 75.5t-16.5 90.5q0 57 28.5 119.5t68 119.5t75.5 101q83 100 175 192q99 100 204 194q5 5 10 9q0 32 -1 63q-5 111 -22 220
q-8 50 -19 99q-9 -24 -19 -48q-24 -61 -61.5 -126t-87 -121t-111 -91.5t-134.5 -35.5q-39 0 -74 18q-80 50 -105 169q-20 94 -20 194q0 27 1 55q2 36 5 69z" />
    <glyph glyph-name="uniE011" unicode="aa" horiz-adv-x="2113" 
d="M553 789l-34 14q-15 8 -30 12.5t-41 4.5q-57 0 -109.5 -34.5t-85.5 -81.5q-27 -40 -44 -95.5t-17 -102.5q0 -45 8 -85t28 -80q23 -51 73 -52q64 3 110.5 65t77.5 144t49 145q13 48 15 146zM1611 689q-21 8 -34 14q-16 8 -31 13t-40 5q-58 0 -110 -35t-85 -82
q-28 -40 -45 -95.5t-17 -102.5q0 -45 8 -85t29 -80q23 -51 72 -52q64 3 110.5 65t77.5 144t49 146q14 47 16 145zM1057 397q-36 -60 -83 -120q-24 -31 -55.5 -62t-69 -52.5t-78.5 -21.5q-58 0 -95.5 38t-60 90t-33.5 101q-15 67 -22 135q-12 -47 -34 -101.5t-58.5 -105
t-94 -83t-142.5 -32.5q-50 0 -92 23t-72 64q-38 53 -52.5 112t-14.5 124t24.5 137.5t66.5 125.5q56 69 132 103t164 34q57 0 98 -11q50 -16 105 -38q25 7 49 7q29 0 58 -10q19 -7 34 -22.5t15 -36.5q-2 -46 -2 -94v-31q0 -73 6 -146q7 -77 26 -152q9 -39 32 -72
q6 -9 16 -16.5t22 -7.5q19 0 37.5 16.5t30.5 31.5q61 78 201 298q15 25 33 47q56 69 132 103t164 34q57 0 98 -11q51 -16 105 -38q25 7 49 7q29 0 58 -10q19 -7 34 -22.5t15 -36.5q-2 -46 -2 -93v-32q0 -73 6 -146q7 -77 26 -152q9 -39 32 -72q6 -9 16 -16.5t22 -7.5
q19 0 37.5 16.5t30.5 31.5q61 78 121.5 183t101.5 194q5 12 17 16q5 2 10 2q7 0 13 -3q12 -6 16 -17q3 -6 3 -12t-3 -12l-24 -52q-40 -91 -84 -176t-111 -170q-24 -31 -55.5 -62t-69 -52.5t-78.5 -21.5q-58 0 -95.5 38t-60 90t-33.5 101q-15 67 -22 135q-12 -47 -34 -101.5
t-58.5 -105t-94 -83t-142.5 -32.5q-50 0 -92 23t-72 64q-38 53 -52 112q-14 55 -15 115z" />
    <glyph glyph-name="uniE012" unicode="cc" horiz-adv-x="1358" 
d="M679 383q-67 -99 -154 -174q-108 -94 -230 -99q-97 1 -156 44.5t-89 114.5t-40 153.5t-10 158.5q0 49 10.5 99.5t38.5 93.5q31 47 79.5 75t105.5 28q64 0 117 -42q51 -51 51 -117q0 -20 -5 -42q-4 -15 -17 -24q-10 -6 -22 -6h-6q-16 4 -25 17q-6 10 -6 22v6q2 13 2 25
q0 8 -1 16q-1 18 -9 33.5t-27 15.5q-11 0 -21 -4q-34 -17 -50 -60.5t-20 -78.5q-4 -28 -4 -57q0 -42 6 -104.5t23.5 -124t52 -103.5t91.5 -42q58 0 120.5 54.5t119 134t97.5 158.5l4 8q10 22 23 43q31 47 79.5 75t105.5 28q64 0 117 -42q51 -50 51 -117q0 -20 -5 -42
q-4 -15 -17 -24q-9 -6 -21 -6h-7q-16 4 -25 17q-6 10 -6 22v6q2 13 2 25q0 8 -1 16q-1 18 -9 33.5t-27 15.5q-11 0 -21 -4q-34 -17 -50 -60.5t-20 -78.5q-4 -28 -4 -57q0 -42 6 -104.5t23.5 -124t52 -103.5t91.5 -42q58 0 120.5 54.5t119 134t97.5 158.5t58 133q3 12 14 18
q8 4 15 4q4 0 8 -1q13 -4 19 -14q4 -7 4 -15q0 -4 -1 -9q-31 -110 -108.5 -239t-185 -222.5t-229.5 -98.5q-97 1 -156 44.5t-89 114.5t-40 154q-8 67 -10 129z" />
    <glyph glyph-name="uniE013" unicode="ss" horiz-adv-x="1418" 
d="M271 121q-13 -16 -25 -33q-24 -32 -53.5 -82t-29.5 -87q0 -15 5.5 -27t19.5 -20q22 -9 44 -9q37 0 57.5 19.5t28.5 50t8 61.5q0 32 -17.5 66t-37.5 61zM979 9l-25 -34q-24 -32 -53.5 -81.5t-29.5 -87.5q0 -15 5.5 -27t19.5 -20q22 -9 44 -9q38 0 58 20t28 50t8 61
q0 32 -17.5 66t-37.5 62zM718 578l-30 -25q-143 -126 -273 -268q-8 -8 -15 -16q44 -52 76 -111t32 -129q0 -123 -78.5 -191.5t-197.5 -68.5q-48 0 -88 29q-29 22 -43.5 53.5t-14.5 67.5q0 43 23.5 92t55 94.5t59.5 79.5l-34 43l-59 76q-34 45 -64 94.5t-48.5 104
t-18.5 112.5q0 64 26 125t76 100.5t121 39.5q67 0 122 -45q51 -51 51 -117q0 -20 -5 -42q-3 -15 -16 -24q-10 -6 -23 -6h-6q-16 4 -24 17q-7 9 -7 20q0 4 1 8q3 12 3 24q0 28 -16 52q-10 12 -24 12q-16 0 -29 -12q-29 -29 -43.5 -70.5t-14.5 -81.5q0 -37 11 -73
q22 -62 62 -114q39 -50 81 -97q2 -2 3 -4q128 129 270 248q15 12 29 25q47 41 129.5 104t153.5 63q67 0 122 -45q51 -50 51 -117q0 -20 -5 -42q-3 -15 -16 -24q-10 -6 -22 -6h-7q-16 4 -24 17q-7 9 -7 21q0 3 1 7q3 13 3 25q0 27 -16 51q-10 12 -24 12q-16 0 -29 -12
q-29 -29 -43.5 -70.5t-14.5 -81.5q0 -37 11 -73q22 -62 62 -114q39 -50 81 -97q2 -2 3 -4q128 129 270 248q15 12 29 25l96 80q2 1 4 3q27 22 56 40q8 4 15 4q4 0 8 -1q12 -3 19 -14q4 -8 4 -15q0 -4 -1 -8q-3 -12 -15 -19q-23 -15 -46 -34q-3 -2 -6 -5l-94 -78
q-143 -126 -273 -268q-8 -8 -15 -16q44 -52 76 -111t32 -129q0 -123 -78.5 -191.5t-197.5 -68.5q-48 0 -88 29q-29 22 -43.5 53.5t-14.5 67.5q0 43 23.5 92t55 94.5t59.5 79.5l-34 43l-59 76q-34 45 -64 94.5t-48.5 104t-18.5 112.5q0 39 10 76z" />
    <glyph glyph-name="uniE02E" unicode="ll" horiz-adv-x="1110" 
d="M197 852l35 36q47 48 96.5 113.5t84 139t34.5 141.5q0 29 -11 58q-10 18 -29 18q-13 0 -27 -5t-24 -13q-57 -51 -90.5 -136t-49 -179t-19.5 -173zM1033 1344q0 99 -12 156q-9 39 -28 39q-53 0 -109 -146q-89 -247 -99 -592q0 -73 1 -140q247 398 247 683zM789 538
q6 -154 18 -273q28 -227 57 -227q12 0 25 10.5t21 19.5q81 103 164 265t116 295q3 13 13 20q8 4 17 4h6q13 -3 20 -14q4 -8 4 -17v-6q-62 -287 -241 -542q-24 -35 -60 -77t-80 -73.5t-90 -31.5q-80 0 -136 176q-23 70 -37 219q-260 -327 -413 -327q-80 0 -136.5 175.5
t-56.5 457.5q1 436 102 652.5t262 216.5q43 0 82 -22q41 -26 59.5 -68t18.5 -89q0 -97 -53.5 -198t-129 -189t-148.5 -150q-1 -17 -1 -33q0 -70 5 -140q5 -95 15 -189q7 -69 19 -138q10 -59 27 -117q2 -8 11 -21.5t24 -13.5q92 1 305 295q-7 112 -11 257q11 511 101 741
q101 257 262 257q43 0 82 -22q41 -26 59.5 -93t18.5 -184q0 -327 -321 -806z" />
    <glyph glyph-name="uniE02F" unicode="mm" horiz-adv-x="2493" 
d="M1105 45q-19 -30 -44 -59.5t-57 -49.5t-70 -20q-23 0 -44 10q-39 24 -53.5 71.5t-16.5 90.5q-3 55 -3 109q0 45 2 90q4 81 4 122q0 52 -3 103q-1 20 -3.5 36t-8.5 16t-10.5 -4t-6.5 -8q-45 -77 -73 -160q-28 -77 -45 -157v-2q-4 -14 -14 -21.5t-24 -8.5l-9 1l-9 -1
q-16 0 -32 1h-3q-48 0 -84 32q-21 23 -21 54v5q2 45 2 91q0 54 -3 108q-4 59 -15 116q-1 6 -4 10.5t-9 4.5t-11 -6t-7 -11q-38 -96 -62 -197q-25 -102 -45 -206q-5 -30 -11 -61q-7 -40 -15 -79v-2q-3 -13 -13.5 -21t-24.5 -8q-46 0 -92 8q-23 4 -45 14.5t-24 36.5
q-8 167 -28 332q-10 91 -28 181q-7 32 -15 63q-9 32 -23 63q-4 9 -4 17q0 10 6 20q12 18 32 18q23 0 60.5 -3.5t69.5 -15.5t42 -37q23 -66 35 -135q15 -80 24 -161q5 -37 8 -74q8 35 17 69q15 60 33 119q20 64 48 124q19 44 53 84.5t86 43.5q22 0 43 -9q46 -21 70.5 -73
t35 -112t12.5 -106q0 -3 1 -7q20 47 50.5 100t71 91.5t88.5 38.5q29 0 55 -14q40 -25 58 -80.5t18 -161.5q0 -61 -4 -151q-5 -90 -5 -123q1 -51 6.5 -74.5t17.5 -23.5q39 0 101 217.5t91 356.5t29 147q0 10 6 20q12 18 32 18q23 0 60.5 -3.5t69.5 -15.5t42 -37
q23 -66 35 -135q15 -80 24 -161q5 -37 8 -74q8 35 17 69q15 60 33 119q20 64 48 124q19 44 53 84.5t86 43.5q22 0 43 -9q46 -21 70.5 -73t35 -112t12.5 -106q0 -3 1 -7q20 47 50.5 100t71 91.5t88.5 38.5q29 0 55 -14q40 -25 58 -80.5t18 -161.5q0 -61 -4 -151t-4 -123
q0 -51 5.5 -74.5t17.5 -23.5q35 0 288 510q5 12 15 18q7 3 15 3q4 0 9 -1q12 -5 18 -15q3 -7 3 -15q0 -4 -1 -9q-14 -43 -147.5 -299t-196.5 -314t-101 -58q-23 0 -44 10q-39 24 -53.5 71.5t-16.5 90.5q-3 55 -3 109q0 45 2 90q4 81 4 122q0 52 -3 103q-1 20 -3.5 36
t-8.5 16t-10.5 -4t-6.5 -8q-45 -77 -73 -160q-28 -77 -45 -157v-2q-4 -14 -14 -21.5t-24 -8.5l-9 1l-9 -1q-16 0 -32 1h-3q-48 0 -84 32q-21 23 -21 54v5q2 45 2 91q0 54 -3 108q-4 59 -15 116q-1 6 -4 10.5t-9 4.5t-11 -6t-7 -11q-38 -96 -62 -197q-25 -102 -45 -206
q-5 -30 -11 -61q-7 -40 -15 -79v-2q-3 -13 -13.5 -21t-24.5 -8q-46 0 -92 8q-23 4 -45 14.5t-24 36.5q-8 167 -28 332q-8 72 -28 177q-19 -104 -74 -316t-116 -309z" />
    <glyph glyph-name="uniE030" unicode="nn" horiz-adv-x="1851" 
d="M1878.5 336.5l54.5 125.5q6 12 18 16q4 1 9 1q6 0 14 -3q12 -6 16 -17q1 -5 1 -10q0 -7 -3 -14q-10 -21 -55.5 -128.5t-134 -297.5l-135.5 -293q-14 -31 -37 -71t-54 -71t-68 -31q-21 0 -40 8q-55 31 -71.5 103t-16.5 131q-2 37 -2 75q0 41 9 173q1 19 3 39
q11 138 13 276v25q0 37 -2 75q-1 3 -2 6.5t-3 5.5h-3q-5 0 -10 -4.5t-8 -8.5q-48 -85 -84 -177q-30 -72 -54 -147q-20 -61 -33 -124q0 -1 -1 -2q-3 -14 -13.5 -21.5t-23.5 -8.5q-50 0 -97 17q-20 7 -38 21t-20 37q-5 101 -18 201q-7 57 -19 114q-5 26 -13 51
q-33 -86 -64 -176q-81 -231 -159 -404q-14 -31 -37 -71t-54 -71t-68 -31q-21 0 -40 8q-55 31 -71.5 103t-16.5 131q-1 38 -1 75q0 51 2 101q5 98 12 196q1 19 3 39q11 138 13 276v25q0 38 -2 75q-1 3 -2 6.5t-3 5.5h-3q-5 0 -10 -4.5t-8 -8.5q-48 -85 -84 -177
q-30 -72 -54 -147q-20 -61 -33 -124q0 -1 -1 -2q-3 -14 -13.5 -21.5t-23.5 -8.5q-50 0 -97 17q-20 7 -38 21t-20 37q-5 101 -18 201q-7 57 -19 114q-7 33 -18 65q-7 25 -22 47q-7 10 -7 22q0 6 2 13q7 19 26 25q31 7 63 7q38 0 73 -17q11 -6 22 -15.5t17 -20.5
q22 -50 33 -104q13 -63 21 -126q2 -17 5 -35q14 41 31 81q46 119 114 227q15 24 37 50.5t49 45.5t57 19q19 0 36 -7q54 -30 68 -102.5t14 -129.5l1 -44q0 -67 -5 -133q-4 -89 -11 -177q0 -10 -1 -20t-1 -20q-12 -146 -13 -294q0 -42 3 -85q0 -7 3 -12q1 -2 2 -3l2 -2h1
q3 0 8 4.5t7 8.5q98 212 182 436q74 227 105 232q31 7 63 7q38 0 73 -17q11 -6 22 -15.5t17 -20.5q22 -50 33 -104q13 -63 21 -126q2 -17 5 -35q14 41 31 81q46 119 114 227q15 24 37 50.5t49 45.5t57 19q19 0 36 -7q54 -30 68 -102.5t14 -129.5v-45q0 -66 -4 -132
q-4 -89 -10 -169t-8 -113q-2 -52 -2 -105q0 -42 3 -85q0 -7 3 -12q1 -2 2 -3l2 -2h1q3 0 8 4.5t7 8.5q44 96 142.5 290t143 297.5z" />
    <glyph glyph-name="uniE031" unicode="oo" horiz-adv-x="1733" 
d="M514 469q3 31 3 62q0 19 -3 51.5t-12 65t-25.5 55t-43.5 22.5q-30 0 -47 -20.5t-24 -49t-7 -52.5q0 -29 9.5 -62t30.5 -56t57 -23q31 0 62 7zM1356 400q2 32 2 63q0 19 -3 51t-11.5 64.5t-25 55.5t-43.5 23q-31 0 -48 -20.5t-23.5 -49t-6.5 -53.5q0 -29 9 -62t30.5 -56
t56.5 -23q32 0 63 7zM865 551q-56 -42 -112 -75q-74 -44 -170 -70q-14 -100 -63.5 -199.5t-145.5 -141.5q-36 -13 -74 -13q-46 0 -89 17q-53 23 -92.5 65t-64.5 94q-54 117 -54 240q0 109 44 203t126.5 151.5t198.5 57.5h1q16 -4 24 -17q7 -10 7 -21q0 -4 -1 -8
q-3 -13 -13 -21.5t-24 -8.5q-58 0 -92 -36t-51 -90t-22.5 -111.5t-5.5 -98.5q0 -32 7 -83.5t24 -103.5t46 -88t72 -36q37 0 66 28t45 60q35 68 50 144q-37 -5 -75 -5q-61 0 -103 31.5t-63 81.5t-21 106q0 85 48.5 144t137.5 59q43 0 79 -25q36 -26 55 -69t26.5 -91.5
t7.5 -89.5q0 -21 -1 -43q85 26 135 50t126 81q53 40 99 84q44 41 60 52q82 57 198 57h1q16 -4 24 -17q6 -10 6 -22v-7q-3 -13 -13 -21.5t-24 -8.5q-58 0 -92 -36t-51 -90t-22.5 -111.5t-5.5 -98.5q0 -32 7 -83.5t24 -103.5t46 -88t72 -36q37 0 66 28t45 60q35 68 50 144
q-37 -5 -75 -5q-61 0 -103 31.5t-63 81.5t-21 106q0 85 48.5 144t137.5 59q43 0 79 -25q36 -26 55 -69t26.5 -91.5t7.5 -89.5q0 -21 -1 -43q85 26 135 50t126 81q68 51 124 109q10 9 22 9t22 -8q9 -10 9 -22t-8 -22q-56 -57 -122 -107q-74 -58 -148 -102t-170 -70
q-14 -100 -63.5 -199.5t-145.5 -141.5q-36 -13 -74 -13q-46 0 -89 17q-53 23 -92.5 65t-64.5 94q-54 117 -54 240q0 79 23 151z" />
    <glyph glyph-name=".notdef" horiz-adv-x="1639" 
d="M912 1404q-122 -32 -199 -117q-26 -29 -70 -95q-48 -74 -69 -100q-65 -80 -106 -113q-66 -53 -139 -53q-59 0 -100 30q-47 33 -55 93q-2 14 -2 29q0 53 25 98q36 62 100 74q16 3 30 3q21 0 39 -7q33 -15 34 -55q-9 10 -22 10q-11 0 -20 -8q-10 -10 -10 -21q0 -28 30 -28
h1q30 0 46 33q9 18 9 35t-8 35q-14 36 -46 53q-36 19 -87 19q-12 0 -25 -1q-107 -9 -173 -89v175h817zM95 894q63 -65 169 -65q15 0 31 2q87 7 205 125q32 32 90 96q52 58 72 76q53 50 108 50q30 0 60 -14q89 -41 179 -41q60 0 121 18q120 36 224 132q-13 -161 -119 -299
q-20 -26 -222 -235h-54q-40 0 -67 32l-86 -86h156q-190 -210 -223 -374q-9 -45 -9 -85q0 -65 23 -115q38 -80 134 -111h-193v687l36 19v33h-635v155zM327 685q76 0 107 -31q33 -32 33 -107v-547h-372v685h232zM523 687h36v-687h-36v687zM1163 0q203 46 336 164v-164h-336z
M1499 179q-128 -72 -242 -86q-23 -2 -45 -2q-80 0 -126 38q-44 37 -44 103q0 26 6 55q26 118 154 282q61 77 88 116h150v-47h59v-459zM1326 740q100 162 100 350q0 42 -6 86q-14 129 -17 129q7 49 96 77v-642h-173zM695 1026q-72 0 -121 -42q-42 -37 -51 -92q-3 -14 -3 -27
q0 -36 20 -62q26 -34 73 -34h17q58 7 75 60q5 15 5 27q0 36 -35 61q-29 21 -29 46q0 5 1 10q7 31 48 41v12z" />
    <glyph glyph-name=".null" 
 />
    <glyph glyph-name=".null" 
 />
    <glyph glyph-name="nonmarkingreturn" horiz-adv-x="508" 
 />
    <glyph glyph-name="space" unicode=" " horiz-adv-x="508" 
 />
    <glyph glyph-name="space" unicode="&#xa0;" horiz-adv-x="508" 
 />
    <glyph glyph-name="exclam" unicode="!" horiz-adv-x="367" 
d="M228 340q-2 -25 -14 -33.5t-30 -8.5q-29 0 -45.5 5t-43.5 19q-15 7 -27.5 19t-17.5 28l-1 90q-38 818 -39 1190q0 100 129 100q115 0 115 -110q-7 -588 -26 -1299zM165 192q56 0 74 -39t18 -93q-4 -112 -104 -112q-127 0 -132 92q0 98 38 124.5t106 27.5z" />
    <glyph glyph-name="quotedbl" unicode="&#x22;" horiz-adv-x="698" 
d="M473 1099q-41 0 -44 15q-83 424 -85 590q0 44 130 44q114 0 114 -49q-7 -256 -67 -582q-3 -17 -48 -18zM138 1099q-40 0 -43 15q-84 425 -85 590q0 44 129 44q115 0 115 -49q-7 -256 -68 -582q-2 -17 -48 -18z" />
    <glyph glyph-name="numbersign" unicode="#" horiz-adv-x="1226" 
d="M199 551l77 292q-87 0 -179 1q-58 1 -58 48q0 5 1 11q7 57 57 57q84 1 211 1l169 631q35 112 80 112q84 -5 84 -60q-1 -24 -169 -682h233l187 703q27 86 62 86q64 -4 64 -46q0 -18 -186 -742h155q79 0 79 -65q0 -60 -79 -60q-88 0 -187 1l-74 -286h182q79 0 79 -65
q0 -60 -79 -60q-100 1 -214 1l-111 -429q-23 -81 -86 -81q-47 3 -47 47q0 24 114 464q-108 1 -228 2l-87 -340q-30 -104 -112 -104q-60 3 -60 60q0 30 92 385q-74 0 -151 1q-58 1 -58 48q0 5 1 11q7 57 57 57q74 1 181 1zM442 841l-75 -289h229l76 288q-110 1 -230 1z" />
    <glyph glyph-name="dollar" unicode="$" horiz-adv-x="892" 
d="M375 1717v271q6 56 52 56q48 -10 48 -56v-278q55 -12 106 -41q99 -60 148 -159.5t53 -212.5v-2q0 -17 -11 -28q-11 -13 -29 -14q-18 0 -30.5 11.5t-13.5 29.5q-2 71 -27 139t-75 119q-30 30 -63.5 46t-75.5 16q-34 0 -73.5 -10.5t-67.5 -30.5q-54 -42 -76.5 -102
t-22.5 -126q0 -85 39 -160q28 -54 70 -100t88 -86l105 -87q263 -208 263 -490q0 -95 -37 -176.5t-119 -134.5q-52 -32 -111 -47q-34 -8 -68 -12v-304q0 -56 -56 -56q-28 0 -48 40l4 48v272q-71 9 -136 46q-99 60 -148 159.5t-53 212.5v2q0 17 11 28q11 13 29 14
q18 0 30.5 -11.5t13.5 -29.5q2 -71 27 -139t75 -119q30 -30 63.5 -46t75.5 -16q34 0 73.5 10.5t67.5 30.5q54 42 76.5 102t22.5 126q0 85 -39 160q-28 54 -70 100t-88 86l-105 87q-263 219 -263 490q0 95 37 176.5t119 134.5q52 32 112 47q48 12 97 14z" />
    <glyph glyph-name="percent" unicode="%" horiz-adv-x="1143" 
d="M936 1705q0 -28 -699 -1709q-32 -77 -95 -77q-47 3 -47 47q0 48 707 1703q35 82 70 82q64 -4 64 -46zM278 1699q232 -6 232 -392q0 -145 -58.5 -276.5t-209.5 -131.5q-111 0 -171.5 97.5t-60.5 254.5q0 184 64 316t204 132zM275 1595q-112 -3 -112 -276q0 -318 95 -320
q68 0 109 101.5t43 206.5q0 176 -40.5 232t-94.5 56zM801 754q232 -6 232 -392q0 -145 -58.5 -276.5t-209.5 -131.5q-111 0 -171.5 97.5t-60.5 254.5q0 184 64 316t204 132zM798 650q-112 -3 -112 -276q0 -318 95 -320q68 0 109 101.5t43 206.5q0 176 -40.5 232t-94.5 56z
" />
    <glyph glyph-name="ampersand" unicode="&#x26;" horiz-adv-x="1677" 
d="M562 1717q145 -3 232 -92q107 -96 111 -283q-2 -220 -303 -466l57 -70q124 -149 337 -339q78 183 138 436q11 50 62 50q49 0 49 -37q0 -7 -2 -15q-66 -300 -159 -510q196 -168 457 -365q26 -21 26 -43q0 -59 -135 -59q-60 0 -95 23q-186 142 -341 275
q-201 -324 -501 -324q-238 0 -359.5 96t-125.5 284q2 268 390 561q-225 287 -225 505q0 95 37 176.5t119 134.5q52 32 111.5 47t119.5 15zM457 764q-330 -258 -333 -484q2 -153 88 -215.5t266 -62.5q254 0 432 294q-285 253 -453 468zM543 956q246 219 248 383
q-2 137 -76 208q-69 65 -153 70q-85 0 -132.5 -63.5t-47.5 -209.5q0 -159 161 -388z" />
    <glyph glyph-name="quotesingle" unicode="'" horiz-adv-x="364" 
d="M139 1099q-41 0 -44 15q-83 424 -85 590q0 44 130 44q114 0 114 -49q-7 -256 -67 -582q-3 -17 -48 -18z" />
    <glyph glyph-name="parenleft" unicode="(" horiz-adv-x="556" 
d="M212 528q9 -533 85 -750q73 -211 136 -283q13 -13 13 -38q0 -12 -7.5 -19.5t-21.5 -7.5q-10 0 -21 7q-118 82 -245 334q-140 280 -141 757q1 477 141 757q127 252 245 334q11 7 21 7q14 0 21.5 -7.5t7.5 -19.5q0 -25 -13 -38q-63 -72 -136 -283q-76 -217 -85 -750z" />
    <glyph glyph-name="parenright" unicode=")" horiz-adv-x="556" 
d="M244 528q-9 533 -85 750q-73 211 -136 283q-13 13 -13 38q0 12 7.5 19.5t21.5 7.5q10 0 21 -7q118 -82 245 -334q140 -280 141 -757q-1 -477 -141 -757q-127 -252 -245 -334q-11 -7 -21 -7q-14 0 -21.5 7.5t-7.5 19.5q0 25 13 38q63 72 136 283q76 217 85 750z" />
    <glyph glyph-name="asterisk" unicode="*" horiz-adv-x="812" 
d="M338 1752q48 -8 48 -60q20 -68 20 -188h4q69 48 176 80q41 20 68 20q38 0 48 -52q0 -36 -72 -60l-188 -124l-4 -8q66 -90 144 -184q8 -16 8 -28q-10 -48 -56 -48q-26 0 -100 72q-28 40 -76 96q-28 28 -28 36h-4q-4 0 -124 -92q-81 -45 -120 -76l-24 -4q-38 0 -48 52
q3 38 96 104l48 52q35 35 48 64q-176 88 -176 132v4q0 38 52 48l196 -68q12 62 12 148v28q6 56 52 56z" />
    <glyph glyph-name="plus" unicode="+" horiz-adv-x="1147" 
d="M584 821q166 1 374 1q79 0 79 -65q0 -60 -79 -60q-169 1 -375 2l-3 -395q-1 -58 -48 -58q-5 0 -11 1q-57 7 -57 57q-1 138 -2 396q-184 1 -394 3q-58 1 -58 48q0 5 1 11q7 57 57 57q138 1 394 2q-1 166 -1 373q0 79 65 79q60 0 60 -79q-1 -168 -2 -373z" />
    <glyph glyph-name="comma" unicode="," horiz-adv-x="603" 
d="M55 -547q-45 0 -45 33q0 5 1 10q6 43 53 43q97 0 182 136q64 103 64 228q0 40 -10.5 67t-20.5 41q-22 33 -22 89q6 92 132 92q100 0 104 -112q0 -258 -135.5 -442.5t-302.5 -184.5z" />
    <glyph glyph-name="hyphen" unicode="-" horiz-adv-x="720" 
d="M531 502q79 0 79 -65q0 -60 -79 -60l-463 6q-58 1 -58 48q0 5 1 11q7 57 57 57q250 2 463 3z" />
    <glyph glyph-name="hyphen" unicode="&#xad;" horiz-adv-x="720" 
d="M531 502q79 0 79 -65q0 -60 -79 -60l-463 6q-58 1 -58 48q0 5 1 11q7 57 57 57q250 2 463 3z" />
    <glyph glyph-name="period" unicode="." horiz-adv-x="356" 
d="M154 192q57 0 74.5 -39t17.5 -93q-4 -112 -104 -112q-126 0 -132 92q0 98 38 124.5t106 27.5z" />
    <glyph glyph-name="slash" unicode="/" horiz-adv-x="688" 
d="M578 1705q0 -28 -435 -1705q-23 -81 -86 -81q-47 3 -47 47q0 48 442 1699q27 86 62 86q64 -4 64 -46z" />
    <glyph glyph-name="zero" unicode="0" horiz-adv-x="1184" 
d="M586 1622q-142 0 -254 -173t-112 -619t106.5 -619t259.5 -173q150 0 263 198.5t113 593.5q0 408 -101 600t-275 192zM567 -54q-233 0 -394.5 221t-162.5 663q1 442 162.5 663t394.5 221t369.5 -221t137.5 -663q-1 -442 -153 -663t-354 -221z" />
    <glyph glyph-name="one" unicode="1" horiz-adv-x="824" 
d="M96 1372l-29 -49q-7 -11 -19 -14q-4 -1 -8 -1q-8 0 -16 4q-11 7 -14 19v6q0 8 4 17l30 50q174 318 367 318q18 0 35 -4q57 -17 94.5 -68.5t60 -115.5t34.5 -116q28 -124 43 -251q16 -141 24 -282q12 -443 12 -875q-2 -25 -14 -33.5t-30 -8.5q-29 0 -60.5 5t-58.5 19
q-15 7 -27.5 19t-17.5 28l-1 90q1 227 1 322q0 222 -12 444q-7 127 -21 253q-12 113 -36 225q-14 67 -38 132q-12 35 -31 68q-13 22 -39 22q-105 0 -233 -223z" />
    <glyph glyph-name="two" unicode="2" horiz-adv-x="1029" 
d="M578 1344q0 66 -22.5 126t-76.5 102q-28 20 -67.5 30.5t-73.5 10.5q-42 0 -75.5 -16t-63.5 -46q-50 -51 -75 -119t-27 -139q-1 -18 -13.5 -29.5t-30.5 -11.5q-18 1 -29 14q-11 11 -11 27v3q4 113 53 212.5t148 159.5q87 49 184 49q60 0 119.5 -15t111.5 -47
q82 -53 119 -134.5t37 -176.5q0 -287 -184.5 -594.5t-393.5 -575.5q12 -7 24 -13q75 -42 153 -78q47 -23 99 -40.5t104 -17.5q56 0 104.5 46t88 113t68.5 133q4 10 8 19q10 21 27 21q6 0 14 -3q22 -9 22 -26q0 -5 -2 -10q-23 -62 -43 -108q-33 -75 -78.5 -138.5t-109 -103
t-153.5 -39.5q-159 0 -313 54q-140 49 -195 73q-15 4 -15 18q0 5 1 12q129 162 348 560.5t219 697.5z" />
    <glyph glyph-name="three" unicode="3" horiz-adv-x="1070" 
d="M271 -238q193 0 337.5 157t144.5 382q0 98 -48 186q-89 142 -190 170t-183 28q-26 0 -39 26q-3 9 -3 17q0 16 12 29q273 279 273 587q0 66 -22.5 126t-76.5 102q-28 20 -67.5 30.5t-73.5 10.5q-42 0 -75.5 -16t-63.5 -46q-50 -51 -75 -119t-27 -139q-1 -18 -13.5 -29.5
t-30.5 -11.5q-18 1 -29 14q-11 11 -11 27v3q4 113 53 212.5t148 159.5q87 49 184 49q60 0 119.5 -15t111.5 -47q82 -53 119 -134.5t37 -176.5q0 -331 -313 -572q318 -54 433 -243q58 -108 58 -228q0 -251 -205.5 -438t-492.5 -187q-45 0 -45 33q0 5 1 10q6 43 53 43z" />
    <glyph glyph-name="four" unicode="4" horiz-adv-x="1182" 
d="M572 1722q18 0 35 -4q57 -17 94.5 -68.5t60 -115.5t34.5 -116q28 -124 43 -251q16 -141 24 -282q4 -163 7 -325h160q42 -2 42 -42q0 -48 -42 -48h-158q3 -236 3 -460q-2 -25 -14 -33.5t-30 -8.5q-29 0 -60.5 5t-58.5 19q-15 7 -27.5 19t-17.5 28l-1 90q1 237 1 332v9
h-565q-22 -8 -44 -8q-48 1 -48 48q0 14 4 30q130 460 274 816q149 366 284 366zM666 560q-2 167 -11 335q-7 127 -21 253q-12 113 -36 225q-14 67 -38 132q-7 20 -16 39q-59 -13 -180.5 -315.5t-233.5 -668.5h536z" />
    <glyph glyph-name="five" unicode="5" horiz-adv-x="946" 
d="M309 1688h471q56 -6 56 -52q-10 -48 -56 -48h-362q-45 -319 -156 -816q318 -54 433 -243q58 -108 58 -228q0 -251 -205.5 -438t-492.5 -187q-45 0 -45 33q0 5 1 10q6 43 53 43q193 0 337.5 157t144.5 382q0 98 -48 186q-89 142 -190 170t-183 28q-26 0 -39 26q-3 9 -3 17
q0 16 12 29q80 475 136 840q11 87 78 91z" />
    <glyph glyph-name="six" unicode="6" horiz-adv-x="1070" 
d="M824.5 824.5q135.5 -147.5 135.5 -380.5q0 -213 -128.5 -355.5t-304.5 -142.5q-242 0 -379 221t-138 663q1 442 162.5 663t394.5 221q82 0 152 -27q33 -12 33 -54q0 -28 -31 -28q-22 0 -39 5q-44 12 -96 12q-142 0 -254 -173q-106 -184 -117 -637q122 160 307 160
q167 0 302.5 -147.5zM546 38q132 0 208 120t76 286q0 200 -96.5 314t-203.5 114q-212 0 -306 -204q15 -272 86 -436q83 -194 236 -194z" />
    <glyph glyph-name="seven" unicode="7" horiz-adv-x="1082" 
d="M840 1628q40 0 79 9q6 1 11 1q21 0 34 -18q8 -11 8 -23t-8 -24q-103 -157 -373 -952l-203 -594q-23 -66 -116 -66q-8 0 -17 1q-90 5 -90 47q0 8 3 18q482 1401 555 1518q-261 80 -387 80q-42 0 -72 -18t-49 -45.5t-29 -56.5q-16 -48 -21 -98l-2 -43q-1 -29 -1 -58
q0 -88 9 -176v-5q0 -15 -11 -27q-13 -14 -31 -14q-50 0 -87 37q-25 28 -29 65q-3 44 -3 89q0 66 7 132q8 59 29.5 113.5t60.5 97.5t98 68t142 25q111 0 262 -41.5t231 -41.5z" />
    <glyph glyph-name="eight" unicode="8" horiz-adv-x="952" 
d="M588 759q224 -269 224 -492q0 -95 -37 -176.5t-119 -134.5q-52 -32 -111.5 -47t-119.5 -15q-168 0 -289.5 116.5t-125.5 303.5q2 250 245 544q-215 268 -215 486q0 95 37 176.5t119 134.5q52 32 111.5 47t119.5 15q196 0 303.5 -116t111.5 -303q-2 -247 -254 -539z
M321 780q-194 -230 -197 -464q2 -137 90 -227.5t151 -90.5q34 0 73.5 10.5t67.5 30.5q54 42 76.5 102t22.5 126q0 196 -282 512q-1 0 -2 1zM528 828q197 232 200 467q-2 137 -76 227.5t-165 90.5q-34 0 -73.5 -10.5t-67.5 -30.5q-54 -42 -76.5 -102t-22.5 -126
q0 -208 281 -516z" />
    <glyph glyph-name="nine" unicode="9" horiz-adv-x="1070" 
d="M498 688q-217 0 -352.5 147.5t-135.5 380.5q0 213 128.5 355.5t304.5 142.5q242 0 379 -221t138 -663q-1 -442 -162.5 -663t-394.5 -221q-82 0 -152 27q-33 12 -33 54q0 28 31 28q22 0 39 -5q44 -12 96 -12q142 0 254 173q111 194 112 556q-133 -79 -252 -79zM424 1622
q-132 0 -208 -120t-76 -286q0 -200 96.5 -314t253.5 -114q151 0 260 101q-6 345 -89.5 539t-236.5 194z" />
    <glyph glyph-name="colon" unicode=":" horiz-adv-x="357" 
d="M155 192q57 0 74.5 -39t17.5 -93q-4 -112 -104 -112q-126 0 -132 92q0 98 38 124.5t106 27.5zM154 903q57 0 74.5 -39t17.5 -93q-3 -112 -104 -112q-126 0 -132 92q0 98 38 125t106 27z" />
    <glyph glyph-name="semicolon" unicode=";" horiz-adv-x="603" 
d="M55 -547q-45 0 -45 33q0 5 1 10q6 43 53 43q97 0 182 136q64 103 64 228q0 40 -10.5 67t-20.5 41q-22 33 -22 89q6 92 132 92q100 0 104 -112q0 -258 -135.5 -442.5t-302.5 -184.5zM401 903q57 0 74.5 -39t17.5 -93q-3 -112 -104 -112q-126 0 -132 92q0 98 38 125t106 27
z" />
    <glyph glyph-name="semicolon" unicode="&#x37e;" horiz-adv-x="603" 
d="M55 -547q-45 0 -45 33q0 5 1 10q6 43 53 43q97 0 182 136q64 103 64 228q0 40 -10.5 67t-20.5 41q-22 33 -22 89q6 92 132 92q100 0 104 -112q0 -258 -135.5 -442.5t-302.5 -184.5zM401 903q57 0 74.5 -39t17.5 -93q-3 -112 -104 -112q-126 0 -132 92q0 98 38 125t106 27
z" />
    <glyph glyph-name="less" unicode="&#x3c;" horiz-adv-x="1044" 
d="M811 1139q28 16 50 16q25 0 49 -24t24 -67q0 -62 -60 -98l-642 -365l642 -365q47 -28 47 -61q0 -15 -9 -31q-19 -33 -50 -33q-22 0 -51 17l-794 469q-7 20 -7 37q0 35 31 57z" />
    <glyph glyph-name="equal" unicode="=" horiz-adv-x="1148" 
d="M958 767q79 0 79 -65q0 -60 -79 -60q-361 2 -890 6q-58 1 -58 48q0 5 1 11q7 57 57 57q250 2 890 3zM959 463q79 0 79 -65q0 -60 -79 -60q-361 2 -890 6q-58 1 -58 48q0 5 1 11q7 57 57 57q250 2 890 3z" />
    <glyph glyph-name="greater" unicode="&#x3e;" horiz-adv-x="1044" 
d="M133 127q-28 -16 -50 -16q-25 0 -49 24t-24 67q0 62 60 98l642 365l-642 365q-47 28 -47 61q0 15 9 31q19 33 50 33q22 0 51 -17l794 -469q7 -20 7 -37q0 -35 -31 -57z" />
    <glyph glyph-name="question" unicode="?" horiz-adv-x="1087" 
d="M457 192q57 0 74.5 -39t17.5 -93q-3 -112 -104 -112q-126 0 -132 92q0 98 38 125t106 27zM769 1250q0 191 -88.5 291.5t-250.5 101.5q-121 -4 -218 -76q-62 -50 -90 -118t-28 -145q0 -54 13 -132.5t51 -122.5q12 -13 12 -28v-2q0 -17 -12 -30q-14 -12 -30 -12
q-17 0 -30 13q-52 58 -70 149t-18 165q0 97 36.5 182t113.5 147q62 49 137.5 72t153.5 23q267 0 396.5 -143.5t129.5 -334.5q0 -235 -255 -480q-210 -202 -211 -364q0 -28 6 -56q3 -11 3 -20q-1 -15 -13.5 -23.5t-30.5 -8.5q-29 0 -45.5 5t-43.5 19q-15 7 -27.5 19t-17.5 28
q3 185 215 425t212 456z" />
    <glyph glyph-name="at" unicode="@" horiz-adv-x="2170" 
d="M990 686q0 51 2 103l-34 14q-15 8 -30 12.5t-41 4.5q-57 0 -109.5 -34.5t-85.5 -81.5q-27 -40 -44 -95.5t-17 -102.5q0 -45 8 -85t28 -80q22 -47 73 -52q64 3 110.5 65t77.5 144t49 145q8 25 13 43zM1046 -325q-424 0 -729 251t-307 633q2 442 252 663t610 221
q361 0 573 -221q175 -184 192 -521q-2 -289 -122.5 -424.5t-234.5 -135.5q-108 0 -168.5 62.5t-90.5 166.5q-15 67 -22 135q-12 -47 -34 -101.5t-58.5 -105t-94 -83t-142.5 -32.5q-50 0 -92 23t-72 64q-38 53 -52.5 112t-14.5 124t24.5 137.5t66.5 125.5q56 69 132 103
t164 34q57 0 97.5 -11.5t88.5 -31.5q9 -3 17 -6q25 7 49 7q29 0 58 -10q19 -7 34 -22.5t15 -36.5q-2 -46 -2 -94v-31q0 -73 6 -146q7 -147 40 -212.5t106 -65.5q77 0 150.5 107.5t74.5 340.5q-15 306 -177 465q-196 192 -534 192q-276 0 -494 -173t-218 -619
q0 -348 262 -570t643 -222q648 1 942 702q8 17 38 17q38 0 38 -23q0 -4 -2 -10q-292 -778 -1012 -778z" />
    <glyph glyph-name="A" unicode="A" horiz-adv-x="1932" 
d="M1199 585l2 64l4 133q6 160 6 320q0 66 -8.5 135.5t-30.5 132.5q-10 31 -27 62q-26 41 -60 41q-29 0 -53 -42q-26 -52 -41 -112.5t-21 -105.5q-21 -131 -30 -263q-6 -76 -11 -151q-5 -73 -11 -145l-2 -24q68 -5 136 -15q74 -11 147 -30zM794 551h-1q-140 -1 -276 -29
q-74 -16 -142.5 -44t-123.5 -71.5t-87.5 -105.5t-32.5 -146q0 -140 83 -234t226 -106q2 -1 4 -1q74 4 136 44q74 52 117 137t64 171q31 116 46 235q10 75 17 149q-15 1 -30 1zM2011 686q3 13 13 20q8 5 16 5q4 0 8 -1q12 -3 19 -13q5 -8 5 -17v-6q-27 -121 -221 -537.5
t-391 -416.5q-39 0 -75 15q-81 39 -123 129.5t-56 197t-14 184.5q0 126 4 253q-77 21 -157 32q-65 10 -131 15q-7 -78 -18 -156q-15 -125 -47 -246q-26 -102 -77 -199t-140 -158q-94 -58 -203 -58q-124 0 -219 55t-149.5 151.5t-54.5 219.5q0 64 18 123.5t55 111.5
q69 93 176.5 145t228 74.5t230.5 25.5q31 1 62 1t61 -1q2 13 3 25q5 73 11 146q5 75 11 151q10 135 30 270q9 60 28 131t54 131.5t93 91.5q41 19 86 19q41 0 80 -16q79 -38 120.5 -122t56 -183.5t14.5 -176.5q0 -161 -5 -323q-2 -66 -5 -132q-8 -201 -8 -401q0 -71 8 -144.5
t30 -140.5q18 -57 42.5 -89t58.5 -32q93 0 270 365.5t202 480.5z" />
    <glyph glyph-name="B" unicode="B" horiz-adv-x="1867" 
d="M794 366q48 22 97 41q125 50 254 91q-62 55 -140 80.5t-160 25.5q-26 0 -39 26q-3 9 -3 17q0 16 12 29q177 174 336 364q40 48 98.5 126t105.5 162t47 144q0 15 -8 26q-15 21 -39 29q-31 10 -63 10q-62 0 -191.5 -20.5l-222.5 -35.5q-165 -28 -268 -43q10 -29 19 -58
q37 -124 64 -250q47 -226 73 -456q18 -150 28 -302l1 -3zM277 1503q49 0 94 6q-27 67 -89 163t-110 96q-30 0 -59 -39t-29 -99q0 -37 24 -65q29 -33 77 -47.5t92 -14.5zM1205 428q-207 -62 -403 -151l-70 -35q-118 -59 -208 -154q-33 -35 -55 -78t-22 -91
q0 -101 80.5 -169.5t256.5 -68.5q193 0 337.5 157t144.5 382q0 98 -48 186q-6 11 -13 22zM1972 711h3q11 0 19 -6q10 -7 13 -20v-3q0 -11 -6 -20q-7 -10 -20 -12q-136 -21 -588 -167l22 -35q58 -108 58 -228q0 -251 -205.5 -438t-492.5 -187q-220 0 -325 89.5t-111 232.5
q0 81 42.5 148t106 119.5t128.5 89.5q49 29 100 55q-38 2 -73 15q-21 8 -38.5 23t-19.5 38q-12 150 -30 299q-25 206 -68 408q-32 155 -82 305q-39 -2 -78 -2q-60 0 -120 11q-56 10 -102.5 34.5t-75.5 66t-29 103.5q0 75 36.5 140.5t107.5 96.5q38 15 78 15q31 0 61 -8
q94 -28 158 -106.5t103 -164.5q16 -33 30 -67q52 9 105 17q156 27 249 41q100 16 202 28.5t203 12.5q42 0 91.5 -6.5t93.5 -26t70 -56.5q21 -34 21 -74q0 -75 -48 -166.5t-110.5 -176.5t-111.5 -143q-132 -158 -277 -305q155 -22 270 -127q456 129 640 157z" />
    <glyph glyph-name="C" unicode="C" horiz-adv-x="1322" 
d="M418 1449q-82 -81 -124 -200.5t-58 -231.5q-18 -113 -23.5 -227t-5.5 -228q0 -128 21 -282.5t78 -293t161 -228.5q46 -37 100.5 -55t112.5 -18q102 0 191 60q156 105 261.5 256.5t170 328.5t98.5 356q3 13 13 20q7 5 15 5q4 0 8 -1q13 -3 20 -13q5 -7 5 -15q0 -4 -1 -8
q-33 -174 -100 -363.5t-174 -356.5t-260 -273q-69 -47 -146 -75t-158 -28q-84 0 -162.5 23.5t-146.5 73.5q-126 96 -194.5 247.5t-94 322t-25.5 317.5q0 117 5.5 233.5t23.5 232.5q16 102 48 205.5t87.5 190t141 140t207.5 53.5q112 0 206 -65q90 -65 134.5 -166t44.5 -211
q0 -157 -100 -277q-12 -13 -29 -14q-18 0 -31 11t-14 28q0 18 10 31q80 95 80 224q0 144 -94 254q-62 72 -149 72q-42 0 -81.5 -13t-71.5 -42z" />
    <glyph glyph-name="D" unicode="D" horiz-adv-x="2013" 
d="M1622 625q103 23 233 44.5l242 38.5q18 3 24 3q10 0 19 -6q13 -9 13 -23q0 -11 -6 -20q-7 -10 -20 -12q-224 -37 -394 -84q-65 -17 -137 -34q-28 -91 -63 -179q-143 -325 -347 -542t-464 -217q-191 0 -279.5 87.5t-93.5 235.5q0 81 42.5 148t106 119.5t128.5 89.5
q49 29 100 55q-44 4 -81 27q-20 12 -35 31t-17 42q-12 149 -31 296q-25 195 -65 387q-32 155 -82 306h-22q-69 0 -139 6q-93 7 -173.5 59.5t-80.5 154.5q0 66 34 125q31 53 80.5 86t109.5 33q31 0 61 -8q94 -28 158 -106.5t103 -164.5q16 -33 30 -68l64 10q128 21 255 38
q146 25 292 25q241 -1 370 -133q73 -78 102.5 -180t29.5 -206q0 -87 -11 -174.5t-29 -172.5q-12 -59 -27 -117zM796 363q52 23 105 44q156 62 317 110q96 30 193 55l16 58q62 228 62 459q0 87 -24 174.5t-84 153.5q-89 88 -227 88q-191 0 -321 -26.5t-221 -40.5
q10 -29 19 -58q38 -124 64 -250q47 -226 73 -456q19 -150 29 -302q0 -5 -1 -9zM380 1510q-26 64 -83 160t-128 96q-29 0 -56.5 -36t-27.5 -95q3 -50 33 -78q41 -37 109 -44q45 -4 88 -4q21 0 42 1h23zM1380 477l-138 -40q-92 -28 -217.5 -78t-247 -118t-201.5 -150t-81 -172
q2 -114 56 -175t165 -61q198 0 377.5 245t286.5 549z" />
    <glyph glyph-name="E" unicode="E" horiz-adv-x="1278" 
d="M518 923q-97 58 -169 145q-41 49 -65 107.5t-24 122.5q0 104 45.5 191t132.5 146q129 82 273 82q93 0 174 -34t131.5 -102t50.5 -169q0 -74 -27 -147q-8 -17 -23 -23q-8 -3 -16 -3t-17 3q-16 8 -22 24q-3 8 -3 16t3 16q21 57 21 114q0 109 -91 172q-30 20 -66 28.5
t-71 8.5q-51 0 -106 -15.5t-95 -48.5q-103 -94 -103 -225q0 -53 19.5 -102.5t52.5 -92.5q47 -60 110 -106.5t132 -79.5q24 -12 24 -40v-2q-4 -28 -30 -36q-124 -35 -237 -99t-195 -165q-120 -155 -120 -345q0 -108 46 -204t129.5 -155t198.5 -61q161 3 292.5 81.5t230 204.5
t162.5 272.5t91 283.5q3 13 13 20q7 5 15 5q4 0 8 -1q13 -3 20 -13q5 -7 5 -15q0 -4 -1 -8q-22 -115 -72.5 -246t-126 -258t-173.5 -231.5t-217.5 -167.5t-256.5 -63q-107 0 -212.5 27.5t-190.5 97.5q-63 54 -100 123.5t-52.5 148t-15.5 159.5q0 219 138 398q74 92 172 156
t208 105z" />
    <glyph glyph-name="F" unicode="F" horiz-adv-x="1127" 
d="M722 417l2 -72q3 -72 5 -143q3 -109 3 -218v-54q0 -95 -15 -190q-5 -33 -20 -66q-22 -48 -69 -48q-52 2 -92 37q-32 27 -55 63q-56 92 -88 195q-46 137 -79 277l-71 314l-12 56q-43 212 -99 422q-25 95 -60 186q-24 66 -63 122q-9 13 -9 26q0 9 3 17q72 172 240 252
q86 39 181 51t190 12h133q72 0 143 4q53 3 108 16t100 42q51 35 78 90q13 23 39 23q50 -2 96 -24q16 -8 34.5 -25.5t18.5 -34.5q0 -12 -6 -23q-56 -90 -148.5 -129.5t-207 -48.5t-238.5 -9q-143 0 -259 -10q-127 -11 -231.5 -60t-169.5 -160q27 -48 46 -100q37 -96 64 -195
q56 -212 100 -427l12 -55q33 -156 70 -312q32 -137 77 -270q20 -60 47 -119q1 11 1 22q4 77 4 154v31q-2 156 -8 312l-2 53q-61 2 -121 21q-17 6 -25 21q-4 9 -4 18q0 7 2 14q6 17 21 24q9 5 19 5q6 0 13 -2q46 -14 93 -17q0 12 -1 24q-4 101 -4 203q0 126 6 253
q4 96 19 190q11 75 41 145q25 55 79 80q39 16 78 16q33 0 67 -12q27 -9 29 -40q0 -24 -21 -37q-25 -17 -39.5 -58.5t-20.5 -70.5q-14 -67 -19 -136q-11 -125 -11 -250v-47q0 -116 4 -234v-8q109 23 257.5 76.5t239.5 127.5q9 8 20 8h2q12 -1 21 -10q8 -10 7.5 -22.5
t-10.5 -21.5q-91 -74 -261 -147.5t-274 -96.5z" />
    <glyph glyph-name="G" unicode="G" horiz-adv-x="1373" 
d="M373 496q28 0 55 11q94 39 163 127.5t117.5 193.5t80.5 197q10 28 49 28q36 0 86 -6q57 -8 77 -44q52 -130 77 -268q17 -84 26 -169q122 50 271 97l97 33q5 1 9 1q8 0 15 -3q11 -5 15 -18q2 -5 2 -10q0 -7 -3 -13q-6 -11 -18 -16q-167 -59 -297 -122l-83 -39q2 -45 2 -91
q0 -104 -15 -220.5t-58.5 -221t-126.5 -178.5q-63 -53 -139 -76.5t-157 -23.5q-64 0 -120 28t-90.5 78t-34.5 117q0 100 52.5 187.5t134.5 161.5t173 132.5t171 99.5q-7 137 -36 271q-15 74 -39 152q-54 -140 -143 -272t-225 -194q-75 -30 -154 -30q-58 0 -113 21
q-79 34 -121.5 101t-57.5 149.5t-15 158.5q0 115 20 230.5t65 222.5q40 95 102 177.5t148 140.5q144 91 313 91q74 0 144.5 -33t116 -92.5t45.5 -140.5q0 -25 -5 -52t-17 -49q-9 -16 -25 -21q-6 -2 -12 -2q-10 0 -20 5q-16 9 -21 25q-1 5 -1 11q0 10 5 21q6 14 9 31t3 31
q0 57 -34.5 97.5t-86 62t-101.5 21.5q-69 0 -131 -31q-111 -62 -179.5 -193.5t-99.5 -284.5t-31 -268q0 -61 11.5 -132t46.5 -132.5t108 -65.5zM907 375q-67 -37 -144 -87.5t-146.5 -113t-114.5 -135t-45 -151.5q0 -43 23.5 -74t60.5 -47.5t77 -16.5q66 0 120 38
q48 37 76.5 94t44.5 114q48 178 48 379z" />
    <glyph glyph-name="H" unicode="H" horiz-adv-x="1819" 
d="M1257 771l4 -79q8 -157 28 -313q17 -125 49 -246q23 -87 60.5 -152.5t66.5 -65.5q45 0 92 45t90.5 114.5t80.5 145.5t63.5 140.5t38.5 100.5q40 116 69 235q3 13 13 19q8 5 16 5q4 0 8 -1q12 -3 19 -14q4 -7 4 -15q0 -4 -1 -8q-29 -122 -70 -241q-27 -81 -74.5 -192
t-110.5 -215.5t-134 -164.5q-41 -32 -85.5 -50.5t-93.5 -18.5q-25 0 -50 7q-68 24 -110.5 85t-65.5 126q-60 170 -81 350q-18 133 -26 268q-153 -74 -321 -103q4 -57 7 -114l18 -374l4 -81q0 -19 -12 -31q-12 -13 -30 -13q-54 0 -107 17q-22 8 -40 22.5t-20 39.5l-2 36
q-9 189 -19 379q-2 48 -5 96q-50 -2 -100 -2q-17 0 -29.5 12.5t-12.5 29.5q0 18 12.5 30t29.5 12q48 0 95 3q-8 142 -18 284q-6 97 -15 193q-7 74 -17 147q-21 155 -66 306q-24 81 -66 155q-16 29 -46 52.5t-63 23.5q-17 0 -30.5 -8.5t-23.5 -21.5q-55 -73 -75 -178
t-20 -191q0 -105 32 -210q24 -81 82 -141q13 -12 14 -29v-3q0 -15 -11 -27q-12 -13 -29 -14h-3q-15 0 -27 11q-52 48 -83.5 118.5t-45.5 148.5t-14 146q0 81 16 178t57.5 181t117.5 130q58 33 124 33q78 0 135.5 -48t97.5 -124.5t66.5 -164t42.5 -169.5t24 -142
q11 -75 17 -151q10 -97 16 -195q10 -133 18 -267q169 30 320 110q-4 88 -4 175q0 159 11 318q11 142 39 282q11 58 34.5 129t63.5 128.5t103 77.5q20 5 40 5q37 0 64.5 -23t47 -55t31.5 -63q27 -69 38.5 -145t11.5 -149q0 -165 -58 -319t-173 -275q-21 -22 -44 -43z
M1255 889q96 108 144 242t48 277q0 111 -30 224q-5 20 -14 33.5t-20 13.5q-16 0 -36 -47t-32 -97q-25 -103 -37 -209q-23 -211 -23 -437z" />
    <glyph glyph-name="I" unicode="I" horiz-adv-x="1210" 
d="M665 699v109q0 226 -22 452q-8 89 -19 178q-5 38 -11 76q-172 -30 -311 -134q-88 -70 -130 -163.5t-42 -205.5q0 -94 20.5 -186.5t54.5 -179.5q3 -8 3 -16q0 -12 -8 -23q-13 -19 -34 -19q-28 0 -57 14.5t-40 42.5q-32 89 -50.5 181t-18.5 186q0 164 65.5 279t175.5 186.5
t247.5 104t280.5 32.5q16 0 27.5 -9.5t14.5 -24.5q10 -57 17 -115q12 -90 21 -180q24 -238 24 -476v-73q61 5 124 5q42 0 84 -2q106 -5 211 -16l30 -2q13 -2 20.5 -11.5t7.5 -22.5q-2 -13 -11.5 -20.5t-22.5 -7.5q-91 3 -183 7q-131 0 -262 -15q-2 -112 -14 -224
q-12 -101 -40 -199q-21 -71 -57.5 -133t-93 -101t-137.5 -39q-86 0 -144 46.5t-87 118.5t-29 149q0 70 20 134.5t65 119.5q59 70 140.5 112.5t170.5 64.5zM662 611q-68 -19 -132.5 -53.5t-110.5 -88.5q-35 -44 -50.5 -94.5t-15.5 -106.5q0 -44 13.5 -90.5t41.5 -82.5
q15 -18 35 -29.5t43 -11.5q24 0 42 14t31 33q34 57 51 122q26 93 37 188q12 100 15 200z" />
    <glyph glyph-name="J" unicode="J" horiz-adv-x="1331" 
d="M780 667q2 57 2 114q0 188 -14 375.5t-38 373.5q-27 0 -53 -2q-53 -2 -115 -16.5t-97 -55.5q-27 -32 -27 -75q0 -54 20.5 -104.5t53 -95.5t68.5 -83q12 -13 11.5 -30t-12.5 -29q-13 -11 -30 -11q-18 0 -30 12q-44 47 -81.5 100.5t-60.5 114t-23 126.5q0 73 47 130
q45 54 118 76t155 26q49 2 96 2q31 0 61 -1q32 -1 59 -1q16 0 28 -10.5t14 -26.5q26 -197 41.5 -396t15.5 -399q0 -38 -1 -77q96 12 212 14q87 2 167 2h73q13 0 22 -9t9 -21q0 -13 -9 -22t-22 -9q-125 0 -217 -10t-193 -25l-44 -6q-5 -121 -20 -241q-15 -115 -46 -227
q-28 -99 -76 -189t-123 -161q-88 -78 -194.5 -111t-222.5 -33q-92 0 -160.5 43t-106 116t-37.5 162q0 114 45.5 210t120.5 173.5t169 134.5q208 122 445 172zM776 579q-211 -47 -397 -156q-80 -49 -146.5 -115.5t-107 -149.5t-40.5 -181q0 -66 26 -119.5t75 -85.5t118 -32
q32 0 64 5q65 11 121 46q110 73 170 211t86 294t31 283z" />
    <glyph glyph-name="K" unicode="K" horiz-adv-x="1793" 
d="M1782 468q50 114 91 231q5 13 16 18q6 3 13 3q5 0 11 -2q12 -5 17 -16q3 -6 3 -13q0 -5 -2 -10q-42 -120 -93 -236q-63 -146 -127 -267t-158 -220q-52 -56 -109 -89t-117 -33q-63 0 -124 35.5t-113.5 85t-90.5 95.5q-178 218 -275 483q-29 79 -50 161q-6 -261 -21 -521
q-6 -110 -15 -219v-3q-5 -69 -16 -138q-3 -15 -14.5 -25t-27.5 -10q-33 0 -66.5 9t-57.5 34q-28 33 -28 76q0 182 15 370q24 238 24 478q3 144 3 289q0 102 -13.5 209.5t-48.5 204.5q-27 73 -78 131q-34 38 -77 38q-45 0 -69 -29q-58 -71 -79 -179t-21 -194q0 -105 32 -210
q24 -81 83 -140q12 -13 13 -30v-3q0 -15 -11 -27q-12 -13 -29 -14h-3q-15 0 -27 11q-52 48 -83.5 118.5t-45 148.5t-13.5 146q0 81 15.5 178t57 181t118.5 129q58 34 123 34q44 0 85 -15q81 -31 132.5 -100.5t80.5 -149.5q37 -103 52 -216t15 -222q0 -110 -2 -219l8 3
q177 64 293.5 191t180.5 302q44 120 64.5 250.5t20.5 257.5q0 17 12 29.5t30 12.5q28 0 59 -4t57 -16q21 -10 33.5 -27t12.5 -41q0 -194 -69.5 -393.5t-198.5 -359.5t-318 -237q12 -54 27 -107q17 -58 37 -114q82 -223 224 -413q27 -36 64.5 -73.5t82 -64t91.5 -26.5
q32 0 60 11.5t50 31.5q81 71 161 206.5t123 233.5z" />
    <glyph glyph-name="L" unicode="L" horiz-adv-x="1352" 
d="M433 129q0 -52 -15.5 -100.5t-51.5 -86.5q-65 -64 -151 -64q-55 0 -104 23.5t-80 66t-31 100.5q0 90 75 153q61 49 139 62q-14 102 -36 202l-23 109q-33 147 -58 296q-26 144 -26 290q0 261 129.5 404.5t396.5 143.5q78 0 153.5 -23t137.5 -72q77 -62 113.5 -147
t36.5 -182q0 -74 -18 -165t-70 -149q-13 -13 -30 -13q-16 0 -30 12q-12 13 -12 30v2q0 15 12 28q38 44 51 122.5t13 132.5q0 77 -28 145t-90 118q-97 71 -223 71q-133 0 -206 -68t-100.5 -170.5t-27.5 -219.5q0 -139 24 -277q25 -147 57 -292l23 -109q25 -112 40 -226
q77 -23 147 -60l106 -55q75 -42 153 -78q47 -23 99 -40.5t104 -17.5q56 0 104.5 46t88 113t68 133t44.5 109l90 252q2 6 5 12q4 13 15 18q6 3 13 3q5 0 11 -2q12 -4 17 -15q4 -7 4 -14q0 -5 -2 -10q-3 -6 -5 -12l-91 -253q-43 -120 -75.5 -195t-78 -138.5t-109 -103
t-153.5 -39.5q-71 0 -141 18q-86 21 -166 59q-81 38 -159 81zM223 199q-52 -10 -94 -42q-44 -37 -44 -89q0 -30 17 -55t50 -25q29 0 44.5 27t22 60.5t6.5 56.5q0 33 -2 67z" />
    <glyph glyph-name="M" unicode="M" horiz-adv-x="2581" 
d="M747 297l13 118q26 261 62 521q22 151 53 301q26 135 70 265q13 40 34 88t50.5 92t68.5 72.5t89 28.5q39 0 68.5 -24t51 -61t35.5 -76t23 -70q29 -104 47 -211q20 -119 33 -240q23 -211 35 -423q0 -10 1 -20l14 43l40 121q30 89 64 176q32 82 74 158q33 62 83.5 118
t120.5 72q17 3 34 3q28 0 53 -12q44 -24 66 -73.5t30 -106.5t10 -102q0 -167 -2.5 -286.5t-4.5 -164.5q-3 -90 -3 -225q0 -101 13 -201q9 -88 35 -147q24 -47 52 -47q35 0 85.5 52t102 123t92 136.5t57.5 96.5q87 158 166 320q6 12 17 16q5 2 10 2q7 0 14 -4q11 -6 15 -18
q2 -5 2 -10q0 -6 -3 -13q-80 -163 -167 -322q-48 -90 -125.5 -216.5t-153.5 -202.5q-37 -36 -80.5 -60.5t-89.5 -24.5q-53 0 -99 26q-70 45 -99.5 128t-38.5 162q-12 103 -12 207q0 135 3 225q1 44 4.5 176.5t3.5 242.5q-2 58 -10 115q-3 19 -7 38q-2 9 -7 17t-14 8
q-27 0 -79 -89q-39 -72 -69 -148q-34 -85 -63 -172l-40 -121l-25 -75q-28 -88 -62 -174q-12 -26 -40 -26q-64 0 -113 19q-50 20 -53 68q-12 304 -44 606q-16 149 -44 296q-9 51 -22 101q-11 45 -27 90q-4 12 -13 26.5t-23 14.5q-19 0 -43 -46t-41 -99q-42 -126 -68 -255
q-30 -148 -51 -297q-36 -258 -55 -442t-29 -269q-4 -35 -10 -70q-3 -25 -10 -49q-10 -31 -41 -31q-48 0 -137 31q-66 27 -75 111q-8 62 -11 124q-5 77 -10 208.5t-17 300.5q-9 109 -26 218q-15 99 -44 195q-28 102 -92 185q-17 20 -39.5 33t-48.5 13q-52 0 -85 -43
q-34 -44 -52 -97q-39 -111 -39 -228v-23q0 -129 43 -251q14 -40 41 -81t67 -59q16 -8 22 -23q4 -8 4 -16t-4 -17q-7 -16 -23 -22q-7 -3 -15 -3t-17 3q-58 26 -95.5 78t-58.5 110q-49 139 -49 286v6q0 81 17 171.5t59.5 168.5t116.5 122q58 32 123 32q74 0 129 -31
q80 -45 127 -124t73 -164q33 -111 49 -225q16 -103 24 -207q12 -156 17 -311q3 -83 12 -236z" />
    <glyph glyph-name="N" unicode="N" horiz-adv-x="2135" 
d="M787 -50q1 1 1 3q36 108 64 218l78 301l87 330q46 172 98 342q47 152 107 300q44 115 114 217q25 37 61.5 67t83.5 30q23 0 45 -9q38 -17 59.5 -51.5t32.5 -73.5q28 -101 31 -205q4 -84 4 -168q0 -48 -1 -96q-2 -117 -8 -295q-5 -139 -5 -302q0 -113 9 -226
q6 -70 21 -139q6 -27 15 -54q13 -40 52 -40q58 0 160 123.5t163 223.5l120 202l39 66q6 11 18 14q4 1 8 1q8 0 16 -4q11 -7 14 -19q1 -4 1 -8q0 -8 -4 -15l-39 -66l-121 -203q-51 -85 -147 -224t-170.5 -182.5t-143.5 -43.5q-33 0 -63 14q-54 26 -84 85t-43 127t-18 123
q-10 111 -10 224q0 182 5 326l8 266q1 51 1 103q0 68 -2 137q-2 77 -13 153q-1 9 -4 20t-9.5 20t-17.5 9q-10 0 -23.5 -12.5t-23.5 -31.5q-29 -56 -53 -116q-59 -144 -104 -292q-52 -169 -98 -339l-92 -352l-81 -310q-28 -112 -67 -222q-12 -36 -31 -68q-9 -18 -23.5 -30.5
t-35.5 -12.5q-30 0 -72.5 6.5t-74.5 26t-38 58.5q-4 49 -4 97q0 19 1 38v4l4 147q1 24 1 49q5 122 5 243q0 122 -5 244q-4 111 -22 253.5t-61.5 274t-126.5 212.5q-44 38 -102 38h-6q-59 0 -97 -45q-46 -66 -65.5 -153t-19.5 -166q-1 -18 -13 -30t-30 -12q-18 1 -30 13
t-12 30q1 79 18.5 167t59.5 164t115 119q58 32 123 32q9 0 18 -1q87 -4 162 -49q90 -57 143.5 -150t81.5 -194q36 -127 52 -259q14 -120 19 -240q5 -134 5 -268q0 -148 -6 -295q-1 -13 -1 -26q-2 -59 -3 -117v-46z" />
    <glyph glyph-name="O" unicode="O" horiz-adv-x="1632" 
d="M1149 526q-25 -120 -71 -234q-23 -57 -53 -108q-30 -53 -67 -100q-73 -93 -176 -149t-241 -56q-66 0 -128.5 15t-117.5 51q-89 62 -143.5 157.5t-87.5 195.5q-64 195 -64 396q0 76 9 152q17 159 72.5 302.5t149 256t226.5 178t306 65.5q18 0 30 -12.5t12 -30.5
q0 -17 -12 -29.5t-30 -12.5q-134 0 -250 -69q-78 -50 -135.5 -123.5t-96.5 -157.5q-85 -191 -103 -400q-6 -68 -6 -136q0 -67 6 -135q12 -126 50 -246q28 -93 85 -179.5t149 -126.5q47 -19 97 -19q142 0 249 158q37 55 65 128q54 136 79 333q-110 52 -199 136t-143 193
t-54 233q0 55 17 108q31 86 98 128.5t156 42.5q68 0 129 -33q83 -49 130.5 -141t68 -197t23.5 -195q1 -26 1 -52q0 -99 -15 -197q90 -23 177 -23q198 0 384 117q9 5 18 5l6 -1q12 -3 19 -14q4 -8 4 -16q0 -3 -1 -7q-3 -12 -14 -19q-136 -84 -293 -122q-91 -22 -182 -22
q-66 0 -133 12zM966 692q5 57 5 113q0 28 -1 56q-3 103 -31.5 225t-97.5 200q-29 29 -75 29q-35 0 -60 -28t-36 -63t-11 -72q0 -35 6 -69q24 -128 106.5 -228t194.5 -163z" />
    <glyph glyph-name="P" unicode="P" horiz-adv-x="1497" 
d="M480 -254h-3q-15 0 -27 10q-80 72 -142.5 170t-106.5 196q-114 252 -165 524q-36 187 -36 387q0 162 34 309.5t109.5 263.5t200.5 184.5t308 68.5q120 0 237 -31.5t215 -104.5q88 -68 140.5 -157t75.5 -191.5t23 -209.5q0 -133 -28.5 -271t-94 -259t-174.5 -207
q-146 -110 -328 -119q-2 -58 -5 -116q-3 -72 -24 -175.5t-70.5 -184.5t-138.5 -87zM720 406q64 22 120 60q108 77 173 192.5t93.5 248.5t28.5 258q0 114 -30.5 220.5t-92 190.5t-155.5 133.5t-220 49.5q-101 0 -193.5 -30t-167.5 -101q-82 -81 -124.5 -189.5t-56.5 -220.5
q-13 -97 -13 -195q0 -38 2 -76q8 -143 35 -285q49 -262 159 -504q40 -90 93 -174q28 -45 61 -86q4 -5 11 -12t14 -7q55 0 56 671q-2 244 -21 486q-7 94 -19 188q-6 58 -19 114q-1 6 -1 11q0 14 9 26q13 16 33 16q32 0 64.5 -7t60.5 -24q43 -26 53 -75q10 -69 17 -138
q9 -88 15 -177q14 -209 16 -419q0 -72 -1 -145z" />
    <glyph glyph-name="Q" unicode="Q" horiz-adv-x="1632" 
d="M1149 526q-30 -148 -94.5 -285.5t-170.5 -234t-262 -121.5q90 -20 173.5 -60.5t160.5 -85.5q82 -47 156 -82t140 -35q35 0 67 20q14 7 26 7q15 0 25.5 -9t10.5 -21q0 -16 -20 -31q-66 -46 -163 -46q-72 0 -141 17q-86 22 -166 59q-81 38 -160 82l-59 31q-43 24 -100.5 47
t-116.5 26h-6q-55 0 -100 -35q-44 -36 -44 -88q0 -18 -12.5 -30.5t-29.5 -12.5q-18 0 -30.5 12.5t-12.5 30.5q0 90 75 153q57 45 135 56q-71 14 -135 56q-89 61 -143.5 156.5t-87.5 196.5q-64 194 -64 396q0 75 9 152q18 158 73 302t148.5 256t226.5 177.5t306 65.5
q18 0 30.5 -12.5t12.5 -29.5q0 -18 -12.5 -30t-30.5 -12q-134 0 -249 -70q-79 -50 -136.5 -123t-96.5 -157q-85 -192 -102 -401q-6 -67 -6 -135q0 -67 6 -135q11 -126 49 -247q29 -93 86 -179t149 -127q46 -18 96 -18q23 0 46 5q59 17 104.5 59.5t77.5 93.5q41 63 70 133
q32 75 54 153q26 86 41 175q-109 52 -198.5 136t-143.5 192.5t-54 233.5q0 54 17 107q31 86 98 128.5t156 42.5q69 0 130 -32q83 -50 130 -141.5t67.5 -197t23.5 -195.5q1 -27 1 -54q0 -98 -14 -195q89 -22 176 -22q198 0 385 116q8 5 16 5q3 0 7 -1q12 -3 19 -14
q5 -8 5 -17l-1 -6q-3 -12 -14 -19q-137 -84 -294 -122q-91 -21 -182 -21q-66 0 -133 11zM966 693q6 61 6 123q0 23 -1 46q-3 103 -32 224.5t-98 200.5q-14 14 -34 21t-40 7q-35 0 -62 -27q-24 -28 -34.5 -63.5t-10.5 -71.5q0 -35 6 -70q23 -128 105.5 -228t194.5 -162z" />
    <glyph glyph-name="R" unicode="R" horiz-adv-x="1537" 
d="M892 476q25 -24 40 -56l29 -60l36 -80q43 -96 91 -190q23 -48 52 -92q17 -29 49 -29q17 0 31.5 8.5t25.5 20.5q111 118 195.5 277t138.5 308l37 107q4 12 15 18q7 3 14 3q5 0 9 -1q13 -5 18 -16q4 -7 4 -14q0 -4 -2 -9q-18 -55 -38 -109q-55 -157 -145.5 -343.5
t-208.5 -302.5q-38 -36 -81.5 -58.5t-90.5 -22.5q-43 0 -78.5 28t-63 66.5t-46.5 73.5q-41 74 -76 152l-41 88l-37 81l-43 89q-3 -1 -7 -1q0 -64 -3 -127q-4 -122 -17 -242q-6 -58 -20 -114q-19 -76 -64.5 -128.5t-128.5 -54.5q-223 0 -354 418t-131 904q4 157 50 310
t153 272q99 104 227 149t269 45q217 0 359.5 -82.5t212.5 -234.5t70 -362q0 -121 -41 -236t-114 -212q-120 -155 -295 -241zM720 516q2 1 4 1q170 83 281 236q64 89 100.5 196t36.5 216q0 103 -24 207.5t-76.5 191t-136.5 140t-205 53.5q-7 0 -15 2q-120 -1 -227.5 -39.5
t-191.5 -127.5q-117 -141 -155 -320q-26 -128 -26 -259q7 -412 130.5 -772t246.5 -360q5 0 9 10.5t7 22l4 15.5q16 88 24 178q15 181 15 362q0 41 -1 81q-2 244 -21 486q-7 94 -19 187v1q-6 58 -19 114q-1 6 -1 12q0 13 8 25q14 16 34 16q26 0 53.5 -3.5t52.5 -12.5
q20 -7 37 -20.5t21 -35.5q12 -67 19 -135q10 -92 17 -184q16 -224 18 -449v-35z" />
    <glyph glyph-name="S" unicode="S" horiz-adv-x="1335" 
d="M676 747q-66 65 -139 124l-36 29q-75 60 -146 125t-124 145q-88 134 -88 296q0 95 37 176.5t119 134.5q52 32 111.5 47t119.5 15q97 0 184 -49q99 -60 148 -159.5t53 -212.5v-3q0 -16 -11 -27q-11 -13 -29 -14q-18 0 -30.5 11.5t-13.5 29.5q-2 71 -27 139t-75 119
q-30 30 -63.5 46t-75.5 16q-34 0 -73.5 -10.5t-67.5 -30.5q-54 -42 -76.5 -102t-22.5 -126q0 -85 39 -160q28 -54 70 -100t88 -86l105 -87l116 -98q87 -76 156 -168h36q99 0 230 -13q154 -16 260 -36q13 -3 20 -13q5 -7 5 -15q0 -4 -1 -8q-2 -13 -13 -20q-7 -5 -15 -5
q-4 0 -8 1q-123 23 -207 27q-47 2 -97 2q-37 0 -75 -1t-82 -2q79 -152 79 -328q0 -182 -75.5 -292t-207 -159.5t-298.5 -49.5q-131 0 -238.5 45t-172 136.5t-64.5 231.5q0 77 32 147q54 109 162.5 176.5t237 104t244.5 51.5zM742 670q-67 -8 -134 -22q-77 -17 -152 -44
q-56 -19 -114.5 -49t-108 -71t-80 -94.5t-30.5 -121.5t24.5 -127t77.5 -104q51 -42 115 -61.5t129 -19.5q97 0 186 44q101 55 147.5 150t46.5 206q0 176 -104 311q-1 2 -3 3z" />
    <glyph glyph-name="T" unicode="T" horiz-adv-x="1373" 
d="M571 1544v36q1 17 13 29.5t30 12.5q29 0 60.5 -5t58.5 -19q15 -7 27.5 -19t17.5 -28q78 3 190 19t211 53.5t138 106.5q13 29 13 61q0 18 12.5 30t30.5 12q22 0 46.5 -2t46.5 -9q8 -2 16 -6q31 -16 31 -51v-2q-5 -39 -22 -74q-38 -70 -108 -110t-144 -60
q-186 -49 -378 -55q-41 -2 -82 -3v-32q-1 -95 -1 -190q0 -222 12 -444q7 -127 21 -253q12 -113 36 -225q14 -67 38 -132q12 -35 31 -68q13 -22 39 -22q18 0 36.5 9t32.5 21q121 104 214 229.5t176 263.5l29 49q7 11 19 14q4 1 8 1q8 0 16 -4q11 -7 14 -19l1 -6q0 -9 -5 -17
l-30 -50q-4 -6 -7 -12q-75 -126 -177 -275t-207 -241q-46 -39 -97 -64.5t-105 -25.5q-18 0 -35 4q-57 17 -94.5 68.5t-60 115.5t-34.5 116q-28 124 -43 251q-16 141 -24 282q-12 235 -12 471v169q0 7 1 14l-114 2q-120 2 -241 2q-21 0 -40.5 -5.5t-35.5 -19.5
q-34 -32 -45 -87t-11 -98q0 -100 26 -199q21 -91 51 -179q53 -154 127 -299q29 -57 63 -111q22 -37 50 -68q12 -12 12 -28v-2q0 -17 -13 -30q-12 -11 -27 -11h-3q-17 0 -29 12q-35 38 -61 81q-37 58 -67 119q-77 150 -131 310q-33 93 -55 190q-27 107 -27 215q0 65 17 134
t69 116q27 23 60.5 33.5t69.5 10.5q79 0 159 -2q65 -1 131 -1h65z" />
    <glyph glyph-name="U" unicode="U" horiz-adv-x="2142" 
d="M1441 1422q2 30 3 60q1 17 13 29t29 12q27 0 54.5 -5.5t52.5 -18.5q20 -11 34.5 -29t14.5 -42q-13 -258 -16 -516v-49q0 -123 4 -246q4 -132 20 -263q9 -77 27 -151q7 -28 16 -54q6 -18 17.5 -30t31.5 -12q39 0 87.5 41t95.5 98.5t84.5 113l57.5 86.5l120 203l38 65
q7 12 19 15q4 1 8 1q8 0 15 -4q11 -7 14 -19q1 -4 1 -8q0 -8 -4 -16l-38 -65l-121 -204l-23 -37q-36 -60 -82.5 -130.5t-102.5 -134.5t-120 -105.5t-134 -41.5q-52 0 -87 34.5t-57.5 85.5t-34.5 104.5t-18 93.5q-23 147 -28 295q-5 130 -5 260v144q-46 -183 -104 -362
q-48 -150 -109 -296q-54 -133 -128 -257q-36 -60 -86 -120t-113 -101.5t-139 -41.5q-42 0 -79 21q-36 23 -56 59.5t-30 76.5q-21 97 -21 195v41q0 111 6 222q2 30 3 61q6 108 9 217q2 54 2 109q0 54 -2 109q-3 109 -22 216q-13 81 -45 161t-93 138q-21 20 -45 34
q-46 25 -94 25q-65 0 -113 -59q-45 -66 -64 -152.5t-20 -165.5q0 -18 -12.5 -29.5t-30.5 -11.5q-17 0 -29 12t-12 30q0 80 18 168t60 163.5t114 118.5q56 32 118 32q78 0 151 -24.5t132 -77.5q71 -68 109.5 -159.5t54.5 -187.5q19 -111 23 -225q2 -57 2 -113q0 -57 -2 -113
q-4 -110 -9 -219q-2 -33 -3 -65q-6 -100 -6 -201v-60q0 -75 14 -149q5 -26 20 -44t43 -18q22 0 42 12.5t35 28.5q50 55 90 118q43 70 79 145q93 196 158 403q70 219 124 442q41 166 74 334z" />
    <glyph glyph-name="V" unicode="V" horiz-adv-x="1836" 
d="M1242 1041q8 28 15 58q15 67 24.5 136t9.5 137q0 25 -3 54.5t-13 53.5q-4 11 -12 20t-19 12h-5q-15 0 -28.5 -14t-20.5 -27q-26 -55 -26 -111q0 -83 18.5 -164.5t59.5 -154.5zM1946 729q8 0 15 -4q10 -6 14 -19q1 -4 1 -8q0 -8 -5 -15q-6 -11 -18 -14q-84 -13 -161 -13
q-113 0 -209 29q-160 48 -265 137q-10 9 -20 19l-35 -81q-89 -197 -199 -384q-36 -61 -76 -121q-3 -4 -6 -9t-7 -10q-45 -69 -101 -129q-19 -20 -44.5 -39t-53.5 -19q-26 0 -44.5 17.5t-30.5 41.5t-19 46q-16 45 -28 91l-27 116q-30 142 -56 285q-5 25 -9 50l-52 274
q-28 140 -60 279q-29 126 -69 249q-24 76 -56 148q-20 43 -46 83q-18 26 -48 26q-31 0 -52 -27q-33 -42 -52 -92q-42 -116 -42 -240q-1 -18 -13 -30t-30 -12q-18 1 -30 13t-12 30q1 80 19.5 170.5t62.5 168.5t120 118q50 25 105 25q67 0 117 -47.5t86 -117.5t60.5 -143
t38.5 -129q2 -4 3 -8q61 -222 103 -448l49 -254l45 -236q18 -98 41 -195l18 -69l29 40v1q11 14 20 29q118 183 202 383q52 123 93 250q-56 71 -95 153q-64 129 -71 273v11q0 54 18 105q21 55 71 92q54 34 116 34q60 0 112 -35q38 -29 56.5 -71t18.5 -89q0 -123 -30.5 -245.5
t-75.5 -236.5q20 -21 42 -41q152 -132 299 -159q71 -14 135 -14q69 0 130 16q4 1 8 1z" />
    <glyph glyph-name="W" unicode="W" horiz-adv-x="2380" 
d="M1060 1372q24 0 58 -5t61.5 -18t34.5 -39q7 -40 11 -80q0 -5 1 -10l12 -112q1 -14 3 -27q18 -183 43 -364q14 -107 33 -213q17 -92 42 -183q13 -47 32 -91q6 -17 18.5 -35.5t31.5 -22.5q2 -1 5 -1q18 0 38.5 16.5t33.5 29.5q51 49 89 109q70 107 117 226q44 110 75 225
q15 54 27 108q-101 100 -176 222q-44 70 -77 154t-35 167q2 100 62 149t155 49q71 0 118.5 -30.5t75 -81t39 -110.5t11.5 -119q0 -128 -21 -254q-11 -73 -27 -146q190 -177 392 -177q66 0 134 19q6 3 12 3t12 -3q11 -4 17 -16q2 -6 2 -12t-2 -12q-5 -11 -16 -17
q-76 -22 -154 -22q-204 0 -418 146q-5 -20 -11 -39q-33 -121 -79 -236q-50 -126 -124 -240q-35 -55 -83 -105.5t-107 -84t-128 -33.5q-74 0 -116.5 28.5t-67.5 77.5t-46 111q-32 98 -52 199q-23 112 -39 226q-28 204 -47 409q-1 5 -1 11q-1 1 -1 2q-7 -26 -15 -53
q-58 -192 -124 -382q-40 -115 -84 -229q-38 -101 -83 -199q-33 -76 -76 -145q-16 -24 -39 -47.5t-53 -23.5q-29 0 -47 17.5t-29 42t-16 48.5q-11 46 -17 92q-7 58 -11 116q-9 130 -15 261q0 12 -1 24q-7 161 -17 323q-9 143 -26 285q-16 128 -46 253q-15 59 -39.5 121.5
t-62.5 110.5q-24 26 -57 26q-29 0 -47 -25q-37 -48 -39 -107v-6q0 -86 30 -165q26 -62 63 -118q6 -10 6 -22q0 -5 -1 -10q-4 -16 -19 -26q-10 -6 -22 -6q-5 0 -10 1q-16 3 -26 18q-41 63 -70 133q-35 92 -35 191v11q1 64 32 120.5t84 93t119 36.5q41 0 80 -16
q94 -42 144.5 -141.5t73.5 -195.5q32 -131 48 -264q18 -146 27 -292q10 -153 17 -305q3 -81 7 -162q5 -95 13 -190q1 -9 2 -19q3 6 5 12q42 93 78 189l79 216q66 189 123 380q22 73 42 147v2q13 45 21 90q0 2 1 4q8 37 46 41q9 0 18 -4zM1848 989l8 55q20 120 20 241
q0 28 -4 71.5t-17 85.5t-37 70.5t-64 28.5q-52 0 -73 -32q-20 -31 -20 -76v-4q6 -109 51 -210q52 -124 136 -230z" />
    <glyph glyph-name="X" unicode="X" horiz-adv-x="1666" 
d="M640 729l-43 120q-3 9 -6 17l-96 257q-47 125 -105 244q-37 77 -84 147q-31 45 -71 83q-26 22 -59 21.5t-55 -27.5q-35 -46 -36 -104v-10q0 -83 30 -161q25 -62 62 -118q6 -10 6 -22q0 -5 -1 -10q-3 -16 -18 -26q-11 -6 -22 -6q-5 0 -10 1q-17 3 -26 18q-42 63 -70 133
q-36 94 -36 196v6q1 64 32 120.5t84 93t119 36.5q59 0 108 -27t89.5 -69t73 -91t57.5 -96q69 -132 122 -271l72 -191l47 104q57 127 127 248q41 70 93 128.5t119.5 94.5t152.5 36q17 0 29.5 -12t12.5 -30q0 -17 -12.5 -29.5t-29.5 -12.5q-51 0 -96.5 -38.5t-82 -88.5
t-59.5 -91q-68 -117 -123 -240l-93 -208q-10 -21 -19 -43l77 -206q48 -124 106 -242q38 -76 86 -146q31 -45 71 -82q27 -28 64 -28q33 0 78.5 35.5t92 85t84 96.5t55.5 73l140 199l20 28l53 78q8 10 20 13h5q9 0 18 -5q11 -8 13 -20v-5q0 -9 -5 -18l-53 -77l-20 -29
l-141 -201q-6 -7 -11 -15l-79 -104t-101 -115.5t-113 -94.5t-114 -38q-22 0 -44 4q-107 26 -182 117t-122 185q-64 125 -115 256q-6 -13 -13 -26q-57 -118 -127 -229q-55 -88 -134.5 -166t-184.5 -101q-25 -4 -49 -4q-45 0 -89 14q-17 6 -25 21q-4 9 -4 18q0 7 2 14
q5 17 20 25q9 4 18 4q7 0 14 -2q3 0 5 -1q17 -7 32 -7q57 0 107 38.5t90.5 90.5t68.5 96q69 107 125 222q41 83 78 167z" />
    <glyph glyph-name="Y" unicode="Y" horiz-adv-x="1804" 
d="M1266 574q4 99 4 197q0 228 -24 455q-7 64 -15 127q-28 -98 -62 -194q-43 -119 -98 -232q-2 -3 -4 -7q-33 -71 -82.5 -156t-117 -147.5t-153.5 -65.5h-3q-74 0 -134 43q-53 42 -80.5 105.5t-38.5 128.5q-24 138 -29 279l-2 35q0 6 -1 12q-4 141 -30 279q-15 82 -60 150
q-14 20 -34.5 33t-45.5 13q-20 0 -38 -10t-32 -26q-39 -46 -61.5 -112t-31.5 -137t-9 -129q0 -105 32 -210q24 -81 82 -141q13 -12 14 -29v-3q0 -15 -11 -27q-12 -13 -29 -14h-3q-15 0 -27 11q-52 48 -83.5 118.5t-45 149t-13.5 145.5q0 81 15.5 178t57 181t118.5 131
q58 32 123 32q46 0 88 -12.5t78 -41.5q52 -43 80 -105t41 -127q28 -147 33 -297v-7q2 -19 3 -38q4 -133 27 -265q12 -78 52 -145q8 -13 20.5 -22t28.5 -9q14 0 27.5 8t22.5 18q82 85 138 191q81 145 136 303q69 192 110 392q9 30 40 33h21l21 1l21 -1q37 -1 69.5 -17.5
t40.5 -56.5q27 -167 44 -336q22 -215 22 -432q0 -66 -2 -132q73 19 176 37.5l200 34.5l56 9h6q9 0 17 -5q10 -7 13 -20v-5q0 -10 -6 -18q-7 -10 -20 -13q-210 -38 -384 -92q-31 -8 -62 -17q-3 -51 -8 -101q-14 -184 -79.5 -363.5t-210.5 -301.5q-87 -67 -187.5 -97.5
t-209.5 -30.5h-5q-79 0 -153 29q-77 30 -121 104q-29 53 -29 110v7q1 62 26 120q33 79 91.5 145.5t125.5 118.5q102 80 219.5 141.5t238.5 107.5zM1260 482q-30 -10 -59 -22q-116 -44 -227.5 -102t-209.5 -134q-58 -46 -110 -104t-81 -126q-17 -39 -20 -82v-8q0 -39 18 -74
q32 -52 90 -71q55 -19 110 -19h10q117 0 215 65q94 69 149 185t81 247t34 245z" />
    <glyph glyph-name="Z" unicode="Z" horiz-adv-x="1311" 
d="M406 281q63 102 116 208q80 158 154 319l29 63q98 211 206 418q69 131 147 256q-95 3 -187 22t-183 44q-7 2 -13 4q-85 23 -171 41q-89 21 -178 21q-42 0 -72 -22t-49 -56t-29 -71q-21 -80 -23 -164q-1 -29 -1 -58q0 -88 9 -176v-5q0 -15 -11 -27q-13 -14 -31 -14
q-50 0 -87 37q-25 28 -29 65q-3 44 -3 89q0 66 7 132q8 73 29.5 140.5t60.5 121t98 84.5t142 31q58 0 116 -10q65 -12 128 -28q66 -16 131 -34q73 -20 147 -38q77 -19 156.5 -32.5t159.5 -13.5q40 0 79 9q6 1 11 1q21 0 34 -18q8 -11 8 -23t-8 -24q-103 -157 -190 -324
q-117 -223 -222 -451q-9 -21 -19 -42q-86 -186 -181 -368q-47 -90 -103 -176q41 -23 81 -50l50 -33l91 -60q58 -36 119 -36q38 0 67 26q99 93 181 214.5t142 242.5q42 82 77 166q6 12 17 17q6 3 11 3q6 0 12 -3q12 -5 17 -16q3 -6 3 -12t-3 -12q-36 -87 -79 -171
q-2 -4 -5 -9l-69 -133t-88.5 -151.5t-104.5 -142t-117 -106.5t-125 -41q-40 0 -79 11q-68 18 -129 56.5t-117 80.5q-6 4 -11 8l-37 26q-42 -47 -95 -82t-117 -45q-17 -3 -34 -3q-64 0 -106 41.5t-42 105.5q0 75 62 128q37 31 84 43.5t94 12.5q36 0 72 -7zM332 179
q-31 16 -64 16t-60 -25q-29 -28 -29 -66q0 -13 8.5 -24.5t22.5 -11.5q19 0 41.5 20t35.5 35q24 27 45 56z" />
    <glyph glyph-name="bracketleft" unicode="[" horiz-adv-x="556" 
d="M114 1608q12 12 50 12h244q56 -6 56 -52q-3 -48 -56 -48h-187l-8 -937l8 -937h187q53 0 56 -48q0 -46 -56 -52h-244q-38 0 -50 12q-91 196 -104 1080q13 774 104 970z" />
    <glyph glyph-name="backslash" unicode="\" horiz-adv-x="688" 
d="M11 1705q0 42 64 46q35 0 62 -86q442 -1651 442 -1699q0 -44 -47 -47q-63 0 -86 81q-435 1677 -435 1705z" />
    <glyph glyph-name="bracketright" unicode="]" horiz-adv-x="556" 
d="M464 638q-13 -884 -104 -1080q-12 -12 -50 -12h-244q-56 6 -56 52q3 48 56 48h187l8 937l-8 937h-187q-53 0 -56 48q0 46 56 52h244q38 0 50 -12q91 -196 104 -970z" />
    <glyph glyph-name="asciicircum" unicode="^" horiz-adv-x="1044" 
d="M884 1082q17 -29 17 -51q0 -32 -33 -50q-16 -9 -31 -9q-33 0 -61 47l-140 249.5l-132 234.5l-275 -484q-36 -60 -98 -60q-43 0 -67 24t-24 48q0 23 16 51l172 294.5l186 317.5q22 31 57 31q17 0 37 -8z" />
    <glyph glyph-name="underscore" unicode="_" horiz-adv-x="884" 
d="M37 -179q-17 1 -27 12.5t-10 27.5q1 16 13 26q10 11 25 11l3 -1l667 -6q16 -1 26 -12.5t10 -27.5q-1 -17 -12.5 -27t-27.5 -10z" />
    <glyph glyph-name="grave" unicode="`" horiz-adv-x="190" 
d="M79 1301q60 0 85 -120q26 -121 26 -156q-2 -41 -31 -41q-36 0 -75 70q-84 150 -84 181q0 65 79 66z" />
    <glyph glyph-name="a" unicode="a" horiz-adv-x="1055" 
d="M560 505q-12 -47 -34 -101.5t-58.5 -105t-94 -83t-142.5 -32.5q-50 0 -92 23t-72 64q-38 53 -52.5 112t-14.5 124t24.5 137.5t66.5 125.5q56 69 132 103t164 34q57 0 98 -11q50 -16 105 -38q25 7 49 7q29 0 58 -10q19 -7 34 -22.5t15 -36.5q-2 -46 -2 -94v-31
q0 -73 6 -146q7 -77 26 -152q9 -39 32 -72q6 -9 16 -16.5t22 -7.5q19 0 37.5 16.5t30.5 31.5q61 78 121.5 183t101.5 194q5 12 17 16q5 2 10 2q6 0 13 -3q12 -6 16 -17q3 -6 3 -12t-3 -12l-24 -52q-40 -91 -84 -176t-111 -170q-24 -31 -55.5 -62t-69 -52.5t-78.5 -21.5
q-58 0 -95.5 38t-60 90t-33.5 101q-15 67 -22 135zM553 789q-61 31 -105 31q-57 0 -109.5 -34.5t-85.5 -81.5q-27 -40 -44 -95.5t-17 -102.5q0 -45 8 -85t28 -80q23 -51 73 -52q64 3 110.5 65t77.5 144t49 145q13 48 15 146z" />
    <glyph glyph-name="b" unicode="b" horiz-adv-x="905" 
d="M198 870q-6 -79 -6 -158q0 -94 10 -187q9 -93 28 -186q22 68 53 131q22 48 57 99.5t81.5 88.5t104.5 37q50 0 90 -34q35 -33 47 -82t12 -94q0 -53 -13.5 -106t-37.5 -101q37 28 71 59q84 71 164 162.5t127 191.5q6 12 17 16q6 3 12 3t12 -3q11 -6 16 -18q2 -5 2 -10
q0 -6 -3 -13q-99 -221 -296 -387q-128 -112 -274 -199q-109 -90 -248 -116q-9 -3 -17 -5q-5 -1 -11 -1q-9 0 -18 4q-13 7 -18 22q-2 7 -2 13q0 8 4 16q7 14 22 19q155 52 235 195q64 121 64 258v10q0 20 -3 41l-3 15.5t-6 19.5q-5 12 -13 12q-7 0 -16 -9q-13 -13 -24 -28
q-13 -18 -25 -37q-21 -32 -38 -67q-39 -78 -63 -162q-9 -30 -13.5 -47.5t-4.5 -45.5q0 -14 -7.5 -25t-21.5 -14q-5 -2 -11 -2q-17 0 -33 4q-45 14 -77 49.5t-51 76.5q-52 115 -63 242q-10 96 -10 194q0 119 12 239q6 61 19.5 137t37.5 153.5t63 143.5t96 106.5t136 40.5
q43 0 82 -22q41 -26 59.5 -68t18.5 -89q0 -65 -26 -130t-66 -123.5t-83 -104.5q-68 -72 -151 -125zM207 970q46 35 86 78q56 58 104 140t50 165q0 14 -2 27q-2 15 -10.5 35.5t-26.5 20.5q-30 0 -55 -27.5t-44.5 -67t-32.5 -77.5t-20 -62q-21 -72 -35 -147q-6 -30 -11 -60z
" />
    <glyph glyph-name="c" unicode="c" horiz-adv-x="679" 
d="M321 691q2 13 2 25q0 8 -1 16q-1 18 -9 33.5t-27 15.5q-11 0 -21 -4q-34 -17 -50 -60.5t-20 -78.5q-4 -28 -4 -57q0 -42 6 -104.5t23.5 -124t52 -103.5t91.5 -42q58 0 120.5 54.5t119 134t97.5 158.5t58 133q3 12 14 18q7 4 15 4q4 0 8 -1q13 -4 19 -14q4 -7 4 -16
q0 -4 -1 -8q-31 -110 -108.5 -239t-185 -222.5t-229.5 -98.5q-97 1 -156 44.5t-89 114.5t-40 153.5t-10 158.5q0 49 10.5 99.5t38.5 93.5q31 47 79.5 75t105.5 28q64 0 117 -42q51 -51 51 -117q0 -20 -5 -42q-4 -15 -17 -24q-10 -6 -22 -6h-6q-16 4 -25 17q-6 10 -6 22v6z
" />
    <glyph glyph-name="d" unicode="d" horiz-adv-x="1058" 
d="M394 771q-25 151 -38 303q-5 63 -5 127t11.5 150.5t46.5 159.5t104 103q28 12 58 12q29 0 57 -12q63 -29 94 -99.5t40 -153.5t9 -142q0 -129 -19 -258q-21 -173 -63 -342q-13 -53 -29 -104q37 -99 107 -177q13 -14 29.5 -23t35.5 -9q41 0 84.5 41t84 102t73.5 122l55 104
l11 22q6 11 18 15q5 2 9 2q7 0 14 -4q12 -6 16 -18q1 -4 1 -9q0 -7 -3 -14l-22 -44l-69.5 -132.5t-89 -139.5t-107 -111t-122.5 -44q-64 0 -115 28.5t-91 76.5q-34 -70 -82 -134.5t-113 -107t-149 -42.5q-140 0 -216 88t-76 266q0 185 88 297.5t259 112.5q53 0 104 -12z
M528 375q-43 75 -71 157q-26 74 -44 151q-52 19 -97 19q-73 0 -127 -85.5t-54 -263.5q0 -124 42.5 -181t101.5 -57q49 0 88 29q54 43 94 105.5t67 125.5zM617 646q1 6 3 12q37 157 56 316q9 68 14 137q4 54 4 108q0 55 -5.5 113t-21.5 111l-8 20.5t-12.5 22t-17.5 9.5
q-9 0 -17.5 -6.5t-13.5 -14.5q-19 -25 -27 -54q-16 -53 -22 -109t-6 -110q0 -103 11 -205q13 -131 41 -260q10 -45 22 -90z" />
    <glyph glyph-name="e" unicode="e" horiz-adv-x="670" 
d="M209 485q12 -99 44 -192q10 -31 24 -60q8 -16 20.5 -29.5t31.5 -13.5t36.5 11t31.5 25q94 93 181 215.5t162 238.5q7 10 13 21q8 10 20 13l6 1q9 0 17 -5q11 -8 13 -20q1 -4 1 -7q0 -8 -5 -16l-77 -121q-61 -101 -128 -197t-149 -177q-40 -41 -92.5 -75.5t-110.5 -34.5
q-43 0 -76 25t-56.5 60.5t-38.5 71.5q-62 148 -73 310q-2 24 -3 49q-1 16 -1 33q0 57 8 124q9 86 42 162t100 115q41 21 87 21q62 0 113 -37q54 -45 73.5 -115.5t19.5 -136.5q0 -61 -17.5 -123.5t-70.5 -101.5q-57 -35 -123 -35q-11 0 -23 1zM202 562q12 -1 24 -1q16 0 33 2
q29 4 52 19q35 27 45 74.5t10 87.5q0 39 -7.5 82t-28.5 78q-5 9 -13.5 15.5t-19.5 6.5q-9 0 -16.5 -5.5t-12.5 -13.5q-29 -40 -42 -88q-26 -96 -26 -195q0 -21 1 -43q0 -9 1 -19z" />
    <glyph glyph-name="f" unicode="f" horiz-adv-x="544" 
d="M324 -420q8 38 9 75q1 19 1 38q0 58 -7 115q-8 72 -21 144q-19 103 -49 203q-22 80 -58 155q-4 9 -4 18q0 16 14 29l424 345q10 7 20 7h3q12 -1 21 -10q7 -10 7 -20v-3q-1 -12 -11 -21l-392 -338q29 -69 50 -140q30 -104 50 -211q15 -75 23 -151q7 -61 7 -122
q0 -21 -1 -41q-1 -56 -19 -117.5t-69 -90.5q-23 -12 -50 -12q-45 0 -77.5 34t-54 79t-33.5 82q-29 88 -47 179q-20 102 -33 204q-27 194 -27 389q0 699 95.5 965t302.5 266q36 0 68 -18q36 -23 50.5 -60.5t14.5 -77.5q0 -16 -11 -27.5t-27 -11.5t-27.5 9t-11.5 30
q0 17 -7.5 33t-29.5 16q-148 0 -186.5 -301.5t-38.5 -822.5q0 -190 26 -379q18 -154 57 -303q13 -49 31 -96q8 -21 18 -41z" />
    <glyph glyph-name="g" unicode="g" horiz-adv-x="1072" 
d="M771 499q88 53 197 109t200 98q7 3 13 3t11 -2q11 -4 17 -16q3 -6 3 -13q0 -5 -2 -10q-4 -12 -16 -17q-107 -51 -189 -98.5t-169 -103.5l-48 -30q16 -88 20 -177q2 -31 2 -63q0 -70 -9 -143q-12 -106 -53 -202.5t-120 -164.5q-58 -47 -126 -68.5t-142 -21.5
q-96 0 -164.5 63.5t-68.5 161.5q0 86 49 170.5t123 161.5t154.5 141t146.5 110q-7 48 -19 95q-22 92 -66 177q-18 -73 -52.5 -141t-90.5 -113t-141 -45q-60 0 -103.5 28.5t-72 74.5t-42 100t-13.5 106q0 99 29.5 188.5t97 145t181.5 56.5h3q92 0 160 -62q47 -45 62 -110
q1 -4 1 -8q0 -11 -7 -20q-8 -13 -24 -17q-4 -1 -8 -1q-11 0 -21 7q-13 8 -17 24q-9 41 -39 70q-27 22 -60 22q-32 0 -63 -18q-41 -30 -63.5 -77t-31 -100t-8.5 -100q0 -41 11 -85t32 -80q23 -38 63 -38q33 0 56 27q43 51 67 121.5t36 135.5q-1 4 -1 8q0 6 2 12q8 20 29 25
q27 6 54 6q29 0 58 -7q15 -4 31 -12t26 -20q83 -120 115 -263zM612 301q-56 -39 -125 -95.5t-133.5 -123.5t-107 -138.5t-42.5 -139.5q0 -66 46 -107t110 -41q72 0 120 43.5t76.5 112t42.5 147.5t17 153q2 37 2 69q0 31 -2 57q-1 32 -4 63z" />
    <glyph glyph-name="h" unicode="h" horiz-adv-x="874" 
d="M956 705q6 11 18 15q4 2 9 2q7 0 14 -4q12 -6 16 -18q1 -4 1 -8q0 -7 -3 -15l-45 -89q-63 -129 -133.5 -257t-155.5 -236q-17 -23 -41.5 -48.5t-53.5 -45t-59 -19.5q-13 0 -25 5q-38 18 -49.5 62t-11.5 81q0 61 6 122.5t15 122.5q1 13 3 27q7 43 12 87t5 87q-1 21 -9 21
q-13 0 -29 -21q-8 -12 -15 -25q-38 -62 -66 -130q-38 -93 -66 -189l-25.5 -92.5t-40.5 -56.5q-15 0 -30 4q-54 15 -90 58q-44 49 -57 113q-31 186 -44 374q-5 76 -6 153v18q0 80 8 159q8 104 45 212t124 173q73 47 159 47q80 0 120 -51.5t40 -127.5q0 -89 -45 -163.5
t-114 -131t-145 -92.5q0 -71 3 -141q10 -192 40 -383q24 74 53 146q16 39 40.5 87.5t57 93.5t73 75t88.5 30q45 0 72 -23.5t39 -60t12 -76.5q0 -47 -5.5 -93.5t-12.5 -93.5q-1 -12 -3 -25q-17 -111 -18 -170q1 -18 4 -18q9 0 24 21q167 243 297 508zM196 917q55 31 106 75
t84 100.5t33 122.5q0 24 -6 49q-11 28 -39 28q-24 0 -48 -15q-70 -61 -97.5 -164.5t-32.5 -195.5z" />
    <glyph glyph-name="i" unicode="i" horiz-adv-x="505" 
d="M644 678q-38 -142 -83 -282.5t-109 -273.5q-42 -92 -106 -171q-16 -20 -36 -36q-36 -32 -83 -32h-6q-60 9 -99 67t-61 130t-31 124q-26 142 -29 287q-1 37 -1 73q0 125 13 249q2 15 13 24.5t25 9.5q49 0 98 -18q12 -6 23 -13q29 -18 29 -51q-10 -98 -10 -196q0 -24 1 -49
q2 -127 20 -251q4 -26 10 -51q8 -42 18 -83q6 -24 13 -47q7 -21 15 -41q6 -15 15 -27q1 -3 4 -5.5t6 -2.5q1 0 2.5 0.5t2.5 1.5l2 2q7 7 13 15q17 23 30 49q22 37 41 76q124 259 201 538q4 13 14 19q7 4 16 4q4 0 8 -1q12 -4 18 -15q4 -7 4 -15q0 -4 -1 -8zM262 1109
q0 -25 -5.5 -61.5t-21.5 -65t-45 -28.5q-26 0 -63.5 3.5t-67 18t-29.5 48.5q0 26 6.5 60.5t24.5 59.5t51 25q23 0 58.5 -3t63.5 -16t28 -41z" />
    <glyph glyph-name="j" unicode="j" horiz-adv-x="594" 
d="M-6 1076q87 0 118 -39q23 -25 30.5 -65.5t7.5 -92.5q0 -18 -14.5 -26t-52.5 -8q-88 0 -117 37q-25 32 -25 108q0 18 3.5 38t14.5 34t35 14zM630 605q-153 -135 -290 -287l-20 -21q10 -34 18 -68q10 -39 16.5 -79.5t6.5 -80.5q0 -217 -154 -387q-33 -36 -77.5 -69.5
t-95.5 -55.5t-101 -22q-52 0 -86.5 30t-34.5 84q0 64 36 142.5t89 158.5t109.5 150l99.5 120q-21 84 -50 166q-42 121 -89 241l-22 58q-3 7 -3 14q0 12 7 22q12 17 31 17q23 0 57.5 -3.5t64.5 -15t40 -35.5q2 -4 4 -9q52 -132 98 -265l10 -29q56 58 144 137l153 134
q45 39 95 74q8 5 16 5q3 0 7 -1q12 -2 19 -13q6 -7 6 -16q0 -3 -1 -7q-2 -12 -13 -19q-46 -33 -90 -70zM165 124q-66 -78 -125 -161q-46 -62 -84 -129q-34 -57 -56 -120q-4 -12 -5 -29v-5q0 -13 9 -21q8 -5 17 -5q12 0 24 5.5t21 12.5q58 43 102 100q101 135 101 297
q0 27 -4 55z" />
    <glyph glyph-name="k" unicode="k" horiz-adv-x="866" 
d="M207 406l293 250q12 9 25 9h3q15 -2 26 -14q9 -11 9 -25v-3q-1 -15 -13 -26l-245 -209l25 -27l22 -24q51 -56 107 -108q18 -17 49.5 -42.5t65 -46t57.5 -20.5q44 0 84.5 43.5t76 111.5t65 144t51 143.5l34.5 109.5q2 8 4 15q4 13 15 19q7 3 14 3q5 0 9 -1q13 -4 18 -15
q4 -7 4 -15q0 -4 -1 -8q-8 -25 -16 -55q-18 -64 -43 -141.5t-57.5 -155t-75.5 -142t-98 -104.5t-124 -40q-71 0 -137.5 34t-124 85.5t-103.5 105.5q20 -125 45 -249q1 -6 1 -13q-3 -15 -13.5 -24t-25.5 -9q-54 0 -104 24q-20 9 -37 25t-22 37q-49 241 -66 486q-4 55 -4 116
q0 54 3 113q6 126 43 241t122 185q43 33 92.5 48t102.5 15q82 0 121.5 -51t39.5 -128q0 -67 -32 -125.5t-82 -108.5t-107.5 -90.5t-110.5 -70.5q0 -136 15 -272zM196 769q53 33 110.5 79.5t98 103t42.5 120.5q-1 20 -7 46.5t-24 37.5q-7 4 -15 4q-54 0 -91.5 -43.5
t-61.5 -107t-36.5 -128.5t-15.5 -112z" />
    <glyph glyph-name="l" unicode="l" horiz-adv-x="524" 
d="M193 745q-1 -17 -1 -33q0 -70 5 -140q5 -95 15 -189q7 -69 19 -138q10 -59 27 -117q2 -8 7 -15t13 -7q12 0 25 10.5t21 19.5q81 103 164 265t116 295q3 13 13 20q8 5 17 5l6 -1q13 -3 20 -14q5 -7 5 -17q0 -3 -1 -6q-62 -287 -241 -542q-24 -35 -60 -77t-80 -73.5
t-90 -31.5q-80 0 -136.5 175.5t-56.5 457.5q1 436 102 652.5t262 216.5q43 0 82 -22q41 -26 59.5 -68t18.5 -89q0 -97 -53.5 -198t-129 -189t-148.5 -150zM197 852l35 36q47 48 96.5 113.5t84 139t34.5 141.5q0 29 -11 58q-10 18 -29 18q-13 0 -27 -5t-24 -13
q-57 -51 -90.5 -136t-49 -179t-19.5 -173z" />
    <glyph glyph-name="m" unicode="m" horiz-adv-x="1240" 
d="M1320 706q5 12 15 18q7 3 15 3q4 0 9 -1q12 -5 18 -15q3 -7 3 -15q0 -4 -1 -9q-14 -43 -113.5 -294t-160.5 -348q-19 -30 -44 -59.5t-57 -49.5t-70 -20q-23 0 -44 10q-39 24 -53.5 71.5t-16.5 90.5q-3 55 -3 109q0 45 2 90q4 81 4 122q0 52 -3 103q-1 20 -3.5 36t-8.5 16
t-10.5 -4t-6.5 -8q-45 -77 -73 -160q-28 -77 -45 -157v-2q-4 -14 -14 -21.5t-24 -8.5l-9 1l-9 -1q-16 0 -32 1h-3q-48 0 -84 32q-21 23 -21 54v5q2 45 2 91q0 54 -3 108q-4 59 -15 116q-1 6 -4 10.5t-9 4.5t-11 -6t-7 -11q-38 -96 -62 -197q-25 -102 -45 -206
q-5 -30 -11 -61q-7 -40 -15 -79v-2q-3 -13 -13.5 -21t-24.5 -8q-46 0 -92 8q-23 4 -45 14.5t-24 36.5q-8 167 -28 332q-10 91 -28 181q-7 32 -15 63q-9 32 -23 63q-4 9 -4 17q0 10 6 20q12 18 32 18q23 0 60.5 -3.5t69.5 -15.5t42 -37q23 -66 35 -135q15 -80 24 -161
q5 -37 8 -74q8 35 17 69q15 60 33 119q20 64 48 124q19 44 53 84.5t86 43.5q22 0 43 -9q46 -21 70.5 -73t35 -112t12.5 -106q0 -3 1 -7q20 47 50.5 100t71 91.5t88.5 38.5q29 0 55 -14q40 -25 58 -80.5t18 -161.5q0 -61 -4 -151q-5 -90 -5 -123q1 -51 6.5 -74.5t17.5 -23.5
q55 0 288 610z" />
    <glyph glyph-name="n" unicode="n" horiz-adv-x="929" 
d="M262 454q14 41 31 81q46 119 114 227q15 24 37 50.5t49 45.5t57 19q19 0 35 -8q55 -29 69 -101.5t15 -173.5q0 -67 -5 -133q-4 -79 -14.5 -191t-11.5 -170q0 -42 7.5 -92t23.5 -50q51 1 191 359.5t150 380.5q6 12 18 16q4 2 9 2q7 0 14 -4q12 -6 16 -17q2 -5 2 -10
q0 -7 -4 -14q-10 -21 -140.5 -358.5t-205 -422.5t-144.5 -85q-21 0 -40 8q-55 31 -71.5 103t-16.5 131q-1 38 -1 75q0 51 2 101q5 38 15.5 155.5t12.5 230.5q0 38 -2 75q-1 12 -8 12q-10 0 -18 -13q-48 -85 -84 -177q-30 -72 -54 -147q-20 -61 -33 -124q0 -1 -1 -2
q-3 -14 -13.5 -21.5t-23.5 -8.5q-50 0 -97 17q-20 7 -38 21t-20 37q-5 101 -18 201q-7 57 -19 114q-7 33 -18 65q-7 25 -22 47q-7 10 -7 22q0 6 2 13q7 19 26 25q31 7 63 7q38 0 73 -17q11 -6 22 -15.5t17 -20.5q22 -50 33 -104q13 -63 21 -126q2 -17 5 -35z" />
    <glyph glyph-name="o" unicode="o" horiz-adv-x="891" 
d="M502 389q-37 -5 -75 -5q-61 0 -103 31.5t-63 81.5t-21 106q0 85 48.5 144t137.5 59q43 0 79 -25q36 -26 55 -69t26.5 -91.5t7.5 -89.5q0 -21 -1 -43q85 26 135 50t126 81q68 51 124 109q10 9 22 9t22 -8q9 -10 9 -22t-8 -22q-56 -57 -122 -107q-74 -58 -148 -102
t-170 -70q-14 -100 -63.5 -199.5t-145.5 -141.5q-36 -13 -74 -13q-46 0 -89 17q-53 23 -92.5 65t-64.5 94q-54 117 -54 240q0 109 44 203t126.5 151.5t198.5 57.5h1q16 -4 24 -17q7 -10 7 -21q0 -4 -1 -8q-3 -13 -13 -21.5t-24 -8.5q-58 0 -92 -36t-51 -90t-22.5 -111.5
t-5.5 -98.5q0 -32 7 -83.5t24 -103.5t46 -88t72 -36q37 0 66 28t45 60q35 68 50 144zM514 469q3 31 3 62q0 19 -3 51.5t-12 65t-25.5 55t-43.5 22.5q-30 0 -47 -20.5t-24 -49t-7 -52.5q0 -29 9.5 -62t30.5 -56t57 -23q31 0 62 7z" />
    <glyph glyph-name="p" unicode="p" horiz-adv-x="810" 
d="M615 427q66 32 128.5 79t104.5 108q25 35 43 77q6 12 17 16q6 3 12 3t12 -3q11 -6 16 -18q2 -5 2 -10q0 -6 -3 -13q-18 -41 -41 -77q-53 -86 -116.5 -142t-173.5 -104q-50 -22 -101 -39q-23 -20 -50 -33q-72 -31 -151 -31h-10q-18 0 -30 14q-4 -27 -7 -50
q-19 -182 -22 -364v-27q-1 -48 -3 -96v-4q-1 -14 -3 -29q-2 -19 -12 -34t-32 -15h-9q-45 5 -73 43.5t-43.5 87.5t-21.5 87q-19 97 -28 196q-10 111 -14 222q-6 176 -6 352q0 69 1 137v16l1 37l-1 36q0 16 11 28q12 11 28 11q30 0 60 -7q28 -5 55 -19t37 -43q2 -7 2 -13
q0 -5 -1 -9q-22 -216 -24 -433q-1 -56 -1 -113q0 -127 6 -254q4 108 17 216q6 57 19 127.5t35.5 142t59 132t90 97.5t127.5 37q65 0 104.5 -41.5t39.5 -105.5q0 -46 -14 -90.5t-37 -84.5zM283 311q90 56 146 147q19 32 32 69.5t13 74.5q0 18 -7 35q-6 11 -17 11t-22 -7
q-61 -50 -95.5 -142.5t-49.5 -187.5z" />
    <glyph glyph-name="q" unicode="q" horiz-adv-x="1042" 
d="M575 586q-31 -57 -74.5 -126.5t-96.5 -133t-111 -105.5t-116 -42q-15 0 -29 3q-42 12 -69.5 44t-43.5 71q-19 45 -27 95.5t-8 99.5q0 90 24 176t72.5 154t123 108.5t175.5 40.5q59 0 118 -13.5t115 -35.5q11 27 37 27q45 0 91 -11q18 -4 35 -12q29 -15 29 -45v-6
q-21 -114 -37 -230q-23 -169 -37 -339q-8 -97 -11 -195l87 145q118 191 247 365q28 40 59 77q9 10 21 11h3q11 0 20 -7q9 -9 10 -21v-3q0 -10 -7 -20q-30 -35 -57 -73q-85 -123 -176 -279l-55 -90l-108 -181q42 -42 64.5 -105t22.5 -120q0 -62 -29.5 -112t-98.5 -58
q-6 -1 -12 -1q-15 0 -29 4q-47 12 -77 48t-46 80q-23 64 -31.5 135.5t-8.5 139.5q1 133 12 267q11 136 29 273zM611 847q-67 29 -138 29q-70 0 -130 -36q-74 -52 -107 -137q-20 -50 -28.5 -104t-8.5 -107q0 -31 3 -62q2 -28 8 -55q4 -16 12.5 -34.5t24.5 -25.5q5 -2 10 -2
q21 0 45.5 19.5t45 44t32.5 40.5q44 61 82 126q51 85 94 174q31 64 55 130zM736 -31q1 -53 10 -116.5t31 -105.5q7 14 9.5 31t2.5 32q0 34 -9 67q-12 49 -44 92z" />
    <glyph glyph-name="r" unicode="r" horiz-adv-x="776" 
d="M348 636q47 -9 93 -9q18 0 30 -15q9 -11 9 -24q0 -4 -1 -8q-38 -173 -56 -349q-8 -74 -8 -147q0 -23 1 -45q2 -35 6 -69q3 -21 7 -42q3 -18 9 -36q2 -4 5 -11.5t7.5 -13t10.5 -5.5q8 0 17 11t15 20l3 6q16 21 30 43q74 118 145 283t118 300l32 90l8 24q2 5 3 9
q12 35 25 69q5 12 16 17q6 3 13 3q5 0 11 -2q12 -5 17 -16q3 -5 3 -11t-3 -12l-24 -67q-1 -5 -3 -10l-8 -24l-32 -90l-34 -98q-42 -128 -93.5 -255.5t-128.5 -250.5q-20 -33 -49 -69t-65 -62t-77 -26q-42 0 -79 22q-47 31 -70 86t-29.5 118.5t-6.5 113.5q0 77 8 154
q18 169 53 335q-47 12 -91 31q-65 26 -115 73q-70 65 -70 155q0 105 74 260q11 24 36 24q44 0 89 -14q18 -5 34 -14q15 -9 22 -24q-94 -150 -100 -258q0 -119 193 -170z" />
    <glyph glyph-name="s" unicode="s" horiz-adv-x="710" 
d="M224 185l-34 43l-59 76q-34 45 -64 94.5t-48.5 104t-18.5 112.5q0 64 26 125t76 100.5t121 39.5q67 0 122 -45q51 -51 51 -117q0 -20 -5 -42q-3 -15 -16 -24q-10 -6 -23 -6h-6q-16 4 -24 17q-7 9 -7 20q0 4 1 8q3 12 3 24q0 28 -16 52q-10 12 -24 12q-16 0 -29 -12
q-29 -29 -43.5 -70.5t-14.5 -81.5q0 -37 11 -73q22 -62 62 -114q39 -50 81 -97q2 -2 3 -4q128 129 270 248q15 12 29 25l96 80q2 1 4 3q27 22 56 40q7 4 15 4q4 0 8 -1q12 -3 19 -14q4 -8 4 -16q0 -3 -1 -7q-3 -12 -15 -19q-23 -15 -46 -34q-3 -2 -6 -5l-94 -78
q-143 -126 -273 -268q-8 -8 -15 -16q44 -52 76 -111t32 -129q0 -123 -78.5 -191.5t-197.5 -68.5q-48 0 -88 29q-29 22 -43.5 53.5t-14.5 67.5q0 43 23.5 92t55 94.5t59.5 79.5zM271 121q-13 -16 -25 -33q-24 -32 -53.5 -82t-29.5 -87q0 -15 5.5 -27t19.5 -20q22 -9 44 -9
q37 0 57.5 19.5t28.5 50t8 61.5q0 32 -17.5 66t-37.5 61z" />
    <glyph glyph-name="t" unicode="t" horiz-adv-x="687" 
d="M42 858l-154 8q-17 1 -27 12.5t-10 27.5q1 16 13 26q10 10 25 10h3l175 -8q41 112 113 208q12 15 30 15q22 0 45.5 -2.5t44.5 -9.5q21 -8 34 -24q10 -12 10 -27q0 -6 -1 -12q-2 -8 -7 -14q-45 -68 -76 -144l159 -8q16 -1 26 -12.5t10 -27.5q-1 -17 -12.5 -27t-27.5 -10
l-181 9q-42 -142 -42 -287q0 -72 11.5 -147.5t37.5 -144.5q14 -36 40.5 -70t65.5 -44q8 -2 17 -2q26 0 49 13.5t41 31.5q80 80 139.5 172t108.5 196q35 75 65 151q5 12 16 17q6 3 13 3q5 0 11 -2q12 -5 17 -16q3 -5 3 -11t-3 -12q-30 -80 -67 -156q-31 -68 -77.5 -153.5
t-106 -165.5t-130 -133t-149.5 -53q-32 0 -63 10q-65 23 -107.5 76t-66.5 115q-31 76 -44 160t-13 165q0 150 42 297z" />
    <glyph glyph-name="u" unicode="u" horiz-adv-x="1076" 
d="M586 940l4 32q2 15 13 24t25 9q44 0 89 -9q16 -4 31 -10q14 -6 23 -18q7 -10 7 -23v-6q-16 -122 -17 -246q0 -31 3 -62q3 -46 10 -92q2 -18 10 -52.5t23 -64.5t38 -30q32 0 80 40.5t97.5 95t87 102.5t50.5 66q8 11 20 13h5q9 0 18 -5q11 -8 13 -20v-5q0 -9 -5 -18
l-82.5 -112.5t-104.5 -121t-120 -97t-127 -38.5q-29 0 -56 9q-79 34 -111 121.5t-37 175.5q-23 -63 -56 -130t-78 -125t-102.5 -95t-129.5 -37q-44 0 -82 22q-55 34 -82 98.5t-35 138.5t-8 131v27q3 103 20 205q6 37 14 73q8 38 22 75q12 24 36 24q43 0 86 -12q17 -4 33 -13
q24 -15 24 -41q0 -6 -1 -12q-18 -65 -27 -131q-13 -85 -15 -170q0 -33 2 -66q2 -46 8 -92q2 -21 10.5 -58t24.5 -68.5t42 -31.5q27 0 54.5 27.5t50.5 60.5t35 54q27 47 50 96q17 35 31 72q34 95 58 193q16 63 28 127z" />
    <glyph glyph-name="v" unicode="v" horiz-adv-x="920" 
d="M614 620q44 -8 90 -8q59 0 119 14q105 26 187 94q9 7 19 7h3q12 -1 21 -11q7 -9 7 -19v-3q-1 -12 -11 -21q-88 -73 -219 -110q-93 -26 -180 -26q-35 0 -69 4l-16 -35q-62 -129 -146 -246q-30 -43 -66 -81q-14 -14 -32 -27t-39 -13q-33 0 -59.5 26t-45.5 60t-31 62
q-57 137 -90 283q-27 112 -43 226q-7 42 -10 84q-3 28 -3 56q0 17 1 34q1 15 12 25t26 10h24q46 -4 90 -18q21 -7 40.5 -20t21.5 -38q3 -76 16 -152q15 -96 38 -189q23 -96 54 -189q16 -46 36 -91q3 3 5 7q75 107 132 225q4 9 9 19q-98 32 -153.5 103t-55.5 176
q0 51 22 105.5t63.5 92t99.5 37.5q60 0 101 -35t61.5 -88t20.5 -106q0 -46 -10 -92.5t-25 -90.5q-7 -21 -15 -41zM540 642q8 20 15 40q13 38 22.5 79.5t9.5 82.5q0 24 -8 57t-26.5 58.5t-49.5 25.5q-12 0 -23 -5q-34 -17 -51.5 -62t-17.5 -80q0 -140 129 -196z" />
    <glyph glyph-name="w" unicode="w" horiz-adv-x="1134" 
d="M738 73q27 36 46 84t31 90q11 43 19 86q-19 -2 -39 -2q-85 0 -150 44.5t-95 125.5q-18 48 -18 99q0 19 2 38q9 71 59 122q53 47 122 47q46 0 84 -24t64 -61q36 -53 50 -117t14 -126q0 -21 -2 -43q93 42 164 112t129 158q7 10 19 13h5q9 0 18 -5q11 -7 13 -19q1 -4 1 -7
q0 -8 -5 -16q-62 -95 -153 -188.5t-201 -133.5q-10 -62 -26 -123q-10 -38 -27.5 -84.5t-43.5 -89t-61.5 -70.5t-83.5 -28q-43 0 -78.5 30.5t-59.5 64.5q-62 87 -106 185q-45 95 -82 193q-6 14 -11 28l-28 -57q-1 -1 -1 -2l-4 -8l-47 -89q-16 -31 -40 -61t-59 -40
q-11 -2 -21 -2q-15 0 -30 5q-48 18 -70.5 72t-29 117.5t-6.5 106.5q0 121 21 242q21 124 65 241q11 24 36 24q44 0 89 -14q18 -5 34 -14q15 -9 22 -24q4 -8 4 -17q0 -7 -2 -14q-35 -103 -52 -210t-17 -214q0 -50 5 -99l4 -25l25 49q2 4 4 9q1 1 2 3l68 134q12 21 35 21h7
q37 0 88 -10q57 -11 75 -48q44 -125 99 -246q29 -64 64 -125q16 -27 34 -53q13 -18 28 -35zM846 412q4 33 4 67q0 49 -10.5 102.5t-39.5 96.5q-13 17 -31.5 32.5t-41.5 15.5q-18 0 -33 -9q-36 -28 -42 -85q-2 -20 -2 -38q0 -33 8 -60q17 -54 56 -90.5t97 -36.5q8 0 18 2
q1 0 2 1q7 1 15 2z" />
    <glyph glyph-name="x" unicode="x" horiz-adv-x="890" 
d="M395 346q17 -35 35 -68q34 -63 74 -121q26 -36 57 -68q15 -16 34 -16q22 0 38 19q79 83 151 215t119 241q8 17 15 34l53 116q6 11 18 15q5 2 10 2q6 0 13 -3q12 -6 16 -18q2 -5 2 -10q0 -6 -3 -13l-53 -115l-15 -33l-30 -70q-41 -97 -88.5 -192t-110.5 -175
q-24 -31 -54 -59t-65.5 -47t-76.5 -19q-42 0 -78.5 22.5t-64.5 51.5q-36 37 -66 80q-30 42 -56 87l-90 -101q-16 -19 -33 -37l-79 -89q-11 -12 -26 -14h-3q-13 0 -25 9q-12 11 -13 27v3q0 13 9 25l80 90l33 37l108 122q-9 17 -17 34q-53 109 -97 222q-31 82 -59 164
q-2 6 -2 12q0 10 5 19q8 14 24 19q24 6 48 6q31 0 61 -10q18 -6 36 -18t25 -29q47 -138 105 -271l122 145q33 40 63 82l2 2q18 24 32 50q8 14 22 19q6 2 13 2q8 0 17 -4q14 -7 19 -22q2 -6 2 -12q0 -8 -4 -17q-18 -33 -41 -63q-31 -43 -65 -85z" />
    <glyph glyph-name="y" unicode="y" horiz-adv-x="1147" 
d="M612 634q-9 -24 -19 -48q-24 -61 -61.5 -126t-87 -121t-111 -91.5t-134.5 -35.5q-39 0 -74 18q-80 50 -105 169q-20 94 -20 194q0 27 1 55q7 130 23 213q3 14 13.5 22.5t24.5 8.5q24 0 50 -2.5t49 -11.5q17 -6 31 -17q18 -16 18 -39v-5q-15 -96 -18 -193v-26
q0 -54 6 -116q9 -79 36 -136q12 -28 40 -28q20 0 39.5 10t34.5 23q58 51 102 122t72 142q31 75 50 154v4q0 11 5 20q8 15 25 19q19 4 39 4q7 0 15 -1q30 -2 60 -9q16 -4 30.5 -11t21.5 -23q38 -113 55 -231q10 -65 16 -131q194 156 401 294q9 5 18 5h5q12 -3 19 -13
q5 -9 5 -18v-5q-3 -12 -13 -20q-199 -138 -372 -290l-57 -48q1 -42 1 -84q0 -120 -22 -238q-42 -244 -172 -454q-53 -84 -131.5 -152t-179.5 -85q-22 -4 -43 -4q-74 0 -136 53q-36 32 -52.5 75.5t-16.5 90.5q0 57 28.5 119.5t68 119.5t75.5 101q83 100 175 192
q99 100 204 194q5 5 10 9q0 32 -1 63q-5 111 -22 220q-8 50 -19 99zM651 146q-80 -73 -157 -151q-89 -89 -169 -186q-29 -36 -65 -86.5t-63 -105t-27 -100.5q0 -40 18 -78q10 -16 25 -22.5t33 -6.5q38 0 73 25q127 101 202 247q114 218 130 464z" />
    <glyph glyph-name="z" unicode="z" horiz-adv-x="819" 
d="M544 138q45 -34 80 -79q94 -123 94 -269q0 -78 -41 -148q-40 -61 -103 -91t-134 -30q-80 0 -125.5 45t-45.5 125q0 46 13.5 93.5t30.5 89.5q23 55 50 107q28 53 59 105q-48 26 -101 38.5t-107 12.5q-17 0 -28 12q-10 11 -10 25v5q8 70 27 138q25 93 62 181q26 62 62 119
q-9 0 -17 1q-72 5 -140 27q-60 20 -105 59.5t-64 101.5q-1 5 -1 10q0 10 5 19q7 14 22 20q9 4 19 5q26 5 51 5q16 0 27.5 -11t11.5 -27t6 -30q22 -36 71.5 -56t89.5 -28q105 -21 213 -21q24 -1 35 -23q3 -8 3 -16q0 -13 -9 -24q-58 -74 -94 -162q-35 -83 -59 -170
q-11 -43 -19 -86q12 -2 24 -5q43 -9 82 -28q190 286 426 547q9 9 21 10h3q10 0 19 -7q10 -9 10.5 -21.5t-7.5 -22.5q-228 -261 -407 -546zM485 41q-7 -11 -13 -22q-51 -85 -89 -177q-14 -35 -25.5 -74.5t-11.5 -76.5q0 -32 17 -60t53 -28q92 0 135.5 48.5t43.5 138.5
q0 80 -36 155q-28 55 -74 96z" />
    <glyph glyph-name="braceleft" unicode="{" horiz-adv-x="648" 
d="M0 540q2 48 56 48q123 7 123 222q0 64 -22.5 201.5t-24.5 214.5q4 243 329 393q14 7 20 7q13 0 20 -9t7 -25q0 -36 -11 -41q-168 -75 -177 -313q0 -97 32 -222t32 -202q0 -134 -75 -230q-24 -30 -57 -50q33 -20 57 -50q75 -96 75 -230q0 -77 -31.5 -202t-31.5 -222
q6 -238 176 -313q11 -5 11 -41q0 -16 -7 -25t-20 -9q-6 0 -20 7q-324 151 -329 393q3 78 25 215t22 201q0 215 -123 222q-55 0 -56 60z" />
    <glyph glyph-name="bar" unicode="|" horiz-adv-x="430" 
d="M208 1856q52 -13 52 -52v-2456q-13 -52 -52 -52h-12q-48 0 -56 76v2404q8 80 52 80h16z" />
    <glyph glyph-name="braceright" unicode="}" horiz-adv-x="648" 
d="M508 540q-1 -60 -56 -60q-123 -7 -123 -222q0 -64 22 -201t25 -215q-5 -242 -329 -393q-14 -7 -20 -7q-13 0 -20 9t-7 25q0 36 11 41q170 75 176 313q0 97 -31.5 222t-31.5 202q0 134 75 230q24 30 57 50q-33 20 -57 50q-75 96 -75 230q0 77 32 202t32 222
q-9 238 -177 313q-11 5 -11 41q0 16 7 25t20 9q6 0 20 -7q325 -150 329 -393q-2 -77 -24.5 -214.5t-22.5 -201.5q0 -215 123 -222q54 0 56 -48z" />
    <glyph glyph-name="asciitilde" unicode="~" horiz-adv-x="1186" 
d="M974 832q32 0 52 -12.5t20 -39.5q0 -26 -21 -85.5t-100 -134.5q-79 -76 -167 -76q-155 6 -275.5 94t-166.5 90q-61 -1 -116 -85q-57 -87 -98 -87h-20q-52 13 -52 52v12q0 18 94.5 131.5t201.5 114.5q111 -1 242 -91.5t186 -90.5q32 0 62 17q74 37 98 115q21 76 60 76z
" />
    <glyph glyph-name="exclamdown" unicode="&#xa1;" horiz-adv-x="367" 
d="M39 358q2 25 14 33.5t30 8.5q29 0 45.5 -5t43.5 -19q15 -7 27.5 -19t17.5 -28l1 -90q37 -818 38 -1190v-2q0 -98 -129 -98q-115 0 -115 110q8 588 27 1299zM102 506q-57 0 -74.5 39t-17.5 93q3 112 104 112q126 0 132 -92q0 -98 -38 -124.5t-106 -27.5z" />
    <glyph glyph-name="cent" unicode="&#xa2;" horiz-adv-x="679" 
d="M222 877v167q0 43 24 60h32q6 0 24 -24v-160q0 -20 2 -57q25 -10 47 -28q51 -51 51 -117q0 -20 -5 -42q-4 -15 -17 -24q-10 -6 -22 -6h-6q-16 4 -25 17q-6 10 -6 22v6q2 13 2 25q0 8 -1 16q-1 18 -9 33.5t-27 15.5q-11 0 -21 -4q-34 -17 -50 -60.5t-20 -78.5
q-4 -28 -4 -57q0 -42 6 -104.5t23.5 -124t52 -103.5t91.5 -42q58 0 120.5 54.5t119 134t97.5 158.5t58 133q3 12 14 18q7 4 15 4q4 0 8 -1q13 -4 19 -14q4 -7 4 -16q0 -4 -1 -8q-31 -110 -108.5 -239t-184.5 -222q-104 -91 -221 -99v-302q0 -6 -24 -24h-32q-16 8 -24 24v309
q-49 11 -85 38q-59 43 -89 114t-40 153.5t-10 158.5q0 49 10.5 99.5t38.5 93.5q31 47 80 75q43 25 93 28z" />
    <glyph glyph-name="sterling" unicode="&#xa3;" horiz-adv-x="1352" 
d="M223 199q-52 -10 -94 -42q-44 -37 -44 -89q0 -30 17 -55t50 -25q29 0 44.5 27t22 60.5t6.5 56.5q0 33 -2 67zM343 692q8 -41 17 -81l23 -109q25 -112 40 -226q77 -23 147 -60l106 -55q75 -42 153 -78q47 -23 99 -40.5t104 -17.5q43 0 81 27q17 12 28 12q36 -1 37 -43
q0 -17 -21 -35q-12 -9 -25 -17q-64 -40 -154 -40q-71 0 -141 18q-86 21 -166 59q-81 38 -159 81l-79 42q0 -52 -15.5 -100.5t-51.5 -86.5q-65 -64 -151 -64q-55 0 -104 23.5t-80 66t-31 100.5q0 90 75 153q61 49 139 62q-14 102 -36 202l-23 109l-21 98h-118q-52 13 -52 52
v12q0 48 76 56h71l-14 78q-26 144 -26 290q0 261 129.5 404.5t396.5 143.5q78 0 153.5 -23t137.5 -72q77 -62 113.5 -147t36.5 -182q0 -74 -18 -165t-70 -149q-13 -13 -30 -13q-16 0 -30 12q-12 13 -12 30v2q0 15 12 28q38 44 51 122.5t13 132.5q0 77 -28 145t-90 118
q-97 71 -223 71q-133 0 -206 -68t-100.5 -170.5t-27.5 -219.5q0 -139 24 -277l16 -91h421q88 0 88 -56v-12q-13 -52 -52 -52h-433z" />
    <glyph glyph-name="currency" unicode="&#xa4;" horiz-adv-x="1214" 
d="M306 932q104 80 241 80q129 0 229 -72l183 182q23 14 41 14t32 -14l9 -8q13 -14 13 -32q0 -26 -28 -62l-164 -164q82 -104 82 -241t-81 -241l180 -180q14 -23 14 -41t-14 -32l-8 -9q-14 -14 -32 -14q-26 0 -61 28l-165 165q-100 -73 -230 -73q-138 0 -242 81l-170 -170
q-39 -32 -65 -32q-16 0 -28 12l-11 12q-14 23 -14 41q0 19 14 32l191 191q-73 100 -73 230t73 231l-171 171q-32 39 -32 66q0 16 12 28l11 11q23 14 42 14q18 0 32 -14zM547 893q-116 0 -197 -81.5t-81 -196.5t81 -196.5t197 -81.5q115 0 196 81.5t81 196.5t-81 196.5
t-196 81.5z" />
    <glyph glyph-name="yen" unicode="&#xa5;" horiz-adv-x="1372" 
d="M795 656l50 189q46 172 98 342q47 152 107 300q14 32 43 34q17 0 30 -6.5t14 -26.5q0 -14 -9 -34q-59 -144 -104 -292q-52 -169 -98 -339l-44 -167h262q88 0 88 -56v-12q-13 -52 -52 -52h-329q-9 -32 -17 -65l-23 -91h293q88 0 88 -56v-12q-13 -52 -52 -52h-347
q-3 -70 -3 -147q0 -139 6 -321q-12 -7 -28 -7q-30 0 -72.5 6.5t-74.5 26t-38 58.5q-4 49 -4 97q0 19 1 38v4l4 147q1 24 1 49l2 49h-339q-52 13 -52 52v12q0 48 76 56h318v74q0 41 -1 82h-353q-52 13 -52 52v12q0 48 76 56h327l-2 42q-4 111 -22 253.5t-61.5 274
t-126.5 212.5q-44 38 -102 38h-6q-59 0 -97 -45q-46 -66 -65.5 -153t-19.5 -166q-1 -18 -13 -30t-30 -12q-18 1 -30 13t-12 30q1 79 18.5 167t59.5 164t115 119q58 32 123 32q9 0 18 -1q87 -4 162 -49q90 -57 143.5 -150t81.5 -194q36 -127 52 -259q14 -120 19 -240l2 -46h1
z" />
    <glyph glyph-name="brokenbar" unicode="&#xa6;" horiz-adv-x="430" 
d="M208 1626q52 -4 52 -18v-845q-13 -18 -52 -18h-12q-48 0 -56 26v828q8 27 52 27h16zM208 579q52 -5 52 -19v-906q-13 -19 -52 -19h-12q-48 0 -56 28v887q8 29 52 29h16z" />
    <glyph glyph-name="section" unicode="&#xa7;" horiz-adv-x="948" 
d="M542 32q196 -203 196 -380q0 -64 -26 -125t-76 -100.5t-121 -39.5q-67 0 -122 45q-50 50 -50 117q0 20 4 42q3 15 16 24q11 6 23 6h6q16 -4 24 -17q7 -9 7 -20q0 -4 -1 -8q-3 -13 -3 -24q0 -28 16 -52q10 -12 24 -12q16 0 29 12q29 29 43.5 70.5t14.5 81.5
q0 146 -203 331t-203 379q0 256 356 425q-196 203 -196 380q0 64 26 125t76 100.5t121 39.5q67 0 122 -45q50 -50 50 -117q0 -20 -4 -42q-3 -15 -16 -24q-11 -6 -23 -6h-6q-16 4 -24 17q-7 9 -7 20q0 4 1 8q3 13 3 24q0 28 -16 52q-10 12 -24 12q-16 0 -29 -12
q-29 -29 -43.5 -70.5t-14.5 -81.5q0 -146 203 -331t203 -379q0 -256 -356 -425zM472 106q243 135 243 311q0 126 -149 296q-243 -135 -243 -311q0 -126 149 -296z" />
    <glyph glyph-name="dieresis" unicode="&#xa8;" horiz-adv-x="492" 
d="M109 1273q44 0 76 -32t32 -77t-32 -77t-76 -32q-45 0 -77 32t-32 77t32 77t77 32zM384 1273q45 0 76.5 -32t31.5 -77q0 -44 -31.5 -76t-76.5 -32t-77 32t-32 76q0 45 32 77t77 32z" />
    <glyph glyph-name="copyright" unicode="&#xa9;" horiz-adv-x="1522" 
d="M432 868q0 174 83 270t211 96q64 0 117 -42q51 -51 51 -117q0 -20 -5 -42q-4 -15 -17 -24q-10 -6 -22 -6h-6q-16 4 -25 17q-6 10 -6 22v6q2 13 2 25q0 8 -1 16q-1 18 -15.5 33.5t-50.5 15.5q-45 0 -85 -62t-40 -208t52.5 -225t95.5 -79q39 0 52 15.5t14 33.5q0 13 -1 47
q0 12 6 22q12 17 31 17q12 0 22 -6q13 -9 17 -24q5 -22 5 -42q0 -66 -51 -117q-53 -42 -117 -42q-135 0 -226 105.5t-91 294.5zM691 1543q287 0 489 -202.5t202 -488.5t-202 -488.5t-489 -202.5q-286 0 -488.5 202.5t-202.5 488.5t202.5 488.5t488.5 202.5zM691 1450
q-247 0 -422 -175t-175 -423t175 -423t422 -175q248 0 423 175t175 423t-175 423t-423 175z" />
    <glyph glyph-name="ordfeminine" unicode="&#xaa;" horiz-adv-x="649" 
d="M370 1476q-8 -34 -22.5 -74.5t-39 -77.5t-62 -61t-94.5 -24q-33 0 -60.5 17t-47.5 47q-25 39 -34.5 82.5t-9.5 91.5t16 101.5t44 92.5q37 50 87 75t108 25q38 0 65 -8.5t58 -22.5q6 -2 11 -5q17 5 33 5q19 0 38 -7q13 -5 22.5 -16.5t9.5 -26.5q-1 -35 -1 -69v-23
q0 -54 4 -108q5 -56 17 -112q6 -28 21 -53q4 -6 10.5 -11.5t14.5 -5.5q13 0 25 12t20 23q41 57 80.5 134.5t66.5 143.5q4 8 12 11q3 2 6 2q4 0 9 -2q8 -5 10 -13q2 -4 2 -9q0 -4 -2 -9l-15 -38q-27 -67 -56 -129.5t-73 -125.5q-16 -22 -37 -45t-45.5 -39t-51.5 -16
q-38 0 -63 28t-40 66.5t-22 74.5q-10 49 -14 99zM364 1609q0 38 1 76q-13 6 -22 11q-10 5 -20 8.5t-27 3.5q-38 0 -72.5 -25.5t-56.5 -59.5q-18 -30 -29 -70.5t-11 -75.5q0 -33 5 -62.5t19 -58.5q14 -35 48 -39q42 3 72.5 48.5t51 105.5t32.5 107q5 19 9 31zM93 1011
q-11 2 -17.5 16t-6.5 33q0 20 8 32q7 13 17 13h2l440 -8q10 -1 17 -15t7 -34q-1 -21 -8.5 -33t-18.5 -12z" />
    <glyph glyph-name="guillemotleft" unicode="&#xab;" horiz-adv-x="1024" 
d="M0 412q0 60 50 104t132 99q116 78 165 106q29 17 51 17q32 0 50 -33q9 -16 9 -31q0 -33 -47 -61q-75 -43 -147 -90t-74 -83q1 -47 73.5 -106t147.5 -102q60 -36 60 -97q0 -44 -24 -67.5t-48 -24.5q-23 0 -51 16q-49 29 -173 127q-90 71 -132 114.5t-42 111.5zM414 412
q0 60 50 104t132 99q116 78 165 106q29 17 51 17q32 0 50 -33q9 -16 9 -31q0 -33 -47 -61q-75 -43 -147 -90t-74 -83q1 -47 73.5 -106t147.5 -102q60 -36 60 -97q0 -44 -24 -67.5t-48 -24.5q-23 0 -51 16q-49 29 -173 127q-90 71 -132 114.5t-42 111.5z" />
    <glyph glyph-name="logicalnot" unicode="&#xac;" horiz-adv-x="1147" 
d="M1035 304q-1 -58 -48 -58q-5 0 -11 1q-57 7 -57 57q-1 89 -1 393q-158 1 -384 3q-256 1 -466 3q-58 1 -58 48q0 5 1 11q7 57 57 57q138 1 410 2t480 1q79 0 79 -65z" />
    <glyph glyph-name="registered" unicode="&#xae;" horiz-adv-x="1522" 
d="M691 1543q287 0 489 -202.5t202 -488.5t-202 -488.5t-489 -202.5q-286 0 -488.5 202.5t-202.5 488.5t202.5 488.5t488.5 202.5zM691 1450q-247 0 -422 -175t-175 -423t175 -423t422 -175q248 0 423 175t175 423t-175 423t-423 175zM772 796q192 -56 232 -128
q11 -19 15.5 -43.5t4.5 -44.5q0 -35 -30 -47.5t-62 -12.5q-16 44 -100 112q-142 104 -239 108q-9 -139 -22.5 -159t-26.5 -21q-50 0 -97 17q-20 7 -38 21t-20 37q-5 101 -18 201q-7 57 -19 114q-7 33 -18 65q-7 25 -22 47q-7 10 -7 22q0 6 2 13q7 19 26 25q31 7 63 7
q38 0 73 -17q11 -6 22 -15.5t17 -20.5q22 -50 33 -104q13 -63 21 -126q124 388 293 388q63 0 90.5 -42.5t27.5 -106.5q-1 -168 -201 -289zM781 1006q0 47 -22 47q-45 0 -125 -226q147 37 147 179z" />
    <glyph glyph-name="macron" unicode="&#xaf;" horiz-adv-x="884" 
d="M37 1250q-17 1 -27 12.5t-10 27.5q1 16 13 26q10 10 26 10h2l667 -6q16 -1 26 -12.5t10 -27.5q-1 -17 -12.5 -27t-27.5 -10z" />
    <glyph glyph-name="degree" unicode="&#xb0;" horiz-adv-x="719" 
d="M289 1716q120 0 205 -84.5t85 -204.5t-85 -205t-205 -85t-204.5 85t-84.5 205t84.5 204.5t204.5 84.5zM289 1609q-75 0 -128.5 -53.5t-53.5 -128.5q0 -76 53.5 -129.5t128.5 -53.5q76 0 129.5 53.5t53.5 129.5q0 75 -53.5 128.5t-129.5 53.5z" />
    <glyph glyph-name="plusminus" unicode="&#xb1;" horiz-adv-x="1147" 
d="M584 821q166 1 374 1q79 0 79 -65q0 -60 -79 -60q-169 1 -375 2l-3 -395q-1 -58 -48 -58q-5 0 -11 1q-57 7 -57 57q-1 138 -2 396q-184 1 -394 3q-58 1 -58 48q0 5 1 11q7 57 57 57q138 1 394 2q-1 166 -1 373q0 79 65 79q60 0 60 -79q-1 -168 -2 -373zM958 125
q79 0 79 -65q0 -60 -79 -60q-361 2 -890 6q-58 1 -58 48q0 5 1 11q7 57 57 57q250 2 890 3z" />
    <glyph glyph-name="acute" unicode="&#xb4;" horiz-adv-x="190" 
d="M111 1301q79 -1 79 -66q0 -31 -84 -181q-39 -70 -75 -70q-29 0 -31 41q0 35 26 156q25 120 85 120z" />
    <glyph glyph-name="mu" unicode="&#xb5;" horiz-adv-x="1076" 
d="M20 833q6 37 14 73q8 38 22 75q12 24 36 24q43 0 86 -12q17 -4 33 -13q24 -15 24 -41q0 -6 -1 -12q-18 -65 -27 -131q-13 -85 -15 -170q0 -33 2 -66q2 -46 8 -92q2 -21 10.5 -58t24.5 -68.5t42 -31.5q27 0 54.5 27.5t50.5 60.5t35 54q27 47 50 96q17 35 31 72
q34 95 58 193q16 63 28 127l4 32q2 15 13 24t25 9q44 0 89 -9q16 -4 31 -10q14 -6 23 -18q7 -10 7 -23v-6q-16 -122 -17 -246q0 -31 3 -62q3 -46 10 -92q2 -18 10 -52.5t23 -64.5t38 -30q32 0 80 40.5t97.5 95t87 102.5t50.5 66q8 11 20 13h5q9 0 18 -5q11 -8 13 -20v-5
q0 -9 -5 -18l-82.5 -112.5t-104.5 -121t-120 -97t-127 -38.5q-29 0 -56 9q-79 34 -111 121.5t-37 175.5q-23 -63 -56 -130t-78 -125t-102.5 -95t-129.5 -37q-11 0 -21 1v-578q0 -80 -93 -80t-93 80q3 1097 20 1199z" />
    <glyph glyph-name="paragraph" unicode="&#xb6;" horiz-adv-x="1280" 
d="M1052 1620q88 0 88 -56v-12q-13 -52 -52 -52h-158q4 -547 4 -1490q-2 -25 -14 -33.5t-30 -8.5q-29 0 -60.5 5t-58.5 19q-15 7 -27.5 19t-17.5 28l-1 90l1 1371h-166v-1540q-13 -52 -52 -52h-12q-48 0 -56 76v994q-51 -18 -110 -18q-136 0 -233 96.5t-97 233.5t97 233.5
t233 96.5h722z" />
    <glyph glyph-name="periodcentered" unicode="&#xb7;" horiz-adv-x="508" 
d="M132 1043q49 0 64 -33t15 -79q-3 -95 -89 -95q-107 0 -112 78q0 83 32.5 105.5t89.5 23.5z" />
    <glyph glyph-name="periodcentered" unicode="&#x2219;" horiz-adv-x="508" 
d="M132 1043q49 0 64 -33t15 -79q-3 -95 -89 -95q-107 0 -112 78q0 83 32.5 105.5t89.5 23.5z" />
    <glyph glyph-name="cedilla" unicode="&#xb8;" horiz-adv-x="819" 
d="M527 0q-77 -111 -79 -136q213 -118 213 -257q0 -68 -60 -131.5t-183 -63.5q-70 0 -109.5 39.5t-39.5 109.5q0 35 9 72q1 5 3 10q9 18 33 18q34 0 34 -19q0 -10 -5 -25q-7 -24 -7 -56q0 -28 20.5 -52.5t70.5 -24.5q51 0 89 32.5t38 90.5q0 59 -40 107t-118 86
q-34 19 -34 44q0 41 80 156h85z" />
    <glyph glyph-name="guillemotright" unicode="&#xbb;" horiz-adv-x="1024" 
d="M428 300.5q-42 -43.5 -132 -114.5q-124 -98 -173 -127q-28 -16 -51 -16q-24 1 -48 24.5t-24 67.5q0 61 60 97q75 43 147.5 102t73.5 106q-2 36 -74 83t-147 90q-47 28 -47 61q0 15 9 31q18 33 50 33q22 0 51 -17q49 -28 165 -106q82 -55 132 -99t50 -104
q0 -68 -42 -111.5zM842 300.5q-42 -43.5 -132 -114.5q-124 -98 -173 -127q-28 -16 -51 -16q-24 1 -48 24.5t-24 67.5q0 61 60 97q75 43 147.5 102t73.5 106q-2 36 -74 83t-147 90q-47 28 -47 61q0 15 9 31q18 33 50 33q22 0 51 -17q49 -28 165 -106q82 -55 132 -99t50 -104
q0 -68 -42 -111.5z" />
    <glyph glyph-name="onequarter" unicode="&#xbc;" horiz-adv-x="1787" 
d="M112 1484q-9 -15 -19 -30t-29 -19q-5 -1 -11 -1q-13 0 -25 5q-17 10 -21 27v5q0 8 5 18l20 30q120 203 262 203q15 0 30 -3q47 -13 74.5 -48.5t43 -75.5t23.5 -72q18 -75 28 -152q11 -85 16 -171q8 -266 8 -526q-2 -24 -18 -34t-37 -10t-45 3.5t-45 13.5q-13 5 -25 15.5
t-18 27.5v249q0 133 -7 266q-5 76 -14 151q-8 67 -23 133q-9 39 -24 77q-7 20 -19 38q-1 2 -2 2q-52 0 -128 -122zM1074 1705q0 -28 -435 -1705q-23 -81 -86 -81q-47 3 -47 47q0 48 442 1699q27 86 62 86q64 -4 64 -46zM1296 1092q16 0 31 -3q46 -13 74 -48t43.5 -75.5
t23.5 -72.5q18 -75 28 -152q10 -85 16 -170q2 -99 4 -176h79q52 -2 52 -45q0 -49 -53 -49h-76q1 -122 1 -257q-2 -24 -17.5 -34t-36.5 -10t-45 3.5t-45 13.5q-14 6 -25.5 16t-17.5 27v241h-336q-14 -5 -34 -5q-57 1 -57 49q0 11 3 22q85 277 180 493q102 232 208 232z
M1331 395q-1 80 -7 180q-4 76 -13 151q-8 67 -23 134q-9 39 -25 81q-156 -352 -220 -546h288z" />
    <glyph glyph-name="onehalf" unicode="&#xbd;" horiz-adv-x="1786" 
d="M112 1484q-9 -15 -19 -30t-29 -19q-5 -1 -11 -1q-13 0 -25 5q-17 10 -21 27v5q0 8 5 18l20 30q120 203 262 203q15 0 30 -3q47 -13 74.5 -48.5t43 -75.5t23.5 -72q18 -75 28 -152q11 -85 16 -171q8 -266 8 -526q-2 -24 -18 -34t-37 -10t-45 3.5t-45 13.5q-13 5 -25 15.5
t-18 27.5v249q0 133 -7 266q-5 76 -14 151q-8 67 -23 133q-9 39 -24 77q-7 20 -19 38q-1 2 -2 2q-52 0 -128 -122zM1372 868q0 37 -13 69t-42 53q-14 9 -35.5 14.5t-39.5 5.5q-20 0 -37 -7.5t-33 -22.5q-29 -28 -44 -65.5t-16 -77.5q-2 -18 -17 -31t-39 -13q-25 1 -38 16
q-13 12 -13 29v2q3 71 37 135t105 104q63 33 134 33q43 0 85.5 -10t80.5 -31q59 -36 85.5 -89t26.5 -114q0 -176 -122 -363t-244 -333q42 -22 92 -43q29 -13 59.5 -22.5t59.5 -9.5q25 0 51.5 23t51 61.5t42.5 76.5l6 12q13 26 41 26q10 0 20 -4q30 -11 30 -33q0 -6 -3 -12
q-15 -38 -28 -66q-22 -46 -53.5 -87t-78.5 -68t-114 -27q-108 0 -211 34q-94 30 -129 44q-26 7 -26 29q0 4 1 14q87 100 227.5 336.5t140.5 411.5zM1074 1705q0 -28 -435 -1705q-23 -81 -86 -81q-47 3 -47 47q0 48 442 1699q27 86 62 86q64 -4 64 -46z" />
    <glyph glyph-name="threequarters" unicode="&#xbe;" horiz-adv-x="1939" 
d="M203 544q113 0 200 87.5t87 215.5q0 55 -29 104q-52 77 -110.5 92t-108.5 15q-34 0 -50 29q-3 9 -3 17q0 16 14 29q171 162 171 340q0 37 -13 69t-42 53q-14 9 -35 14.5t-40 5.5q-20 0 -37 -7.5t-33 -22.5q-29 -28 -44 -65.5t-16 -77.5q-1 -18 -16.5 -31t-39.5 -13
q-25 1 -38 16q-13 12 -13 29v2q3 71 37 135t105 104q64 33 134 33q43 0 85.5 -10t80.5 -31q59 -36 85.5 -89t26.5 -114q0 -207 -175 -331q169 -27 250 -150q41 -69 41 -145q0 -158 -141.5 -276.5t-338.5 -118.5q-55 0 -56 40q0 4 1 9q7 43 61 43zM1205 1705
q0 -28 -435 -1705q-23 -81 -86 -81q-47 3 -47 47q0 48 442 1699q27 86 62 86q64 -4 64 -46zM1448 1092q15 0 30 -3q47 -13 75 -48t43 -75t23 -73q19 -75 29 -152q10 -85 15 -170q3 -98 5 -176h78q53 -2 53 -45q0 -49 -53 -49h-77q2 -122 2 -256q-2 -24 -18 -34.5t-37 -10.5
t-45 3.5t-45 13.5q-13 6 -25 16.5t-17 26.5l-1 57q1 142 1 184h-336q-15 -5 -34 -5q-57 2 -57 49q0 11 3 22q85 277 180 494q102 231 208 231zM1483 395q-1 80 -7 180q-4 76 -14 151q-7 67 -23 134q-9 39 -25 82q-155 -353 -220 -547h289z" />
    <glyph glyph-name="questiondown" unicode="&#xbf;" horiz-adv-x="1087" 
d="M530 506q-57 0 -74.5 39t-17.5 93q3 112 104 112q126 0 132 -92q0 -98 -38 -125t-106 -27zM218 -552q0 -191 88.5 -291.5t250.5 -101.5q121 4 218 76q62 50 90 118t28 145q0 54 -13 132.5t-51 122.5q-12 13 -12 28v2q0 17 12 30q14 12 30 12q17 0 30 -13q52 -58 70 -149
t18 -165q0 -97 -36.5 -182t-113.5 -147q-62 -49 -137.5 -72t-153.5 -23q-267 0 -396.5 143.5t-129.5 334.5q0 235 256 480q209 202 210 364q0 28 -6 56q-3 11 -3 20q1 15 13.5 23.5t30.5 8.5q29 0 45.5 -5t43.5 -19q15 -7 27.5 -19t17.5 -28q-3 -185 -215 -425t-212 -456z
" />
    <glyph glyph-name="Agrave" unicode="&#xc0;" horiz-adv-x="1932" 
d="M1199 585l2 64l4 133q6 160 6 320q0 66 -8.5 135.5t-30.5 132.5q-10 31 -27 62q-26 41 -60 41q-29 0 -53 -42q-26 -52 -41 -112.5t-21 -105.5q-21 -131 -30 -263q-6 -76 -11 -151q-5 -73 -11 -145l-2 -24q68 -5 136 -15q74 -11 147 -30zM794 551h-1q-140 -1 -276 -29
q-74 -16 -142.5 -44t-123.5 -71.5t-87.5 -105.5t-32.5 -146q0 -140 83 -234t226 -106q2 -1 4 -1q74 4 136 44q74 52 117 137t64 171q31 116 46 235q10 75 17 149q-15 1 -30 1zM2011 686q3 13 13 20q8 5 16 5q4 0 8 -1q12 -3 19 -13q5 -8 5 -17v-6q-27 -121 -221 -537.5
t-391 -416.5q-39 0 -75 15q-81 39 -123 129.5t-56 197t-14 184.5q0 126 4 253q-77 21 -157 32q-65 10 -131 15q-7 -78 -18 -156q-15 -125 -47 -246q-26 -102 -77 -199t-140 -158q-94 -58 -203 -58q-124 0 -219 55t-149.5 151.5t-54.5 219.5q0 64 18 123.5t55 111.5
q69 93 176.5 145t228 74.5t230.5 25.5q31 1 62 1t61 -1q2 13 3 25q5 73 11 146q5 75 11 151q10 135 30 270q9 60 28 131t54 131.5t93 91.5q41 19 86 19q41 0 80 -16q79 -38 120.5 -122t56 -183.5t14.5 -176.5q0 -161 -5 -323q-2 -66 -5 -132q-8 -201 -8 -401q0 -71 8 -144.5
t30 -140.5q18 -57 42.5 -89t58.5 -32q93 0 270 365.5t202 480.5zM1040 2036q61 0 86 -120q26 -121 26 -156q-3 -41 -31 -41q-36 0 -75 70q-84 150 -84 181q0 65 78 66z" />
    <glyph glyph-name="Aacute" unicode="&#xc1;" horiz-adv-x="1932" 
d="M1199 585l2 64l4 133q6 160 6 320q0 66 -8.5 135.5t-30.5 132.5q-10 31 -27 62q-26 41 -60 41q-29 0 -53 -42q-26 -52 -41 -112.5t-21 -105.5q-21 -131 -30 -263q-6 -76 -11 -151q-5 -73 -11 -145l-2 -24q68 -5 136 -15q74 -11 147 -30zM794 551h-1q-140 -1 -276 -29
q-74 -16 -142.5 -44t-123.5 -71.5t-87.5 -105.5t-32.5 -146q0 -140 83 -234t226 -106q2 -1 4 -1q74 4 136 44q74 52 117 137t64 171q31 116 46 235q10 75 17 149q-15 1 -30 1zM2011 686q3 13 13 20q8 5 16 5q4 0 8 -1q12 -3 19 -13q5 -8 5 -17v-6q-27 -121 -221 -537.5
t-391 -416.5q-39 0 -75 15q-81 39 -123 129.5t-56 197t-14 184.5q0 126 4 253q-77 21 -157 32q-65 10 -131 15q-7 -78 -18 -156q-15 -125 -47 -246q-26 -102 -77 -199t-140 -158q-94 -58 -203 -58q-124 0 -219 55t-149.5 151.5t-54.5 219.5q0 64 18 123.5t55 111.5
q69 93 176.5 145t228 74.5t230.5 25.5q31 1 62 1t61 -1q2 13 3 25q5 73 11 146q5 75 11 151q10 135 30 270q9 60 28 131t54 131.5t93 91.5q41 19 86 19q41 0 80 -16q79 -38 120.5 -122t56 -183.5t14.5 -176.5q0 -161 -5 -323q-2 -66 -5 -132q-8 -201 -8 -401q0 -71 8 -144.5
t30 -140.5q18 -57 42.5 -89t58.5 -32q93 0 270 365.5t202 480.5zM1239 2044q79 -2 79 -66q0 -31 -84 -181q-40 -70 -75 -70q-29 0 -31 40q0 36 25 157q25 120 86 120z" />
    <glyph glyph-name="Acircumflex" unicode="&#xc2;" horiz-adv-x="1932" 
d="M1199 585l2 64l4 133q6 160 6 320q0 66 -8.5 135.5t-30.5 132.5q-10 31 -27 62q-26 41 -60 41q-29 0 -53 -42q-26 -52 -41 -112.5t-21 -105.5q-21 -131 -30 -263q-6 -76 -11 -151q-5 -73 -11 -145l-2 -24q68 -5 136 -15q74 -11 147 -30zM794 551h-1q-140 -1 -276 -29
q-74 -16 -142.5 -44t-123.5 -71.5t-87.5 -105.5t-32.5 -146q0 -140 83 -234t226 -106q2 -1 4 -1q74 4 136 44q74 52 117 137t64 171q31 116 46 235q10 75 17 149q-15 1 -30 1zM2011 686q3 13 13 20q8 5 16 5q4 0 8 -1q12 -3 19 -13q5 -8 5 -17v-6q-27 -121 -221 -537.5
t-391 -416.5q-39 0 -75 15q-81 39 -123 129.5t-56 197t-14 184.5q0 126 4 253q-77 21 -157 32q-65 10 -131 15q-7 -78 -18 -156q-15 -125 -47 -246q-26 -102 -77 -199t-140 -158q-94 -58 -203 -58q-124 0 -219 55t-149.5 151.5t-54.5 219.5q0 64 18 123.5t55 111.5
q69 93 176.5 145t228 74.5t230.5 25.5q31 1 62 1t61 -1q2 13 3 25q5 73 11 146q5 75 11 151q10 135 30 270q9 60 28 131t54 131.5t93 91.5q41 19 86 19q41 0 80 -16q79 -38 120.5 -122t56 -183.5t14.5 -176.5q0 -161 -5 -323q-2 -66 -5 -132q-8 -201 -8 -401q0 -71 8 -144.5
t30 -140.5q18 -57 42.5 -89t58.5 -32q93 0 270 365.5t202 480.5zM1058 1766q-40 -62 -76 -62q-29 0 -31 41q50 229 197 296q166 -77 212 -296q-2 -40 -31 -40q-36 0 -78 61l-99 144z" />
    <glyph glyph-name="Atilde" unicode="&#xc3;" horiz-adv-x="1932" 
d="M1199 585l2 64l4 133q6 160 6 320q0 66 -8.5 135.5t-30.5 132.5q-10 31 -27 62q-26 41 -60 41q-29 0 -53 -42q-26 -52 -41 -112.5t-21 -105.5q-21 -131 -30 -263q-6 -76 -11 -151q-5 -73 -11 -145l-2 -24q68 -5 136 -15q74 -11 147 -30zM794 551h-1q-140 -1 -276 -29
q-74 -16 -142.5 -44t-123.5 -71.5t-87.5 -105.5t-32.5 -146q0 -140 83 -234t226 -106q2 -1 4 -1q74 4 136 44q74 52 117 137t64 171q31 116 46 235q10 75 17 149q-15 1 -30 1zM2011 686q3 13 13 20q8 5 16 5q4 0 8 -1q12 -3 19 -13q5 -8 5 -17v-6q-27 -121 -221 -537.5
t-391 -416.5q-39 0 -75 15q-81 39 -123 129.5t-56 197t-14 184.5q0 126 4 253q-77 21 -157 32q-65 10 -131 15q-7 -78 -18 -156q-15 -125 -47 -246q-26 -102 -77 -199t-140 -158q-94 -58 -203 -58q-124 0 -219 55t-149.5 151.5t-54.5 219.5q0 64 18 123.5t55 111.5
q69 93 176.5 145t228 74.5t230.5 25.5q31 1 62 1t61 -1q2 13 3 25q5 73 11 146q5 75 11 151q10 135 30 270q9 60 28 131t54 131.5t93 91.5q41 19 86 19q41 0 80 -16q79 -38 120.5 -122t56 -183.5t14.5 -176.5q0 -161 -5 -323q-2 -66 -5 -132q-8 -201 -8 -401q0 -71 8 -144.5
t30 -140.5q18 -57 42.5 -89t58.5 -32q93 0 270 365.5t202 480.5zM1316 2007q13 0 21 -8.5t8 -25.5t-8.5 -55.5t-39.5 -87.5q-32 -49 -68 -49q-62 4 -110.5 51t-67.5 48q-24 0 -46 -35q-23 -56 -40 -56h-8q-21 8 -21 34v7q0 12 38 85.5t81 74.5q45 -1 98 -49.5t75 -48.5
q50 0 64 65q9 50 24 50z" />
    <glyph glyph-name="Adieresis" unicode="&#xc4;" horiz-adv-x="1932" 
d="M1199 585l2 64l4 133q6 160 6 320q0 66 -8.5 135.5t-30.5 132.5q-10 31 -27 62q-26 41 -60 41q-29 0 -53 -42q-26 -52 -41 -112.5t-21 -105.5q-21 -131 -30 -263q-6 -76 -11 -151q-5 -73 -11 -145l-2 -24q68 -5 136 -15q74 -11 147 -30zM794 551h-1q-140 -1 -276 -29
q-74 -16 -142.5 -44t-123.5 -71.5t-87.5 -105.5t-32.5 -146q0 -140 83 -234t226 -106q2 -1 4 -1q74 4 136 44q74 52 117 137t64 171q31 116 46 235q10 75 17 149q-15 1 -30 1zM2011 686q3 13 13 20q8 5 16 5q4 0 8 -1q12 -3 19 -13q5 -8 5 -17v-6q-27 -121 -221 -537.5
t-391 -416.5q-39 0 -75 15q-81 39 -123 129.5t-56 197t-14 184.5q0 126 4 253q-77 21 -157 32q-65 10 -131 15q-7 -78 -18 -156q-15 -125 -47 -246q-26 -102 -77 -199t-140 -158q-94 -58 -203 -58q-124 0 -219 55t-149.5 151.5t-54.5 219.5q0 64 18 123.5t55 111.5
q69 93 176.5 145t228 74.5t230.5 25.5q31 1 62 1t61 -1q2 13 3 25q5 73 11 146q5 75 11 151q10 135 30 270q9 60 28 131t54 131.5t93 91.5q41 19 86 19q41 0 80 -16q79 -38 120.5 -122t56 -183.5t14.5 -176.5q0 -161 -5 -323q-2 -66 -5 -132q-8 -201 -8 -401q0 -71 8 -144.5
t30 -140.5q18 -57 42.5 -89t58.5 -32q93 0 270 365.5t202 480.5zM1049 1989q45 0 77 -32t32 -77t-32 -76.5t-77 -31.5t-76.5 31.5t-31.5 76.5t31.5 77t76.5 32zM1325 1989q44 0 76 -31.5t32 -76.5t-32 -77t-76 -32q-45 0 -77 32t-32 77t32 76.5t77 31.5z" />
    <glyph glyph-name="Aring" unicode="&#xc5;" horiz-adv-x="1932" 
d="M1199 585l2 64l4 133q6 160 6 320q0 66 -8.5 135.5t-30.5 132.5q-10 31 -27 62q-26 41 -60 41q-29 0 -53 -42q-26 -52 -41 -112.5t-21 -105.5q-21 -131 -30 -263q-6 -76 -11 -151q-5 -73 -11 -145l-2 -24q68 -5 136 -15q74 -11 147 -30zM794 551h-1q-140 -1 -276 -29
q-74 -16 -142.5 -44t-123.5 -71.5t-87.5 -105.5t-32.5 -146q0 -140 83 -234t226 -106q2 -1 4 -1q74 4 136 44q74 52 117 137t64 171q31 116 46 235q10 75 17 149q-15 1 -30 1zM2011 686q3 13 13 20q8 5 16 5q4 0 8 -1q12 -3 19 -13q5 -8 5 -17v-6q-27 -121 -221 -537.5
t-391 -416.5q-39 0 -75 15q-81 39 -123 129.5t-56 197t-14 184.5q0 126 4 253q-77 21 -157 32q-65 10 -131 15q-7 -78 -18 -156q-15 -125 -47 -246q-26 -102 -77 -199t-140 -158q-94 -58 -203 -58q-124 0 -219 55t-149.5 151.5t-54.5 219.5q0 64 18 123.5t55 111.5
q69 93 176.5 145t228 74.5t230.5 25.5q31 1 62 1t61 -1q2 13 3 25q5 73 11 146q5 75 11 151q10 135 30 270q9 60 28 131t54 131.5t93 91.5q41 19 86 19q41 0 80 -16q79 -38 120.5 -122t56 -183.5t14.5 -176.5q0 -161 -5 -323q-2 -66 -5 -132q-8 -201 -8 -401q0 -71 8 -144.5
t30 -140.5q18 -57 42.5 -89t58.5 -32q93 0 270 365.5t202 480.5zM1135 2040q80 0 136.5 -56.5t56.5 -136.5q0 -79 -56.5 -135.5t-136.5 -56.5t-136.5 56.5t-56.5 135.5q0 80 56.5 136.5t136.5 56.5zM1135 1971q-51 0 -87.5 -36t-36.5 -88q0 -51 36.5 -87t87.5 -36t87 36
t36 87q0 52 -36 88t-87 36z" />
    <glyph glyph-name="AE" unicode="&#xc6;" horiz-adv-x="2471" 
d="M1199 585l2 64l4 133q6 160 6 320q0 66 -8.5 135.5t-30.5 132.5q-10 31 -27 62q-26 41 -60 41q-29 0 -53 -42q-26 -52 -41 -112.5t-21 -105.5q-21 -131 -30 -263q-6 -76 -11 -151q-5 -73 -11 -145l-2 -24q68 -5 136 -15q74 -11 147 -30zM794 551h-1q-140 -1 -276 -29
q-74 -16 -142.5 -44t-123.5 -71.5t-87.5 -105.5t-32.5 -146q0 -140 83 -234t226 -106q2 -1 4 -1q74 4 136 44q74 52 117 137t64 171q31 116 46 235q10 75 17 149q-15 1 -30 1zM1493 1298q0 104 47 191q49 91 139.5 159.5t224.5 68.5q93 0 174 -34t131.5 -102t50.5 -169
q0 -74 -27 -147q-8 -17 -23 -23q-8 -3 -16 -3t-17 3q-16 8 -22 24q-3 7 -3 15t3 17q21 57 21 114q0 109 -91 172q-30 20 -66 28.5t-71 8.5q-51 0 -106 -15.5t-95 -48.5q-103 -94 -103 -225q0 -53 19.5 -102.5t52.5 -92.5q47 -60 110 -106.5t132 -79.5q24 -13 24 -40v-2
q-4 -28 -30 -36q-124 -35 -237 -99t-195 -165q-118 -153 -120 -339v-24q4 -98 46 -186q46 -96 129.5 -155t198.5 -61q161 3 292.5 81.5t230 204.5t162.5 272.5t91 283.5q3 13 13 20q7 5 16 5q3 0 7 -1q13 -3 20 -13q5 -7 5 -16q0 -3 -1 -7q-22 -115 -72.5 -246t-126 -258
t-173.5 -231.5t-217.5 -167.5t-256.5 -63q-107 0 -212.5 27.5t-190.5 97.5q-63 54 -100 123.5t-52 148.5q-16 69 -16 141q0 126 3 253q-77 21 -157 32q-65 10 -131 15q-7 -78 -18 -156q-15 -125 -47 -246q-26 -102 -77 -199t-140 -158q-94 -58 -203 -58q-124 0 -219 55
t-149.5 151.5t-54.5 219.5q0 64 18 123.5t55 111.5q69 93 176.5 145t228 74.5t230.5 25.5q31 1 62 1t61 -1q2 13 3 25q5 73 11 146q5 75 11 151q10 135 30 270q9 60 28 131t54 131.5t93 91.5q41 19 86 19q41 0 80 -16q79 -38 120.5 -122t56 -183.5t14.5 -176.5
q0 -161 -5 -323q0 -16 -1 -31q43 38 91 70q98 64 238 115q-99 31 -173.5 140t-74.5 225z" />
    <glyph glyph-name="Ccedilla" unicode="&#xc7;" horiz-adv-x="1322" 
d="M606 -422q-75 2 -145 24q-79 23 -147 73q-126 96 -194.5 247.5t-94 322t-25.5 317.5q0 117 5.5 233.5t23.5 232.5q16 102 48 205.5t87.5 190t141 140t207.5 53.5q112 0 206 -65q90 -65 134.5 -166t44.5 -211q0 -157 -100 -277q-12 -13 -29 -14q-18 0 -31 11t-14 28
q0 18 10 31q80 95 80 224q0 144 -94 254q-62 72 -149 72q-42 0 -81.5 -13t-71.5 -42q-82 -81 -124 -200.5t-58 -231.5q-18 -113 -23.5 -227t-5.5 -228q0 -128 21 -282.5t78 -293t161 -228.5q46 -37 100.5 -55t112.5 -18q102 0 191 60q156 105 261.5 256.5t170 328.5
t98.5 356q3 13 13 20q7 5 15 5q4 0 8 -1q13 -3 20 -13q5 -7 5 -15q0 -4 -1 -8q-33 -174 -100 -363.5t-174 -356.5t-260 -273q-69 -47 -146 -75q-43 -16 -87 -22q-56 -85 -58 -106q213 -118 213 -257q0 -68 -60 -131.5t-183 -63.5q-70 0 -109.5 39.5t-39.5 109.5q0 35 9 72
q1 5 3 10q9 18 33 18q34 0 34 -19q0 -10 -5 -25q-7 -24 -7 -56q0 -28 20.5 -52.5t70.5 -24.5q51 0 89 32.5t38 90.5q0 59 -40 107t-118 86q-34 19 -34 44q0 34 56 120z" />
    <glyph glyph-name="Egrave" unicode="&#xc8;" horiz-adv-x="1278" 
d="M518 923q-97 58 -169 145q-41 49 -65 107.5t-24 122.5q0 104 45.5 191t132.5 146q129 82 273 82q93 0 174 -34t131.5 -102t50.5 -169q0 -74 -27 -147q-8 -17 -23 -23q-8 -3 -16 -3t-17 3q-16 8 -22 24q-3 8 -3 16t3 16q21 57 21 114q0 109 -91 172q-30 20 -66 28.5
t-71 8.5q-51 0 -106 -15.5t-95 -48.5q-103 -94 -103 -225q0 -53 19.5 -102.5t52.5 -92.5q47 -60 110 -106.5t132 -79.5q24 -12 24 -40v-2q-4 -28 -30 -36q-124 -35 -237 -99t-195 -165q-120 -155 -120 -345q0 -108 46 -204t129.5 -155t198.5 -61q161 3 292.5 81.5t230 204.5
t162.5 272.5t91 283.5q3 13 13 20q7 5 15 5q4 0 8 -1q13 -3 20 -13q5 -7 5 -15q0 -4 -1 -8q-22 -115 -72.5 -246t-126 -258t-173.5 -231.5t-217.5 -167.5t-256.5 -63q-107 0 -212.5 27.5t-190.5 97.5q-63 54 -100 123.5t-52.5 148t-15.5 159.5q0 219 138 398q74 92 172 156
t208 105zM661 2098q61 0 86 -120q25 -122 25 -157q-2 -40 -31 -40q-35 0 -75 70q-84 150 -84 180q0 65 79 67z" />
    <glyph glyph-name="Eacute" unicode="&#xc9;" horiz-adv-x="1278" 
d="M518 923q-97 58 -169 145q-41 49 -65 107.5t-24 122.5q0 104 45.5 191t132.5 146q129 82 273 82q93 0 174 -34t131.5 -102t50.5 -169q0 -74 -27 -147q-8 -17 -23 -23q-8 -3 -16 -3t-17 3q-16 8 -22 24q-3 8 -3 16t3 16q21 57 21 114q0 109 -91 172q-30 20 -66 28.5
t-71 8.5q-51 0 -106 -15.5t-95 -48.5q-103 -94 -103 -225q0 -53 19.5 -102.5t52.5 -92.5q47 -60 110 -106.5t132 -79.5q24 -12 24 -40v-2q-4 -28 -30 -36q-124 -35 -237 -99t-195 -165q-120 -155 -120 -345q0 -108 46 -204t129.5 -155t198.5 -61q161 3 292.5 81.5t230 204.5
t162.5 272.5t91 283.5q3 13 13 20q7 5 15 5q4 0 8 -1q13 -3 20 -13q5 -7 5 -15q0 -4 -1 -8q-22 -115 -72.5 -246t-126 -258t-173.5 -231.5t-217.5 -167.5t-256.5 -63q-107 0 -212.5 27.5t-190.5 97.5q-63 54 -100 123.5t-52.5 148t-15.5 159.5q0 219 138 398q74 92 172 156
t208 105zM757 2098q79 -1 79 -66q0 -31 -84 -180q-39 -71 -75 -71q-29 0 -31 41q0 35 25 156q26 120 86 120z" />
    <glyph glyph-name="Ecircumflex" unicode="&#xca;" horiz-adv-x="1278" 
d="M518 923q-97 58 -169 145q-41 49 -65 107.5t-24 122.5q0 104 45.5 191t132.5 146q129 82 273 82q93 0 174 -34t131.5 -102t50.5 -169q0 -74 -27 -147q-8 -17 -23 -23q-8 -3 -16 -3t-17 3q-16 8 -22 24q-3 8 -3 16t3 16q21 57 21 114q0 109 -91 172q-30 20 -66 28.5
t-71 8.5q-51 0 -106 -15.5t-95 -48.5q-103 -94 -103 -225q0 -53 19.5 -102.5t52.5 -92.5q47 -60 110 -106.5t132 -79.5q24 -12 24 -40v-2q-4 -28 -30 -36q-124 -35 -237 -99t-195 -165q-120 -155 -120 -345q0 -108 46 -204t129.5 -155t198.5 -61q161 3 292.5 81.5t230 204.5
t162.5 272.5t91 283.5q3 13 13 20q7 5 15 5q4 0 8 -1q13 -3 20 -13q5 -7 5 -15q0 -4 -1 -8q-22 -115 -72.5 -246t-126 -258t-173.5 -231.5t-217.5 -167.5t-256.5 -63q-107 0 -212.5 27.5t-190.5 97.5q-63 54 -100 123.5t-52.5 148t-15.5 159.5q0 219 138 398q74 92 172 156
t208 105zM612 1822q-40 -62 -76 -62q-29 0 -31 41q50 229 197 296q166 -77 212 -296q-2 -40 -31 -40q-36 0 -78 61l-99 144z" />
    <glyph glyph-name="Edieresis" unicode="&#xcb;" horiz-adv-x="1278" 
d="M518 923q-97 58 -169 145q-41 49 -65 107.5t-24 122.5q0 104 45.5 191t132.5 146q129 82 273 82q93 0 174 -34t131.5 -102t50.5 -169q0 -74 -27 -147q-8 -17 -23 -23q-8 -3 -16 -3t-17 3q-16 8 -22 24q-3 8 -3 16t3 16q21 57 21 114q0 109 -91 172q-30 20 -66 28.5
t-71 8.5q-51 0 -106 -15.5t-95 -48.5q-103 -94 -103 -225q0 -53 19.5 -102.5t52.5 -92.5q47 -60 110 -106.5t132 -79.5q24 -12 24 -40v-2q-4 -28 -30 -36q-124 -35 -237 -99t-195 -165q-120 -155 -120 -345q0 -108 46 -204t129.5 -155t198.5 -61q161 3 292.5 81.5t230 204.5
t162.5 272.5t91 283.5q3 13 13 20q7 5 15 5q4 0 8 -1q13 -3 20 -13q5 -7 5 -15q0 -4 -1 -8q-22 -115 -72.5 -246t-126 -258t-173.5 -231.5t-217.5 -167.5t-256.5 -63q-107 0 -212.5 27.5t-190.5 97.5q-63 54 -100 123.5t-52.5 148t-15.5 159.5q0 219 138 398q74 92 172 156
t208 105zM571 2083q45 0 77 -31.5t32 -76.5t-32 -77t-77 -32q-44 0 -76 32t-32 77t32 76.5t76 31.5zM847 2084q45 0 76.5 -32t31.5 -77t-31.5 -76.5t-76.5 -31.5t-77 31.5t-32 76.5t32 77t77 32z" />
    <glyph glyph-name="Igrave" unicode="&#xcc;" horiz-adv-x="1210" 
d="M665 699v109q0 226 -22 452q-8 89 -19 178q-5 38 -11 76q-172 -30 -311 -134q-88 -70 -130 -163.5t-42 -205.5q0 -94 20.5 -186.5t54.5 -179.5q3 -8 3 -16q0 -12 -8 -23q-13 -19 -34 -19q-28 0 -57 14.5t-40 42.5q-32 89 -50.5 181t-18.5 186q0 164 65.5 279t175.5 186.5
t247.5 104t280.5 32.5q16 0 27.5 -9.5t14.5 -24.5q10 -57 17 -115q12 -90 21 -180q24 -238 24 -476v-73q61 5 124 5q42 0 84 -2q106 -5 211 -16l30 -2q13 -2 20.5 -11.5t7.5 -22.5q-2 -13 -11.5 -20.5t-22.5 -7.5q-91 3 -183 7q-131 0 -262 -15q-2 -112 -14 -224
q-12 -101 -40 -199q-21 -71 -57.5 -133t-93 -101t-137.5 -39q-86 0 -144 46.5t-87 118.5t-29 149q0 70 20 134.5t65 119.5q59 70 140.5 112.5t170.5 64.5zM662 611q-68 -19 -132.5 -53.5t-110.5 -88.5q-35 -44 -50.5 -94.5t-15.5 -106.5q0 -44 13.5 -90.5t41.5 -82.5
q15 -18 35 -29.5t43 -11.5q24 0 42 14t31 33q34 57 51 122q26 93 37 188q12 100 15 200zM627 2059q60 0 86 -121q25 -121 25 -156q-2 -40 -31 -40q-35 0 -75 70q-84 150 -84 180q0 65 79 67z" />
    <glyph glyph-name="Iacute" unicode="&#xcd;" horiz-adv-x="1210" 
d="M665 699v109q0 226 -22 452q-8 89 -19 178q-5 38 -11 76q-172 -30 -311 -134q-88 -70 -130 -163.5t-42 -205.5q0 -94 20.5 -186.5t54.5 -179.5q3 -8 3 -16q0 -12 -8 -23q-13 -19 -34 -19q-28 0 -57 14.5t-40 42.5q-32 89 -50.5 181t-18.5 186q0 164 65.5 279t175.5 186.5
t247.5 104t280.5 32.5q16 0 27.5 -9.5t14.5 -24.5q10 -57 17 -115q12 -90 21 -180q24 -238 24 -476v-73q61 5 124 5q42 0 84 -2q106 -5 211 -16l30 -2q13 -2 20.5 -11.5t7.5 -22.5q-2 -13 -11.5 -20.5t-22.5 -7.5q-91 3 -183 7q-131 0 -262 -15q-2 -112 -14 -224
q-12 -101 -40 -199q-21 -71 -57.5 -133t-93 -101t-137.5 -39q-86 0 -144 46.5t-87 118.5t-29 149q0 70 20 134.5t65 119.5q59 70 140.5 112.5t170.5 64.5zM662 611q-68 -19 -132.5 -53.5t-110.5 -88.5q-35 -44 -50.5 -94.5t-15.5 -106.5q0 -44 13.5 -90.5t41.5 -82.5
q15 -18 35 -29.5t43 -11.5q24 0 42 14t31 33q34 57 51 122q26 93 37 188q12 100 15 200zM723 2051q79 -2 79 -67q0 -30 -84 -180q-40 -70 -75 -70q-29 0 -31 40q0 35 25 157q25 120 86 120z" />
    <glyph glyph-name="Icircumflex" unicode="&#xce;" horiz-adv-x="1210" 
d="M665 699v109q0 226 -22 452q-8 89 -19 178q-5 38 -11 76q-172 -30 -311 -134q-88 -70 -130 -163.5t-42 -205.5q0 -94 20.5 -186.5t54.5 -179.5q3 -8 3 -16q0 -12 -8 -23q-13 -19 -34 -19q-28 0 -57 14.5t-40 42.5q-32 89 -50.5 181t-18.5 186q0 164 65.5 279t175.5 186.5
t247.5 104t280.5 32.5q16 0 27.5 -9.5t14.5 -24.5q10 -57 17 -115q12 -90 21 -180q24 -238 24 -476v-73q61 5 124 5q42 0 84 -2q106 -5 211 -16l30 -2q13 -2 20.5 -11.5t7.5 -22.5q-2 -13 -11.5 -20.5t-22.5 -7.5q-91 3 -183 7q-131 0 -262 -15q-2 -112 -14 -224
q-12 -101 -40 -199q-21 -71 -57.5 -133t-93 -101t-137.5 -39q-86 0 -144 46.5t-87 118.5t-29 149q0 70 20 134.5t65 119.5q59 70 140.5 112.5t170.5 64.5zM662 611q-68 -19 -132.5 -53.5t-110.5 -88.5q-35 -44 -50.5 -94.5t-15.5 -106.5q0 -44 13.5 -90.5t41.5 -82.5
q15 -18 35 -29.5t43 -11.5q24 0 42 14t31 33q34 57 51 122q26 93 37 188q12 100 15 200zM577 1798q-40 -62 -76 -62q-29 0 -31 41q50 229 197 296q166 -77 212 -296q-2 -40 -31 -40q-36 0 -78 61l-99 144z" />
    <glyph glyph-name="Idieresis" unicode="&#xcf;" horiz-adv-x="1210" 
d="M665 699v109q0 226 -22 452q-8 89 -19 178q-5 38 -11 76q-172 -30 -311 -134q-88 -70 -130 -163.5t-42 -205.5q0 -94 20.5 -186.5t54.5 -179.5q3 -8 3 -16q0 -12 -8 -23q-13 -19 -34 -19q-28 0 -57 14.5t-40 42.5q-32 89 -50.5 181t-18.5 186q0 164 65.5 279t175.5 186.5
t247.5 104t280.5 32.5q16 0 27.5 -9.5t14.5 -24.5q10 -57 17 -115q12 -90 21 -180q24 -238 24 -476v-73q61 5 124 5q42 0 84 -2q106 -5 211 -16l30 -2q13 -2 20.5 -11.5t7.5 -22.5q-2 -13 -11.5 -20.5t-22.5 -7.5q-91 3 -183 7q-131 0 -262 -15q-2 -112 -14 -224
q-12 -101 -40 -199q-21 -71 -57.5 -133t-93 -101t-137.5 -39q-86 0 -144 46.5t-87 118.5t-29 149q0 70 20 134.5t65 119.5q59 70 140.5 112.5t170.5 64.5zM662 611q-68 -19 -132.5 -53.5t-110.5 -88.5q-35 -44 -50.5 -94.5t-15.5 -106.5q0 -44 13.5 -90.5t41.5 -82.5
q15 -18 35 -29.5t43 -11.5q24 0 42 14t31 33q34 57 51 122q26 93 37 188q12 100 15 200zM537 2033q45 0 77 -31.5t32 -76.5t-32 -77t-77 -32t-76.5 32t-31.5 77t31.5 76.5t76.5 31.5zM813 2034q45 0 76.5 -32t31.5 -77t-31.5 -76.5t-76.5 -31.5t-77 31.5t-32 76.5t32 77
t77 32z" />
    <glyph glyph-name="Eth" unicode="&#xd0;" horiz-adv-x="2013" 
d="M380 1510q-26 64 -83 160t-128 96q-29 0 -56.5 -36t-27.5 -95q3 -50 33 -78q41 -37 109 -44q45 -4 88 -4q21 0 42 1h23zM1380 477l-138 -40q-92 -28 -217.5 -78t-247 -118t-201.5 -150t-81 -172q2 -114 56 -175t165 -61q198 0 377.5 245t286.5 549zM765 698q2 -12 3 -24
q19 -150 29 -302q0 -5 -1 -9q52 23 105 44q156 62 317 110q96 30 193 55l16 58q62 228 62 459q0 87 -24 174.5t-84 153.5q-89 88 -227 88q-191 0 -321 -26.5t-221 -40.5q10 -29 19 -58q38 -124 64 -250q37 -176 61 -355l244 -2q16 -1 26 -12.5t10 -27.5q-1 -17 -12.5 -27
t-27.5 -10zM555 777q-23 169 -58 335q-32 155 -82 306h-22q-69 0 -139 6q-93 7 -173.5 59.5t-80.5 154.5q0 66 34 125q31 53 80.5 86t109.5 33q31 0 61 -8q94 -28 158 -106.5t103 -164.5q16 -33 30 -68l64 10q128 21 255 38q146 25 292 25q241 -1 370 -133
q73 -78 102.5 -180t29.5 -206q0 -87 -11 -174.5t-29 -172.5q-12 -59 -27 -117q103 23 233 44.5l242 38.5q11 1 21 3h3q10 0 19 -6q10 -7 13 -20v-3q0 -11 -6 -20q-7 -10 -20 -12q-224 -37 -394 -84q-65 -17 -137 -34q-28 -91 -63 -179q-143 -325 -347 -542t-464 -217
q-191 0 -279.5 87.5t-93.5 235.5q0 81 42.5 148t106 119.5t128.5 89.5q49 29 100 55q-44 4 -81 27q-20 12 -35 31t-17 42q-11 137 -28 272l-236 2q-17 1 -27 12.5t-10 27.5q1 16 13 26q10 10 25 10h3z" />
    <glyph glyph-name="Ntilde" unicode="&#xd1;" horiz-adv-x="2135" 
d="M787 -50q1 1 1 3q36 108 64 218l78 301l87 330q46 172 98 342q47 152 107 300q44 115 114 217q25 37 61.5 67t83.5 30q23 0 45 -9q38 -17 59.5 -51.5t32.5 -73.5q28 -101 31 -205q4 -84 4 -168q0 -48 -1 -96q-2 -117 -8 -295q-5 -139 -5 -302q0 -113 9 -226
q6 -70 21 -139q6 -27 15 -54q13 -40 52 -40q58 0 160 123.5t163 223.5l120 202l39 66q6 11 18 14q4 1 8 1q8 0 16 -4q11 -7 14 -19q1 -4 1 -8q0 -8 -4 -15l-39 -66l-121 -203q-51 -85 -147 -224t-170.5 -182.5t-143.5 -43.5q-33 0 -63 14q-54 26 -84 85t-43 127t-18 123
q-10 111 -10 224q0 182 5 326l8 266q1 51 1 103q0 68 -2 137q-2 77 -13 153q-1 9 -4 20t-9.5 20t-17.5 9q-10 0 -23.5 -12.5t-23.5 -31.5q-29 -56 -53 -116q-59 -144 -104 -292q-52 -169 -98 -339l-92 -352l-81 -310q-28 -112 -67 -222q-12 -36 -31 -68q-9 -18 -23.5 -30.5
t-35.5 -12.5q-30 0 -72.5 6.5t-74.5 26t-38 58.5q-4 49 -4 97q0 19 1 38v4l4 147q1 24 1 49q5 122 5 243q0 122 -5 244q-4 111 -22 253.5t-61.5 274t-126.5 212.5q-44 38 -102 38h-6q-59 0 -97 -45q-46 -66 -65.5 -153t-19.5 -166q-1 -18 -13 -30t-30 -12q-18 1 -30 13
t-12 30q1 79 18.5 167t59.5 164t115 119q58 32 123 32q9 0 18 -1q87 -4 162 -49q90 -57 143.5 -150t81.5 -194q36 -127 52 -259q14 -120 19 -240q5 -134 5 -268q0 -148 -6 -295q-1 -13 -1 -26q-2 -59 -3 -117v-46zM1140 2075q13 0 21 -8.5t8 -25.5t-8.5 -55.5t-40.5 -87.5
t-67 -49q-63 4 -111 51t-67 48q-24 0 -46 -35q-24 -56 -40 -56h-8q-21 8 -21 34v7q0 12 38 85.5t81 74.5q45 -1 97.5 -49.5t74.5 -48.5q50 0 65 65q9 50 24 50z" />
    <glyph glyph-name="Ograve" unicode="&#xd2;" horiz-adv-x="1632" 
d="M1149 526q-25 -120 -71 -234q-23 -57 -53 -108q-30 -53 -67 -100q-73 -93 -176 -149t-241 -56q-66 0 -128.5 15t-117.5 51q-89 62 -143.5 157.5t-87.5 195.5q-64 195 -64 396q0 76 9 152q17 159 72.5 302.5t149 256t226.5 178t306 65.5q18 0 30 -12.5t12 -30.5
q0 -17 -12 -29.5t-30 -12.5q-134 0 -250 -69q-78 -50 -135.5 -123.5t-96.5 -157.5q-85 -191 -103 -400q-6 -68 -6 -136q0 -67 6 -135q12 -126 50 -246q28 -93 85 -179.5t149 -126.5q47 -19 97 -19q142 0 249 158q37 55 65 128q54 136 79 333q-110 52 -199 136t-143 193
t-54 233q0 55 17 108q31 86 98 128.5t156 42.5q68 0 129 -33q83 -49 130.5 -141t68 -197t23.5 -195q1 -26 1 -52q0 -99 -15 -197q90 -23 177 -23q198 0 384 117q9 5 18 5l6 -1q12 -3 19 -14q4 -8 4 -16q0 -3 -1 -7q-3 -12 -14 -19q-136 -84 -293 -122q-91 -22 -182 -22
q-66 0 -133 12zM966 692q5 57 5 113q0 28 -1 56q-3 103 -31.5 225t-97.5 200q-29 29 -75 29q-35 0 -60 -28t-36 -63t-11 -72q0 -35 6 -69q24 -128 106.5 -228t194.5 -163zM671 2078q61 0 86 -120q25 -121 25 -156q-2 -41 -31 -41q-35 0 -75 70q-84 150 -84 181q0 65 79 66z
" />
    <glyph glyph-name="Oacute" unicode="&#xd3;" horiz-adv-x="1632" 
d="M1149 526q-25 -120 -71 -234q-23 -57 -53 -108q-30 -53 -67 -100q-73 -93 -176 -149t-241 -56q-66 0 -128.5 15t-117.5 51q-89 62 -143.5 157.5t-87.5 195.5q-64 195 -64 396q0 76 9 152q17 159 72.5 302.5t149 256t226.5 178t306 65.5q18 0 30 -12.5t12 -30.5
q0 -17 -12 -29.5t-30 -12.5q-134 0 -250 -69q-78 -50 -135.5 -123.5t-96.5 -157.5q-85 -191 -103 -400q-6 -68 -6 -136q0 -67 6 -135q12 -126 50 -246q28 -93 85 -179.5t149 -126.5q47 -19 97 -19q142 0 249 158q37 55 65 128q54 136 79 333q-110 52 -199 136t-143 193
t-54 233q0 55 17 108q31 86 98 128.5t156 42.5q68 0 129 -33q83 -49 130.5 -141t68 -197t23.5 -195q1 -26 1 -52q0 -99 -15 -197q90 -23 177 -23q198 0 384 117q9 5 18 5l6 -1q12 -3 19 -14q4 -8 4 -16q0 -3 -1 -7q-3 -12 -14 -19q-136 -84 -293 -122q-91 -22 -182 -22
q-66 0 -133 12zM966 692q5 57 5 113q0 28 -1 56q-3 103 -31.5 225t-97.5 200q-29 29 -75 29q-35 0 -60 -28t-36 -63t-11 -72q0 -35 6 -69q24 -128 106.5 -228t194.5 -163zM744 2084q79 -1 79 -66q0 -31 -84 -181q-40 -70 -75 -70q-29 0 -31 41q0 35 25 156q25 120 86 120z
" />
    <glyph glyph-name="Ocircumflex" unicode="&#xd4;" horiz-adv-x="1632" 
d="M1149 526q-25 -120 -71 -234q-23 -57 -53 -108q-30 -53 -67 -100q-73 -93 -176 -149t-241 -56q-66 0 -128.5 15t-117.5 51q-89 62 -143.5 157.5t-87.5 195.5q-64 195 -64 396q0 76 9 152q17 159 72.5 302.5t149 256t226.5 178t306 65.5q18 0 30 -12.5t12 -30.5
q0 -17 -12 -29.5t-30 -12.5q-134 0 -250 -69q-78 -50 -135.5 -123.5t-96.5 -157.5q-85 -191 -103 -400q-6 -68 -6 -136q0 -67 6 -135q12 -126 50 -246q28 -93 85 -179.5t149 -126.5q47 -19 97 -19q142 0 249 158q37 55 65 128q54 136 79 333q-110 52 -199 136t-143 193
t-54 233q0 55 17 108q31 86 98 128.5t156 42.5q68 0 129 -33q83 -49 130.5 -141t68 -197t23.5 -195q1 -26 1 -52q0 -99 -15 -197q90 -23 177 -23q198 0 384 117q9 5 18 5l6 -1q12 -3 19 -14q4 -8 4 -16q0 -3 -1 -7q-3 -12 -14 -19q-136 -84 -293 -122q-91 -22 -182 -22
q-66 0 -133 12zM966 692q5 57 5 113q0 28 -1 56q-3 103 -31.5 225t-97.5 200q-29 29 -75 29q-35 0 -60 -28t-36 -63t-11 -72q0 -35 6 -69q24 -128 106.5 -228t194.5 -163zM622 1806q-40 -62 -76 -62q-29 0 -31 41q50 229 197 296q166 -77 212 -296q-2 -40 -31 -40
q-36 0 -78 61l-99 144z" />
    <glyph glyph-name="Otilde" unicode="&#xd5;" horiz-adv-x="1632" 
d="M1149 526q-25 -120 -71 -234q-23 -57 -53 -108q-30 -53 -67 -100q-73 -93 -176 -149t-241 -56q-66 0 -128.5 15t-117.5 51q-89 62 -143.5 157.5t-87.5 195.5q-64 195 -64 396q0 76 9 152q17 159 72.5 302.5t149 256t226.5 178t306 65.5q18 0 30 -12.5t12 -30.5
q0 -17 -12 -29.5t-30 -12.5q-134 0 -250 -69q-78 -50 -135.5 -123.5t-96.5 -157.5q-85 -191 -103 -400q-6 -68 -6 -136q0 -67 6 -135q12 -126 50 -246q28 -93 85 -179.5t149 -126.5q47 -19 97 -19q142 0 249 158q37 55 65 128q54 136 79 333q-110 52 -199 136t-143 193
t-54 233q0 55 17 108q31 86 98 128.5t156 42.5q68 0 129 -33q83 -49 130.5 -141t68 -197t23.5 -195q1 -26 1 -52q0 -99 -15 -197q90 -23 177 -23q198 0 384 117q9 5 18 5l6 -1q12 -3 19 -14q4 -8 4 -16q0 -3 -1 -7q-3 -12 -14 -19q-136 -84 -293 -122q-91 -22 -182 -22
q-66 0 -133 12zM966 692q5 57 5 113q0 28 -1 56q-3 103 -31.5 225t-97.5 200q-29 29 -75 29q-35 0 -60 -28t-36 -63t-11 -72q0 -35 6 -69q24 -128 106.5 -228t194.5 -163zM849 2052q12 0 20.5 -8.5t8.5 -25.5t-9 -55.5t-40 -87.5q-32 -49 -67 -49q-63 4 -111.5 51t-66.5 48
q-25 0 -47 -35q-23 -56 -40 -56h-8q-20 8 -20 34v7q0 12 37.5 85.5t81.5 74.5q44 -1 97 -49.5t75 -48.5q50 0 64 65q9 50 25 50z" />
    <glyph glyph-name="Odieresis" unicode="&#xd6;" horiz-adv-x="1632" 
d="M1149 526q-25 -120 -71 -234q-23 -57 -53 -108q-30 -53 -67 -100q-73 -93 -176 -149t-241 -56q-66 0 -128.5 15t-117.5 51q-89 62 -143.5 157.5t-87.5 195.5q-64 195 -64 396q0 76 9 152q17 159 72.5 302.5t149 256t226.5 178t306 65.5q18 0 30 -12.5t12 -30.5
q0 -17 -12 -29.5t-30 -12.5q-134 0 -250 -69q-78 -50 -135.5 -123.5t-96.5 -157.5q-85 -191 -103 -400q-6 -68 -6 -136q0 -67 6 -135q12 -126 50 -246q28 -93 85 -179.5t149 -126.5q47 -19 97 -19q142 0 249 158q37 55 65 128q54 136 79 333q-110 52 -199 136t-143 193
t-54 233q0 55 17 108q31 86 98 128.5t156 42.5q68 0 129 -33q83 -49 130.5 -141t68 -197t23.5 -195q1 -26 1 -52q0 -99 -15 -197q90 -23 177 -23q198 0 384 117q9 5 18 5l6 -1q12 -3 19 -14q4 -8 4 -16q0 -3 -1 -7q-3 -12 -14 -19q-136 -84 -293 -122q-91 -22 -182 -22
q-66 0 -133 12zM966 692q5 57 5 113q0 28 -1 56q-3 103 -31.5 225t-97.5 200q-29 29 -75 29q-35 0 -60 -28t-36 -63t-11 -72q0 -35 6 -69q24 -128 106.5 -228t194.5 -163zM553 2050q44 0 76 -32t32 -77t-32 -77t-76 -32q-45 0 -77 32t-32 77t32 77t77 32zM828 2050
q45 0 76.5 -32t31.5 -77q0 -44 -31.5 -76t-76.5 -32t-77 32t-32 76q0 45 32 77t77 32z" />
    <glyph glyph-name="multiply" unicode="&#xd7;" horiz-adv-x="1147" 
d="M522 846l265 265q30 31 58 31q22 0 43 -21q19 -19 19 -40q0 -27 -32 -58l-267 -264l278 -282q22 -22 22 -43q0 -17 -15 -32l-9 -7q-22 -17 -42 -17t-38 17l-282 279l-281 -277q-22 -22 -43 -22q-17 0 -32 15l-7 9q-17 23 -17 43t17 37l277 280l-264 264q-31 30 -31 58
q0 22 21 43q19 19 40 19q27 0 58 -32z" />
    <glyph glyph-name="Oslash" unicode="&#xd8;" horiz-adv-x="1632" 
d="M966 692q5 57 5 113q0 28 -1 56q-3 103 -31.5 225t-97.5 200q-29 29 -75 29q-35 0 -60 -28t-36 -63t-11 -72q0 -35 6 -69q24 -128 106.5 -228t194.5 -163zM626 1544q-58 -17 -113 -50q-78 -50 -135.5 -123.5t-96.5 -157.5q-85 -191 -103 -400q-6 -68 -6 -136
q0 -67 6 -135q12 -126 50 -246q16 -53 41 -103zM363 56q43 -42 99 -66q47 -19 97 -19q142 0 249 158q37 55 65 128q54 136 79 333q-110 52 -199 136t-143 193q-8 17 -15 34zM711 1409q52 22 116 22q68 0 129 -33q83 -49 130.5 -141t68 -197t23.5 -195q1 -26 1 -52
q0 -99 -15 -197q90 -23 177 -23q198 0 384 117q9 5 18 5l6 -1q12 -3 19 -14q4 -8 4 -16q0 -3 -1 -7q-3 -12 -14 -19q-136 -84 -293 -122q-91 -22 -182 -22q-66 0 -133 12q-25 -120 -71 -234q-23 -57 -53 -108q-30 -53 -67 -100q-73 -93 -176 -149t-241 -56q-66 0 -128 15
q-44 10 -84 31l-10 -40q-23 -81 -86 -81q-47 3 -47 47q0 14 36 157q-41 42 -70 95q-55 95 -88 195q-64 195 -64 396q0 76 9 152q17 159 72.5 302.5t149 256t226.5 178t306 65.5q18 0 30 -12.5t12 -30.5q0 -17 -12 -29.5t-30 -12.5h-15q-9 -43 -37 -154z" />
    <glyph glyph-name="Ugrave" unicode="&#xd9;" horiz-adv-x="2142" 
d="M1441 1422q2 30 3 60q1 17 13 29t29 12q27 0 54.5 -5.5t52.5 -18.5q20 -11 34.5 -29t14.5 -42q-13 -258 -16 -516v-49q0 -123 4 -246q4 -132 20 -263q9 -77 27 -151q7 -28 16 -54q6 -18 17.5 -30t31.5 -12q39 0 87.5 41t95.5 98.5t84.5 113l57.5 86.5l120 203l38 65
q7 12 19 15q4 1 8 1q8 0 15 -4q11 -7 14 -19q1 -4 1 -8q0 -8 -4 -16l-38 -65l-121 -204l-23 -37q-36 -60 -82.5 -130.5t-102.5 -134.5t-120 -105.5t-134 -41.5q-52 0 -87 34.5t-57.5 85.5t-34.5 104.5t-18 93.5q-23 147 -28 295q-5 130 -5 260v144q-46 -183 -104 -362
q-48 -150 -109 -296q-54 -133 -128 -257q-36 -60 -86 -120t-113 -101.5t-139 -41.5q-42 0 -79 21q-36 23 -56 59.5t-30 76.5q-21 97 -21 195v41q0 111 6 222q2 30 3 61q6 108 9 217q2 54 2 109q0 54 -2 109q-3 109 -22 216q-13 81 -45 161t-93 138q-21 20 -45 34
q-46 25 -94 25q-65 0 -113 -59q-45 -66 -64 -152.5t-20 -165.5q0 -18 -12.5 -29.5t-30.5 -11.5q-17 0 -29 12t-12 30q0 80 18 168t60 163.5t114 118.5q56 32 118 32q78 0 151 -24.5t132 -77.5q71 -68 109.5 -159.5t54.5 -187.5q19 -111 23 -225q2 -57 2 -113q0 -57 -2 -113
q-4 -110 -9 -219q-2 -33 -3 -65q-6 -100 -6 -201v-60q0 -75 14 -149q5 -26 20 -44t43 -18q22 0 42 12.5t35 28.5q50 55 90 118q43 70 79 145q93 196 158 403q70 219 124 442q41 166 74 334zM995 2079q61 0 86 -120q25 -121 25 -156q-2 -41 -31 -41q-35 0 -75 70
q-84 150 -84 181q0 65 79 66z" />
    <glyph glyph-name="Uacute" unicode="&#xda;" horiz-adv-x="2142" 
d="M1441 1422q2 30 3 60q1 17 13 29t29 12q27 0 54.5 -5.5t52.5 -18.5q20 -11 34.5 -29t14.5 -42q-13 -258 -16 -516v-49q0 -123 4 -246q4 -132 20 -263q9 -77 27 -151q7 -28 16 -54q6 -18 17.5 -30t31.5 -12q39 0 87.5 41t95.5 98.5t84.5 113l57.5 86.5l120 203l38 65
q7 12 19 15q4 1 8 1q8 0 15 -4q11 -7 14 -19q1 -4 1 -8q0 -8 -4 -16l-38 -65l-121 -204l-23 -37q-36 -60 -82.5 -130.5t-102.5 -134.5t-120 -105.5t-134 -41.5q-52 0 -87 34.5t-57.5 85.5t-34.5 104.5t-18 93.5q-23 147 -28 295q-5 130 -5 260v144q-46 -183 -104 -362
q-48 -150 -109 -296q-54 -133 -128 -257q-36 -60 -86 -120t-113 -101.5t-139 -41.5q-42 0 -79 21q-36 23 -56 59.5t-30 76.5q-21 97 -21 195v41q0 111 6 222q2 30 3 61q6 108 9 217q2 54 2 109q0 54 -2 109q-3 109 -22 216q-13 81 -45 161t-93 138q-21 20 -45 34
q-46 25 -94 25q-65 0 -113 -59q-45 -66 -64 -152.5t-20 -165.5q0 -18 -12.5 -29.5t-30.5 -11.5q-17 0 -29 12t-12 30q0 80 18 168t60 163.5t114 118.5q56 32 118 32q78 0 151 -24.5t132 -77.5q71 -68 109.5 -159.5t54.5 -187.5q19 -111 23 -225q2 -57 2 -113q0 -57 -2 -113
q-4 -110 -9 -219q-2 -33 -3 -65q-6 -100 -6 -201v-60q0 -75 14 -149q5 -26 20 -44t43 -18q22 0 42 12.5t35 28.5q50 55 90 118q43 70 79 145q93 196 158 403q70 219 124 442q41 166 74 334zM1085 2056q79 -1 79 -66q0 -31 -84 -181q-40 -70 -75 -70q-29 0 -31 41
q0 35 25 156q25 120 86 120z" />
    <glyph glyph-name="Ucircumflex" unicode="&#xdb;" horiz-adv-x="2142" 
d="M1441 1422q2 30 3 60q1 17 13 29t29 12q27 0 54.5 -5.5t52.5 -18.5q20 -11 34.5 -29t14.5 -42q-13 -258 -16 -516v-49q0 -123 4 -246q4 -132 20 -263q9 -77 27 -151q7 -28 16 -54q6 -18 17.5 -30t31.5 -12q39 0 87.5 41t95.5 98.5t84.5 113l57.5 86.5l120 203l38 65
q7 12 19 15q4 1 8 1q8 0 15 -4q11 -7 14 -19q1 -4 1 -8q0 -8 -4 -16l-38 -65l-121 -204l-23 -37q-36 -60 -82.5 -130.5t-102.5 -134.5t-120 -105.5t-134 -41.5q-52 0 -87 34.5t-57.5 85.5t-34.5 104.5t-18 93.5q-23 147 -28 295q-5 130 -5 260v144q-46 -183 -104 -362
q-48 -150 -109 -296q-54 -133 -128 -257q-36 -60 -86 -120t-113 -101.5t-139 -41.5q-42 0 -79 21q-36 23 -56 59.5t-30 76.5q-21 97 -21 195v41q0 111 6 222q2 30 3 61q6 108 9 217q2 54 2 109q0 54 -2 109q-3 109 -22 216q-13 81 -45 161t-93 138q-21 20 -45 34
q-46 25 -94 25q-65 0 -113 -59q-45 -66 -64 -152.5t-20 -165.5q0 -18 -12.5 -29.5t-30.5 -11.5q-17 0 -29 12t-12 30q0 80 18 168t60 163.5t114 118.5q56 32 118 32q78 0 151 -24.5t132 -77.5q71 -68 109.5 -159.5t54.5 -187.5q19 -111 23 -225q2 -57 2 -113q0 -57 -2 -113
q-4 -110 -9 -219q-2 -33 -3 -65q-6 -100 -6 -201v-60q0 -75 14 -149q5 -26 20 -44t43 -18q22 0 42 12.5t35 28.5q50 55 90 118q43 70 79 145q93 196 158 403q70 219 124 442q41 166 74 334zM912 1784q-40 -62 -76 -62q-29 0 -31 41q50 229 197 296q166 -77 212 -296
q-2 -40 -31 -40q-36 0 -78 61l-99 144z" />
    <glyph glyph-name="Udieresis" unicode="&#xdc;" horiz-adv-x="2142" 
d="M1441 1422q2 30 3 60q1 17 13 29t29 12q27 0 54.5 -5.5t52.5 -18.5q20 -11 34.5 -29t14.5 -42q-13 -258 -16 -516v-49q0 -123 4 -246q4 -132 20 -263q9 -77 27 -151q7 -28 16 -54q6 -18 17.5 -30t31.5 -12q39 0 87.5 41t95.5 98.5t84.5 113l57.5 86.5l120 203l38 65
q7 12 19 15q4 1 8 1q8 0 15 -4q11 -7 14 -19q1 -4 1 -8q0 -8 -4 -16l-38 -65l-121 -204l-23 -37q-36 -60 -82.5 -130.5t-102.5 -134.5t-120 -105.5t-134 -41.5q-52 0 -87 34.5t-57.5 85.5t-34.5 104.5t-18 93.5q-23 147 -28 295q-5 130 -5 260v144q-46 -183 -104 -362
q-48 -150 -109 -296q-54 -133 -128 -257q-36 -60 -86 -120t-113 -101.5t-139 -41.5q-42 0 -79 21q-36 23 -56 59.5t-30 76.5q-21 97 -21 195v41q0 111 6 222q2 30 3 61q6 108 9 217q2 54 2 109q0 54 -2 109q-3 109 -22 216q-13 81 -45 161t-93 138q-21 20 -45 34
q-46 25 -94 25q-65 0 -113 -59q-45 -66 -64 -152.5t-20 -165.5q0 -18 -12.5 -29.5t-30.5 -11.5q-17 0 -29 12t-12 30q0 80 18 168t60 163.5t114 118.5q56 32 118 32q78 0 151 -24.5t132 -77.5q71 -68 109.5 -159.5t54.5 -187.5q19 -111 23 -225q2 -57 2 -113q0 -57 -2 -113
q-4 -110 -9 -219q-2 -33 -3 -65q-6 -100 -6 -201v-60q0 -75 14 -149q5 -26 20 -44t43 -18q22 0 42 12.5t35 28.5q50 55 90 118q43 70 79 145q93 196 158 403q70 219 124 442q41 166 74 334zM877 2022q44 0 76 -32t32 -77t-32 -77t-76 -32q-45 0 -77 32t-32 77t32 77t77 32z
M1152 2022q45 0 76.5 -32t31.5 -77q0 -44 -31.5 -76t-76.5 -32t-77 32t-32 76q0 45 32 77t77 32z" />
    <glyph glyph-name="Yacute" unicode="&#xdd;" horiz-adv-x="1804" 
d="M1266 574q4 99 4 197q0 228 -24 455q-7 64 -15 127q-28 -98 -62 -194q-43 -119 -98 -232q-2 -3 -4 -7q-33 -71 -82.5 -156t-117 -147.5t-153.5 -65.5h-3q-74 0 -134 43q-53 42 -80.5 105.5t-38.5 128.5q-24 138 -29 279l-2 35q0 6 -1 12q-4 141 -30 279q-15 82 -60 150
q-14 20 -34.5 33t-45.5 13q-20 0 -38 -10t-32 -26q-39 -46 -61.5 -112t-31.5 -137t-9 -129q0 -105 32 -210q24 -81 82 -141q13 -12 14 -29v-3q0 -15 -11 -27q-12 -13 -29 -14h-3q-15 0 -27 11q-52 48 -83.5 118.5t-45 149t-13.5 145.5q0 81 15.5 178t57 181t118.5 131
q58 32 123 32q46 0 88 -12.5t78 -41.5q52 -43 80 -105t41 -127q28 -147 33 -297v-7q2 -19 3 -38q4 -133 27 -265q12 -78 52 -145q8 -13 20.5 -22t28.5 -9q14 0 27.5 8t22.5 18q82 85 138 191q81 145 136 303q69 192 110 392q9 30 40 33h21l21 1l21 -1q37 -1 69.5 -17.5
t40.5 -56.5q27 -167 44 -336q22 -215 22 -432q0 -66 -2 -132q73 19 176 37.5l200 34.5l56 9h6q9 0 17 -5q10 -7 13 -20v-5q0 -10 -6 -18q-7 -10 -20 -13q-210 -38 -384 -92q-31 -8 -62 -17q-3 -51 -8 -101q-14 -184 -79.5 -363.5t-210.5 -301.5q-87 -67 -187.5 -97.5
t-209.5 -30.5h-5q-79 0 -153 29q-77 30 -121 104q-29 53 -29 110v7q1 62 26 120q33 79 91.5 145.5t125.5 118.5q102 80 219.5 141.5t238.5 107.5zM1260 482q-30 -10 -59 -22q-116 -44 -227.5 -102t-209.5 -134q-58 -46 -110 -104t-81 -126q-17 -39 -20 -82v-8q0 -39 18 -74
q32 -52 90 -71q55 -19 110 -19h10q117 0 215 65q94 69 149 185t81 247t34 245zM904 2044q79 -1 79 -66q0 -31 -84 -181q-40 -70 -75 -70q-29 0 -31 41q0 35 25 156q25 120 86 120z" />
    <glyph glyph-name="Thorn" unicode="&#xde;" horiz-adv-x="1497" 
d="M430 1270q-85 -30 -154 -96q-82 -81 -124.5 -189.5t-56.5 -220.5q-13 -97 -13 -195q0 -38 2 -76q8 -143 35 -285q49 -262 159 -504q40 -90 93 -174q28 -45 61 -86q4 -5 11 -12t14 -7q55 0 56 671q-2 244 -21 486q-5 268 -62 688zM634 1305q3 -15 5 -31q60 -389 66 -758
q14 -209 16 -419q0 -72 -1 -145q64 22 120 60q108 77 173 192.5t93.5 248.5t28.5 258q0 114 -30.5 220.5t-92 190.5t-155.5 133.5t-220 49.5h-3zM416 1369q-20 140 -46 296q-6 58 -19 114q-2 5 -2 11q0 14 10 26q13 16 33 16q32 0 64.5 -7t60.5 -24q43 -26 53 -75
q7 -52 49 -322q16 1 33 1q120 0 237 -31.5t215 -104.5q88 -68 140.5 -157t75.5 -191.5t23 -209.5q0 -133 -28.5 -271t-94 -259t-174.5 -207q-146 -110 -328 -119q-2 -58 -5 -116q-3 -72 -24 -175.5t-70.5 -184.5t-138.5 -87h-3q-15 0 -27 10q-80 72 -142.5 170t-106.5 196
q-114 252 -165 524q-36 187 -36 387q0 162 34 309.5t109.5 263.5t200.5 185q34 18 72 32z" />
    <glyph glyph-name="germandbls" unicode="&#xdf;" horiz-adv-x="1305" 
d="M146 330q-34 2 -65 14q-21 8 -38.5 23t-19.5 38q-12 150 -30 299q-25 206 -68 408q-8 46 -8 87q1 312 449 395q100 16 202 28.5t203 12.5q42 0 91.5 -6.5t93.5 -26t70 -56.5q21 -34 21 -74q0 -75 -48 -166.5t-110.5 -176.5t-111.5 -143q-132 -158 -277 -305
q155 -22 231 -87.5t122 -145.5q58 -108 58 -228q0 -251 -205.5 -438t-492.5 -187q-220 0 -325 89.5t-111 232.5q0 81 43 148q16 23 36 23q15 0 33 -12q27 -18 27 -40q0 -12 -9 -26q-22 -43 -22 -91q0 -101 80.5 -169.5t256.5 -68.5q193 0 337.5 157t144.5 382q0 98 -55 181
q-79 120 -181.5 161.5t-184.5 41.5q-26 0 -39 26q-3 9 -3 17q0 16 12 29q177 174 336 364q40 48 98.5 126t105.5 162t47 144q0 15 -8 26q-15 21 -39 29q-31 10 -63 10q-62 0 -191.5 -20.5l-222.5 -35.5q-165 -28 -188 -126q-11 -47 -11 -99q0 -59 14 -126q47 -226 73 -456
q17 -137 33 -324q-28 -20 -91 -20z" />
    <glyph glyph-name="agrave" unicode="&#xe0;" horiz-adv-x="1055" 
d="M560 505q-12 -47 -34 -101.5t-58.5 -105t-94 -83t-142.5 -32.5q-50 0 -92 23t-72 64q-38 53 -52.5 112t-14.5 124t24.5 137.5t66.5 125.5q56 69 132 103t164 34q57 0 98 -11q50 -16 105 -38q25 7 49 7q29 0 58 -10q19 -7 34 -22.5t15 -36.5q-2 -46 -2 -94v-31
q0 -73 6 -146q7 -77 26 -152q9 -39 32 -72q6 -9 16 -16.5t22 -7.5q19 0 37.5 16.5t30.5 31.5q61 78 121.5 183t101.5 194q5 12 17 16q5 2 10 2q6 0 13 -3q12 -6 16 -17q3 -6 3 -12t-3 -12l-24 -52q-40 -91 -84 -176t-111 -170q-24 -31 -55.5 -62t-69 -52.5t-78.5 -21.5
q-58 0 -95.5 38t-60 90t-33.5 101q-15 67 -22 135zM553 789l-34 14q-15 8 -30 12.5t-41 4.5q-57 0 -109.5 -34.5t-85.5 -81.5q-27 -40 -44 -95.5t-17 -102.5q0 -45 8 -85t28 -80q23 -51 73 -52q64 3 110.5 65t77.5 144t49 145q13 48 15 146zM322 1301q61 0 86 -120
q25 -121 25 -157q-2 -40 -31 -40q-35 0 -75 70q-84 150 -84 181q0 65 79 66z" />
    <glyph glyph-name="aacute" unicode="&#xe1;" horiz-adv-x="1055" 
d="M560 505q-12 -47 -34 -101.5t-58.5 -105t-94 -83t-142.5 -32.5q-50 0 -92 23t-72 64q-38 53 -52.5 112t-14.5 124t24.5 137.5t66.5 125.5q56 69 132 103t164 34q57 0 98 -11q50 -16 105 -38q25 7 49 7q29 0 58 -10q19 -7 34 -22.5t15 -36.5q-2 -46 -2 -94v-31
q0 -73 6 -146q7 -77 26 -152q9 -39 32 -72q6 -9 16 -16.5t22 -7.5q19 0 37.5 16.5t30.5 31.5q61 78 121.5 183t101.5 194q5 12 17 16q5 2 10 2q6 0 13 -3q12 -6 16 -17q3 -6 3 -12t-3 -12l-24 -52q-40 -91 -84 -176t-111 -170q-24 -31 -55.5 -62t-69 -52.5t-78.5 -21.5
q-58 0 -95.5 38t-60 90t-33.5 101q-15 67 -22 135zM553 789l-34 14q-15 8 -30 12.5t-41 4.5q-57 0 -109.5 -34.5t-85.5 -81.5q-27 -40 -44 -95.5t-17 -102.5q0 -45 8 -85t28 -80q23 -51 73 -52q64 3 110.5 65t77.5 144t49 145q13 48 15 146zM476 1301q79 -2 79 -67
q0 -30 -84 -180q-39 -70 -75 -70q-29 0 -31 40q0 35 25 157q26 120 86 120z" />
    <glyph glyph-name="acircumflex" unicode="&#xe2;" horiz-adv-x="1055" 
d="M560 505q-12 -47 -34 -101.5t-58.5 -105t-94 -83t-142.5 -32.5q-50 0 -92 23t-72 64q-38 53 -52.5 112t-14.5 124t24.5 137.5t66.5 125.5q56 69 132 103t164 34q57 0 98 -11q50 -16 105 -38q25 7 49 7q29 0 58 -10q19 -7 34 -22.5t15 -36.5q-2 -46 -2 -94v-31
q0 -73 6 -146q7 -77 26 -152q9 -39 32 -72q6 -9 16 -16.5t22 -7.5q19 0 37.5 16.5t30.5 31.5q61 78 121.5 183t101.5 194q5 12 17 16q5 2 10 2q6 0 13 -3q12 -6 16 -17q3 -6 3 -12t-3 -12l-24 -52q-40 -91 -84 -176t-111 -170q-24 -31 -55.5 -62t-69 -52.5t-78.5 -21.5
q-58 0 -95.5 38t-60 90t-33.5 101q-15 67 -22 135zM553 789l-34 14q-15 8 -30 12.5t-41 4.5q-57 0 -109.5 -34.5t-85.5 -81.5q-27 -40 -44 -95.5t-17 -102.5q0 -45 8 -85t28 -80q23 -51 73 -52q64 3 110.5 65t77.5 144t49 145q13 48 15 146zM316 1046q-40 -62 -76 -62
q-29 0 -31 41q50 229 197 296q166 -77 212 -296q-2 -40 -31 -40q-36 0 -78 61l-99 144z" />
    <glyph glyph-name="atilde" unicode="&#xe3;" horiz-adv-x="1055" 
d="M560 505q-12 -47 -34 -101.5t-58.5 -105t-94 -83t-142.5 -32.5q-50 0 -92 23t-72 64q-38 53 -52.5 112t-14.5 124t24.5 137.5t66.5 125.5q56 69 132 103t164 34q57 0 98 -11q50 -16 105 -38q25 7 49 7q29 0 58 -10q19 -7 34 -22.5t15 -36.5q-2 -46 -2 -94v-31
q0 -73 6 -146q7 -77 26 -152q9 -39 32 -72q6 -9 16 -16.5t22 -7.5q19 0 37.5 16.5t30.5 31.5q61 78 121.5 183t101.5 194q5 12 17 16q5 2 10 2q6 0 13 -3q12 -6 16 -17q3 -6 3 -12t-3 -12l-24 -52q-40 -91 -84 -176t-111 -170q-24 -31 -55.5 -62t-69 -52.5t-78.5 -21.5
q-58 0 -95.5 38t-60 90t-33.5 101q-15 67 -22 135zM553 789l-34 14q-15 8 -30 12.5t-41 4.5q-57 0 -109.5 -34.5t-85.5 -81.5q-27 -40 -44 -95.5t-17 -102.5q0 -45 8 -85t28 -80q23 -51 73 -52q64 3 110.5 65t77.5 144t49 145q13 48 15 146zM597 1222q13 0 21 -8t8 -26
q0 -17 -8.5 -55.5t-40.5 -86.5q-32 -50 -67 -50q-63 4 -111.5 51t-66.5 49q-25 -1 -47 -35q-23 -57 -39 -57h-8q-21 9 -21 34v8q0 11 38 84.5t81 74.5q45 -1 97.5 -49.5t74.5 -48.5q50 0 64 66q9 49 25 49z" />
    <glyph glyph-name="adieresis" unicode="&#xe4;" horiz-adv-x="1055" 
d="M560 505q-12 -47 -34 -101.5t-58.5 -105t-94 -83t-142.5 -32.5q-50 0 -92 23t-72 64q-38 53 -52.5 112t-14.5 124t24.5 137.5t66.5 125.5q56 69 132 103t164 34q57 0 98 -11q50 -16 105 -38q25 7 49 7q29 0 58 -10q19 -7 34 -22.5t15 -36.5q-2 -46 -2 -94v-31
q0 -73 6 -146q7 -77 26 -152q9 -39 32 -72q6 -9 16 -16.5t22 -7.5q19 0 37.5 16.5t30.5 31.5q61 78 121.5 183t101.5 194q5 12 17 16q5 2 10 2q6 0 13 -3q12 -6 16 -17q3 -6 3 -12t-3 -12l-24 -52q-40 -91 -84 -176t-111 -170q-24 -31 -55.5 -62t-69 -52.5t-78.5 -21.5
q-58 0 -95.5 38t-60 90t-33.5 101q-15 67 -22 135zM553 789l-34 14q-15 8 -30 12.5t-41 4.5q-57 0 -109.5 -34.5t-85.5 -81.5q-27 -40 -44 -95.5t-17 -102.5q0 -45 8 -85t28 -80q23 -51 73 -52q64 3 110.5 65t77.5 144t49 145q13 48 15 146zM295 1272q45 0 76.5 -31.5
t31.5 -76.5t-31.5 -77t-76.5 -32t-77 32t-32 77t32 76.5t77 31.5zM570 1273q45 0 77 -32t32 -77t-32 -76.5t-77 -31.5t-76.5 31.5t-31.5 76.5t31.5 77t76.5 32z" />
    <glyph glyph-name="aring" unicode="&#xe5;" horiz-adv-x="1055" 
d="M560 505q-12 -47 -34 -101.5t-58.5 -105t-94 -83t-142.5 -32.5q-50 0 -92 23t-72 64q-38 53 -52.5 112t-14.5 124t24.5 137.5t66.5 125.5q56 69 132 103t164 34q57 0 98 -11q50 -16 105 -38q25 7 49 7q29 0 58 -10q19 -7 34 -22.5t15 -36.5q-2 -46 -2 -94v-31
q0 -73 6 -146q7 -77 26 -152q9 -39 32 -72q6 -9 16 -16.5t22 -7.5q19 0 37.5 16.5t30.5 31.5q61 78 121.5 183t101.5 194q5 12 17 16q5 2 10 2q6 0 13 -3q12 -6 16 -17q3 -6 3 -12t-3 -12l-24 -52q-40 -91 -84 -176t-111 -170q-24 -31 -55.5 -62t-69 -52.5t-78.5 -21.5
q-58 0 -95.5 38t-60 90t-33.5 101q-15 67 -22 135zM553 789l-34 14q-15 8 -30 12.5t-41 4.5q-57 0 -109.5 -34.5t-85.5 -81.5q-27 -40 -44 -95.5t-17 -102.5q0 -45 8 -85t28 -80q23 -51 73 -52q64 3 110.5 65t77.5 144t49 145q13 48 15 146zM402 1374q80 0 136.5 -56.5
t56.5 -136.5t-56.5 -136.5t-136.5 -56.5t-136.5 56.5t-56.5 136.5t56.5 136.5t136.5 56.5zM402 1304q-51 0 -87 -36t-36 -87t36 -87t87 -36t87 36t36 87t-36 87t-87 36z" />
    <glyph glyph-name="ae" unicode="&#xe6;" horiz-adv-x="1223" 
d="M551 686q0 51 2 103l-34 14q-15 8 -30 12.5t-41 4.5q-57 0 -109.5 -34.5t-85.5 -81.5q-27 -40 -44 -95.5t-17 -102.5q0 -45 8 -85t28 -80q22 -47 73 -52q64 3 110.5 65t77.5 144t49 145q8 25 13 43zM755 562q12 -2 25 -2q16 0 32 3q29 4 52 19q35 27 45 74.5t10 87.5
q0 39 -7.5 82t-28.5 78q-5 9 -13.5 15.5t-19.5 6.5q-9 0 -16.5 -5.5t-12.5 -13.5q-29 -40 -42 -88q-26 -96 -26 -195q0 -22 1 -43q0 -9 1 -19zM559 502q-12 -46 -33 -98q-22 -55 -58.5 -105.5t-94 -83t-142.5 -32.5q-50 0 -92 23t-72 64q-38 53 -52.5 112t-14.5 124
t24.5 137.5t66.5 125.5q56 69 132 103t164 34q57 0 97.5 -11.5t88.5 -31.5l15 -5q7 20 15 39q33 76 100 115q41 21 87 21q62 0 113 -37q54 -45 73.5 -115.5t19.5 -136.5q0 -61 -17.5 -123.5t-70.5 -101.5q-57 -35 -123 -35q-11 0 -23 1q12 -99 44 -192q10 -31 24 -60
q8 -16 20.5 -29.5t31.5 -13.5t36.5 11t31.5 25q94 93 181 215.5t162 238.5q7 10 13 21q8 10 20 13h6q9 0 17 -4q11 -8 13 -20q1 -4 1 -7q0 -9 -5 -16l-77 -121q-61 -101 -128 -197t-149 -177q-40 -41 -92.5 -75.5t-110.5 -34.5q-43 0 -76 25t-56.5 60.5t-38.5 71.5
q-57 136 -71 283z" />
    <glyph glyph-name="ccedilla" unicode="&#xe7;" horiz-adv-x="679" 
d="M272 111q-81 5 -133 44q-59 43 -89 114t-40 153.5t-10 158.5q0 49 10.5 99.5t38.5 93.5q31 47 79.5 75t105.5 28q64 0 117 -42q51 -51 51 -117q0 -20 -5 -42q-4 -15 -17 -24q-10 -6 -22 -6h-6q-16 4 -25 17q-6 10 -6 22v6q2 13 2 25q0 8 -1 16q-1 18 -9 33.5t-27 15.5
q-11 0 -21 -4q-34 -17 -50 -60.5t-20 -78.5q-4 -28 -4 -57q0 -42 6 -104.5t23.5 -124t52 -103.5t91.5 -42q58 0 120.5 54.5t119 134t97.5 158.5t58 133q3 12 14 18q7 4 15 4q4 0 8 -1q13 -4 19 -14q4 -7 4 -16q0 -4 -1 -8q-31 -110 -108.5 -239t-184.5 -222
q-78 -68 -163 -89q-49 -75 -51 -95q213 -118 213 -257q0 -68 -60 -131.5t-183 -63.5q-70 0 -109.5 39.5t-39.5 109.5q0 35 9 72q1 5 3 10q9 18 33 18q34 0 34 -19q0 -10 -5 -25q-7 -24 -7 -56q0 -28 20.5 -52.5t70.5 -24.5q51 0 89 32.5t38 90.5q0 59 -40 107t-118 86
q-34 19 -34 44q0 31 47 106z" />
    <glyph glyph-name="egrave" unicode="&#xe8;" horiz-adv-x="670" 
d="M209 485q12 -99 44 -192q10 -31 24 -60q8 -16 20.5 -29.5t31.5 -13.5t36.5 11t31.5 25q94 93 181 215.5t162 238.5q7 10 13 21q8 10 20 13l6 1q9 0 17 -5q11 -8 13 -20q1 -4 1 -7q0 -8 -5 -16l-77 -121q-61 -101 -128 -197t-149 -177q-40 -41 -92.5 -75.5t-110.5 -34.5
q-43 0 -76 25t-56.5 60.5t-38.5 71.5q-62 148 -73 310q-2 24 -3 49q-1 16 -1 33q0 57 8 124q9 86 42 162t100 115q41 21 87 21q62 0 113 -37q54 -45 73.5 -115.5t19.5 -136.5q0 -61 -17.5 -123.5t-70.5 -101.5q-57 -35 -123 -35q-11 0 -23 1zM202 562q12 -1 24 -1q16 0 33 2
q29 4 52 19q35 27 45 74.5t10 87.5q0 39 -7.5 82t-28.5 78q-5 9 -13.5 15.5t-19.5 6.5q-9 0 -16.5 -5.5t-12.5 -13.5q-29 -40 -42 -88q-26 -96 -26 -195q0 -21 1 -43q0 -9 1 -19zM179 1473q61 0 86 -120q25 -121 25 -156q-2 -41 -31 -41q-35 0 -75 70q-84 150 -84 181
q0 65 79 66z" />
    <glyph glyph-name="eacute" unicode="&#xe9;" horiz-adv-x="670" 
d="M209 485q12 -99 44 -192q10 -31 24 -60q8 -16 20.5 -29.5t31.5 -13.5t36.5 11t31.5 25q94 93 181 215.5t162 238.5q7 10 13 21q8 10 20 13l6 1q9 0 17 -5q11 -8 13 -20q1 -4 1 -7q0 -8 -5 -16l-77 -121q-61 -101 -128 -197t-149 -177q-40 -41 -92.5 -75.5t-110.5 -34.5
q-43 0 -76 25t-56.5 60.5t-38.5 71.5q-62 148 -73 310q-2 24 -3 49q-1 16 -1 33q0 57 8 124q9 86 42 162t100 115q41 21 87 21q62 0 113 -37q54 -45 73.5 -115.5t19.5 -136.5q0 -61 -17.5 -123.5t-70.5 -101.5q-57 -35 -123 -35q-11 0 -23 1zM202 562q12 -1 24 -1q16 0 33 2
q29 4 52 19q35 27 45 74.5t10 87.5q0 39 -7.5 82t-28.5 78q-5 9 -13.5 15.5t-19.5 6.5q-9 0 -16.5 -5.5t-12.5 -13.5q-29 -40 -42 -88q-26 -96 -26 -195q0 -21 1 -43q0 -9 1 -19zM332 1439q79 -1 79 -66q0 -31 -84 -181q-40 -70 -75 -70q-29 0 -31 41q0 35 25 156
q25 120 86 120z" />
    <glyph glyph-name="ecircumflex" unicode="&#xea;" horiz-adv-x="670" 
d="M209 485q12 -99 44 -192q10 -31 24 -60q8 -16 20.5 -29.5t31.5 -13.5t36.5 11t31.5 25q94 93 181 215.5t162 238.5q7 10 13 21q8 10 20 13l6 1q9 0 17 -5q11 -8 13 -20q1 -4 1 -7q0 -8 -5 -16l-77 -121q-61 -101 -128 -197t-149 -177q-40 -41 -92.5 -75.5t-110.5 -34.5
q-43 0 -76 25t-56.5 60.5t-38.5 71.5q-62 148 -73 310q-2 24 -3 49q-1 16 -1 33q0 57 8 124q9 86 42 162t100 115q41 21 87 21q62 0 113 -37q54 -45 73.5 -115.5t19.5 -136.5q0 -61 -17.5 -123.5t-70.5 -101.5q-57 -35 -123 -35q-11 0 -23 1zM202 562q12 -1 24 -1q16 0 33 2
q29 4 52 19q35 27 45 74.5t10 87.5q0 39 -7.5 82t-28.5 78q-5 9 -13.5 15.5t-19.5 6.5q-9 0 -16.5 -5.5t-12.5 -13.5q-29 -40 -42 -88q-26 -96 -26 -195q0 -21 1 -43q0 -9 1 -19zM170 1179q-40 -62 -76 -62q-29 0 -31 41q50 229 197 296q166 -77 212 -296q-2 -40 -31 -40
q-36 0 -78 61l-99 144z" />
    <glyph glyph-name="edieresis" unicode="&#xeb;" horiz-adv-x="670" 
d="M209 485q12 -99 44 -192q10 -31 24 -60q8 -16 20.5 -29.5t31.5 -13.5t36.5 11t31.5 25q94 93 181 215.5t162 238.5q7 10 13 21q8 10 20 13l6 1q9 0 17 -5q11 -8 13 -20q1 -4 1 -7q0 -8 -5 -16l-77 -121q-61 -101 -128 -197t-149 -177q-40 -41 -92.5 -75.5t-110.5 -34.5
q-43 0 -76 25t-56.5 60.5t-38.5 71.5q-62 148 -73 310q-2 24 -3 49q-1 16 -1 33q0 57 8 124q9 86 42 162t100 115q41 21 87 21q62 0 113 -37q54 -45 73.5 -115.5t19.5 -136.5q0 -61 -17.5 -123.5t-70.5 -101.5q-57 -35 -123 -35q-11 0 -23 1zM202 562q12 -1 24 -1q16 0 33 2
q29 4 52 19q35 27 45 74.5t10 87.5q0 39 -7.5 82t-28.5 78q-5 9 -13.5 15.5t-19.5 6.5q-9 0 -16.5 -5.5t-12.5 -13.5q-29 -40 -42 -88q-26 -96 -26 -195q0 -21 1 -43q0 -9 1 -19zM147 1388q44 0 76 -32t32 -77t-32 -77t-76 -32q-45 0 -77 32t-32 77t32 77t77 32zM422 1388
q45 0 76.5 -32t31.5 -77q0 -44 -31.5 -76t-76.5 -32t-77 32t-32 76q0 45 32 77t77 32z" />
    <glyph glyph-name="igrave" unicode="&#xec;" horiz-adv-x="505" 
d="M644 678q-38 -142 -83 -282.5t-109 -273.5q-42 -92 -106 -171q-16 -20 -36 -36q-36 -32 -83 -32h-6q-60 9 -99 67t-61 130t-31 124q-26 142 -29 287q-1 37 -1 73q0 125 13 249q2 15 13 24.5t25 9.5q49 0 98 -18q12 -6 23 -13q29 -18 29 -51q-10 -98 -10 -196q0 -24 1 -49
q2 -127 20 -251q4 -26 10 -51q8 -42 18 -83q6 -24 13 -47q7 -21 15 -41q6 -15 15 -27q1 -3 4 -5.5t6 -2.5q1 0 2.5 0.5t2.5 1.5l2 2q7 7 13 15q17 23 30 49q22 37 41 76q124 259 201 538q4 13 14 19q7 4 16 4q4 0 8 -1q12 -4 18 -15q4 -7 4 -15q0 -4 -1 -8zM24 1301
q60 0 85 -120q26 -121 26 -156q-2 -41 -31 -41q-36 0 -75 71q-84 149 -84 180q0 65 79 66z" />
    <glyph glyph-name="iacute" unicode="&#xed;" horiz-adv-x="505" 
d="M644 678q-38 -142 -83 -282.5t-109 -273.5q-42 -92 -106 -171q-16 -20 -36 -36q-36 -32 -83 -32h-6q-60 9 -99 67t-61 130t-31 124q-26 142 -29 287q-1 37 -1 73q0 125 13 249q2 15 13 24.5t25 9.5q49 0 98 -18q12 -6 23 -13q29 -18 29 -51q-10 -98 -10 -196q0 -24 1 -49
q2 -127 20 -251q4 -26 10 -51q8 -42 18 -83q6 -24 13 -47q7 -21 15 -41q6 -15 15 -27q1 -3 4 -5.5t6 -2.5q1 0 2.5 0.5t2.5 1.5l2 2q7 7 13 15q17 23 30 49q22 37 41 76q124 259 201 538q4 13 14 19q7 4 16 4q4 0 8 -1q12 -4 18 -15q4 -7 4 -15q0 -4 -1 -8zM190 1301
q78 -1 78 -66q0 -31 -84 -181q-39 -70 -75 -70q-29 0 -31 41q0 35 26 156q25 120 86 120z" />
    <glyph glyph-name="icircumflex" unicode="&#xee;" horiz-adv-x="505" 
d="M645 678q-38 -142 -83 -282.5t-109 -273.5q-42 -92 -106 -171q-16 -20 -36 -36q-36 -32 -83 -32h-6q-60 9 -99 67t-61 130t-31 124q-26 142 -29 287q-1 37 -1 73q0 125 13 249q2 15 13 24.5t25 9.5q49 0 98 -18q12 -6 23 -13q29 -18 29 -51q-10 -98 -10 -196q0 -24 1 -49
q2 -127 20 -251q4 -26 10 -51q8 -42 18 -83q6 -24 13 -47q7 -21 15 -41q6 -15 15 -27q1 -3 4 -5.5t6 -2.5q1 0 2.5 0.5t2.5 1.5l2 2q7 7 13 15q17 23 30 49q22 37 41 76q124 259 201 538q4 13 14 19q7 4 16 4q4 0 8 -1q12 -4 18 -15q4 -7 4 -15q0 -4 -1 -8zM23 1046
q-40 -62 -76 -62q-29 0 -31 41q50 229 197 296q166 -77 212 -296q-2 -40 -31 -40q-36 0 -78 61l-99 144z" />
    <glyph glyph-name="idieresis" unicode="&#xef;" horiz-adv-x="505" 
d="M644 678q-38 -142 -83 -282.5t-109 -273.5q-42 -92 -106 -171q-16 -20 -36 -36q-36 -32 -83 -32h-6q-60 9 -99 67t-61 130t-31 124q-26 142 -29 287q-1 37 -1 73q0 125 13 249q2 15 13 24.5t25 9.5q49 0 98 -18q12 -6 23 -13q29 -18 29 -51q-10 -98 -10 -196q0 -24 1 -49
q2 -127 20 -251q4 -26 10 -51q8 -42 18 -83q6 -24 13 -47q7 -21 15 -41q6 -15 15 -27q1 -3 4 -5.5t6 -2.5q1 0 2.5 0.5t2.5 1.5l2 2q7 7 13 15q17 23 30 49q22 37 41 76q124 259 201 538q4 13 14 19q7 4 16 4q4 0 8 -1q12 -4 18 -15q4 -7 4 -15q0 -4 -1 -8zM1 1273
q45 0 77 -32t32 -77q0 -44 -32 -76t-77 -32t-76.5 32t-31.5 76q0 45 31.5 77t76.5 32zM276 1273q45 0 77 -31.5t32 -76.5t-32 -77t-77 -32t-76.5 32t-31.5 77t31.5 76.5t76.5 31.5z" />
    <glyph glyph-name="eth" unicode="&#xf0;" horiz-adv-x="1058" 
d="M528 375q-43 75 -71 157q-26 74 -44 151q-52 19 -97 19q-73 0 -127 -85.5t-54 -263.5q0 -124 42.5 -181t101.5 -57q49 0 88 29q54 43 94 105.5t67 125.5zM543 1172q2 -88 11 -176q13 -131 41 -260q10 -45 22 -90q1 6 3 12q37 157 56 316q9 68 14 137q4 54 4 108
q0 55 -5.5 113t-21.5 111l-8 20.5t-12.5 22t-17.5 9.5q-9 0 -17.5 -6.5t-13.5 -14.5q-19 -25 -27 -54q-16 -53 -22 -109q-2 -18 -3 -35h34q68 0 68 -32q-3 -72 -28 -72h-77zM354 1276q3 35 9 76q11 86 46 159t104 103q28 12 58 12q29 0 57 -12q63 -29 94 -99.5t40 -153.5
t9 -142q0 -129 -19 -258q-21 -173 -63 -342q-13 -53 -29 -104q37 -99 107 -177q13 -14 29.5 -23t35.5 -9q41 0 84.5 41t84 102t73.5 122l55 104l11 22q6 11 18 15q5 2 9 2q7 0 14 -4q12 -6 16 -18q1 -4 1 -9q0 -7 -3 -14l-22 -44l-69.5 -132.5t-89 -139.5t-107 -111
t-122.5 -44q-64 0 -115 28.5t-91 76.5q-34 -70 -82 -134.5t-113 -107t-149 -42.5q-140 0 -216 88t-76 266q0 185 88 297.5t259 112.5q53 0 104 -12q-25 151 -38 303q-4 49 -5 98h-173q-24 1 -24 24v52q2 28 52 28h148z" />
    <glyph glyph-name="ntilde" unicode="&#xf1;" horiz-adv-x="929" 
d="M262 454q14 41 31 81q46 119 114 227q15 24 37 50.5t49 45.5t57 19q19 0 36 -7q54 -30 68 -102.5t14 -129.5l1 -44q0 -67 -5 -133q-4 -89 -11 -177q0 -10 -1 -20t-1 -20q-12 -146 -13 -294q0 -42 3 -85q0 -7 3 -12q1 -2 2 -3l2 -2h1q3 0 8 4.5t7 8.5q98 212 182 436
q65 172 137 341q4 8 7 15l20 45q6 12 18 16q4 2 9 2q7 0 14 -4q12 -6 16 -17q2 -5 2 -10q0 -7 -4 -14q-10 -21 -19 -42q-3 -8 -6 -15q-76 -179 -147 -382q-81 -231 -159 -404q-14 -31 -37 -71t-54 -71t-68 -31q-21 0 -40 8q-55 31 -71.5 103t-16.5 131q-1 38 -1 75
q0 51 2 101q5 98 12 196q1 19 3 39q11 138 13 276v25q0 38 -2 75q-1 3 -2 6.5t-3 5.5h-3q-5 0 -10 -4.5t-8 -8.5q-48 -85 -84 -177q-30 -72 -54 -147q-20 -61 -33 -124q0 -1 -1 -2q-3 -14 -13.5 -21.5t-23.5 -8.5q-50 0 -97 17q-20 7 -38 21t-20 37q-5 101 -18 201
q-7 57 -19 114q-7 33 -18 65q-7 25 -22 47q-7 10 -7 22q0 6 2 13q7 19 26 25q31 7 63 7q38 0 73 -17q11 -6 22 -15.5t17 -20.5q22 -50 33 -104q13 -63 21 -126q2 -17 5 -35zM509 1221q13 0 21 -8t8 -25t-8.5 -55.5t-40.5 -87.5t-67 -49q-63 4 -111 51t-67 48q-24 0 -47 -35
q-23 -56 -39 -56h-8q-21 8 -21 33v8q0 12 38 85.5t81 74.5q45 -1 97.5 -49.5t74.5 -48.5q50 0 65 65q8 49 24 49z" />
    <glyph glyph-name="ograve" unicode="&#xf2;" horiz-adv-x="891" 
d="M502 389q-37 -5 -75 -5q-61 0 -103 31.5t-63 81.5t-21 106q0 85 48.5 144t137.5 59q43 0 79 -25q36 -26 55 -69t26.5 -91.5t7.5 -89.5q0 -21 -1 -43q85 26 135 50t126 81q68 51 124 109q10 9 22 9t22 -8q9 -10 9 -22t-8 -22q-56 -57 -122 -107q-74 -58 -148 -102
t-170 -70q-14 -100 -63.5 -199.5t-145.5 -141.5q-36 -13 -74 -13q-46 0 -89 17q-53 23 -92.5 65t-64.5 94q-54 117 -54 240q0 109 44 203t126.5 151.5t198.5 57.5h1q16 -4 24 -17q7 -10 7 -21q0 -4 -1 -8q-3 -13 -13 -21.5t-24 -8.5q-58 0 -92 -36t-51 -90t-22.5 -111.5
t-5.5 -98.5q0 -32 7 -83.5t24 -103.5t46 -88t72 -36q37 0 66 28t45 60q35 68 50 144zM514 469q3 31 3 62q0 19 -3 51.5t-12 65t-25.5 55t-43.5 22.5q-30 0 -47 -20.5t-24 -49t-7 -52.5q0 -29 9.5 -62t30.5 -56t57 -23q31 0 62 7zM254 1301q60 0 86 -120q25 -121 25 -156
q-2 -41 -31 -41q-35 0 -75 70q-84 150 -84 181q0 65 79 66z" />
    <glyph glyph-name="oacute" unicode="&#xf3;" horiz-adv-x="891" 
d="M502 389q-37 -5 -75 -5q-61 0 -103 31.5t-63 81.5t-21 106q0 85 48.5 144t137.5 59q43 0 79 -25q36 -26 55 -69t26.5 -91.5t7.5 -89.5q0 -21 -1 -43q85 26 135 50t126 81q68 51 124 109q10 9 22 9t22 -8q9 -10 9 -22t-8 -22q-56 -57 -122 -107q-74 -58 -148 -102
t-170 -70q-14 -100 -63.5 -199.5t-145.5 -141.5q-36 -13 -74 -13q-46 0 -89 17q-53 23 -92.5 65t-64.5 94q-54 117 -54 240q0 109 44 203t126.5 151.5t198.5 57.5h1q16 -4 24 -17q7 -10 7 -21q0 -4 -1 -8q-3 -13 -13 -21.5t-24 -8.5q-58 0 -92 -36t-51 -90t-22.5 -111.5
t-5.5 -98.5q0 -32 7 -83.5t24 -103.5t46 -88t72 -36q37 0 66 28t45 60q35 68 50 144zM514 469q3 31 3 62q0 19 -3 51.5t-12 65t-25.5 55t-43.5 22.5q-30 0 -47 -20.5t-24 -49t-7 -52.5q0 -29 9.5 -62t30.5 -56t57 -23q31 0 62 7zM396 1301q79 -1 79 -66q0 -31 -84 -180
q-39 -71 -75 -71q-29 0 -31 41q0 35 26 156q25 120 85 120z" />
    <glyph glyph-name="ocircumflex" unicode="&#xf4;" horiz-adv-x="891" 
d="M502 389q-37 -5 -75 -5q-61 0 -103 31.5t-63 81.5t-21 106q0 85 48.5 144t137.5 59q43 0 79 -25q36 -26 55 -69t26.5 -91.5t7.5 -89.5q0 -21 -1 -43q85 26 135 50t126 81q68 51 124 109q10 9 22 9t22 -8q9 -10 9 -22t-8 -22q-56 -57 -122 -107q-74 -58 -148 -102
t-170 -70q-14 -100 -63.5 -199.5t-145.5 -141.5q-36 -13 -74 -13q-46 0 -89 17q-53 23 -92.5 65t-64.5 94q-54 117 -54 240q0 109 44 203t126.5 151.5t198.5 57.5h1q16 -4 24 -17q7 -10 7 -21q0 -4 -1 -8q-3 -13 -13 -21.5t-24 -8.5q-58 0 -92 -36t-51 -90t-22.5 -111.5
t-5.5 -98.5q0 -32 7 -83.5t24 -103.5t46 -88t72 -36q37 0 66 28t45 60q35 68 50 144zM514 469q3 31 3 62q0 19 -3 51.5t-12 65t-25.5 55t-43.5 22.5q-30 0 -47 -20.5t-24 -49t-7 -52.5q0 -29 9.5 -62t30.5 -56t57 -23q31 0 62 7zM211 1046q-40 -62 -76 -62q-29 0 -31 41
q50 229 197 296q166 -77 212 -296q-2 -40 -31 -40q-36 0 -78 61l-99 144z" />
    <glyph glyph-name="otilde" unicode="&#xf5;" horiz-adv-x="891" 
d="M502 389q-37 -5 -75 -5q-61 0 -103 31.5t-63 81.5t-21 106q0 85 48.5 144t137.5 59q43 0 79 -25q36 -26 55 -69t26.5 -91.5t7.5 -89.5q0 -21 -1 -43q85 26 135 50t126 81q68 51 124 109q10 9 22 9t22 -8q9 -10 9 -22t-8 -22q-56 -57 -122 -107q-74 -58 -148 -102
t-170 -70q-14 -100 -63.5 -199.5t-145.5 -141.5q-36 -13 -74 -13q-46 0 -89 17q-53 23 -92.5 65t-64.5 94q-54 117 -54 240q0 109 44 203t126.5 151.5t198.5 57.5h1q16 -4 24 -17q7 -10 7 -21q0 -4 -1 -8q-3 -13 -13 -21.5t-24 -8.5q-58 0 -92 -36t-51 -90t-22.5 -111.5
t-5.5 -98.5q0 -32 7 -83.5t24 -103.5t46 -88t72 -36q37 0 66 28t45 60q35 68 50 144zM514 469q3 31 3 62q0 19 -3 51.5t-12 65t-25.5 55t-43.5 22.5q-30 0 -47 -20.5t-24 -49t-7 -52.5q0 -29 9.5 -62t30.5 -56t57 -23q31 0 62 7zM513 1221q12 0 20.5 -8t8.5 -25t-8.5 -55.5
t-40.5 -87.5t-67 -49q-63 4 -111.5 51t-66.5 48q-25 0 -47 -35q-23 -56 -39 -56h-8q-21 8 -21 33v8q0 12 37.5 85.5t81.5 74.5q45 -1 97.5 -49.5t74.5 -48.5q50 0 64 65q9 49 25 49z" />
    <glyph glyph-name="odieresis" unicode="&#xf6;" horiz-adv-x="891" 
d="M502 389q-37 -5 -75 -5q-61 0 -103 31.5t-63 81.5t-21 106q0 85 48.5 144t137.5 59q43 0 79 -25q36 -26 55 -69t26.5 -91.5t7.5 -89.5q0 -21 -1 -43q85 26 135 50t126 81q68 51 124 109q10 9 22 9t22 -8q9 -10 9 -22t-8 -22q-56 -57 -122 -107q-74 -58 -148 -102
t-170 -70q-14 -100 -63.5 -199.5t-145.5 -141.5q-36 -13 -74 -13q-46 0 -89 17q-53 23 -92.5 65t-64.5 94q-54 117 -54 240q0 109 44 203t126.5 151.5t198.5 57.5h1q16 -4 24 -17q7 -10 7 -21q0 -4 -1 -8q-3 -13 -13 -21.5t-24 -8.5q-58 0 -92 -36t-51 -90t-22.5 -111.5
t-5.5 -98.5q0 -32 7 -83.5t24 -103.5t46 -88t72 -36q37 0 66 28t45 60q35 68 50 144zM514 469q3 31 3 62q0 19 -3 51.5t-12 65t-25.5 55t-43.5 22.5q-30 0 -47 -20.5t-24 -49t-7 -52.5q0 -29 9.5 -62t30.5 -56t57 -23q31 0 62 7zM171 1273q45 0 76.5 -32t31.5 -77
t-31.5 -76.5t-76.5 -31.5t-77 31.5t-32 76.5t32 77t77 32zM446 1273q45 0 77 -31.5t32 -76.5t-32 -77t-77 -32t-76.5 32t-31.5 77t31.5 76.5t76.5 31.5z" />
    <glyph glyph-name="divide" unicode="&#xf7;" horiz-adv-x="1147" 
d="M958 822q79 0 79 -65q0 -60 -79 -60q-361 2 -890 6q-58 1 -58 48q0 5 1 11q7 57 57 57q250 2 890 3zM550 526q57 0 74.5 -39t17.5 -93q-4 -112 -104 -112q-126 0 -132 92q0 98 38 124.5t106 27.5zM549 1237q57 0 74.5 -39t17.5 -93q-3 -112 -104 -112q-126 0 -132 92
q0 98 38 125t106 27z" />
    <glyph glyph-name="oslash" unicode="&#xf8;" horiz-adv-x="891" 
d="M514 469q3 31 3 62q0 19 -3 51.5t-12 65t-25.5 55t-43.5 22.5q-30 0 -47 -20.5t-24 -49t-7 -52.5q0 -29 9.5 -62t30.5 -56t57 -23q31 0 62 7zM317 797q-27 -9 -46 -29q-34 -36 -51 -90t-22.5 -111.5t-5.5 -98.5q0 -32 7 -83l3 -23l46 174q-8 32 -8 67q0 85 49 144
q9 12 21 21q3 15 7 29zM250 221q9 -15 19 -28q29 -36 72 -36q37 0 66 28t45 60q35 68 50 144q-37 -5 -75 -5q-61 0 -103 32q-11 8 -20 17zM396 804q14 2 30 2q43 0 79 -25q36 -26 55 -69t26.5 -91.5t7.5 -89.5q0 -21 -1 -43q85 26 135 50t126 81q68 51 124 109q10 9 22 9
t22 -8q9 -10 9 -22t-8 -22q-56 -57 -122 -107q-74 -58 -148 -102t-170 -70q-14 -100 -63.5 -199.5t-145.5 -141.5q-36 -13 -74 -13q-46 0 -89 17l-59 -231q-15 -53 -56 -53q-31 2 -31 31q0 17 73 299q-10 9 -19 19q-40 42 -65 94q-54 117 -54 240q0 109 44 203t126.5 151.5
t198.5 57.5h1q16 -4 24 -17q1 -1 2 -3q8 -7 8 -19q0 -3 -8 -37z" />
    <glyph glyph-name="ugrave" unicode="&#xf9;" horiz-adv-x="1076" 
d="M586 940l4 32q2 15 13 24t25 9q44 0 89 -9q16 -4 31 -10q14 -6 23 -18q7 -10 7 -23v-6q-16 -122 -17 -246q0 -31 3 -62q3 -46 10 -92q2 -18 10 -52.5t23 -64.5t38 -30q32 0 80 40.5t97.5 95t87 102.5t50.5 66q8 11 20 13h5q9 0 18 -5q11 -8 13 -20v-5q0 -9 -5 -18
l-82.5 -112.5t-104.5 -121t-120 -97t-127 -38.5q-29 0 -56 9q-79 34 -111 121.5t-37 175.5q-23 -63 -56 -130t-78 -125t-102.5 -95t-129.5 -37q-44 0 -82 22q-55 34 -82 98.5t-35 138.5t-8 131v27q3 103 20 205q6 37 14 73q8 38 22 75q12 24 36 24q43 0 86 -12q17 -4 33 -13
q24 -15 24 -41q0 -6 -1 -12q-18 -65 -27 -131q-13 -85 -15 -170q0 -33 2 -66q2 -46 8 -92q2 -21 10.5 -58t24.5 -68.5t42 -31.5q27 0 54.5 27.5t50.5 60.5t35 54q27 47 50 96q17 35 31 72q34 95 58 193q16 63 28 127zM312 1410q61 0 86 -120q25 -121 25 -156q-2 -41 -31 -41
q-35 0 -75 70q-84 150 -84 181q0 65 79 66z" />
    <glyph glyph-name="uacute" unicode="&#xfa;" horiz-adv-x="1076" 
d="M586 940l4 32q2 15 13 24t25 9q44 0 89 -9q16 -4 31 -10q14 -6 23 -18q7 -10 7 -23v-6q-16 -122 -17 -246q0 -31 3 -62q3 -46 10 -92q2 -18 10 -52.5t23 -64.5t38 -30q32 0 80 40.5t97.5 95t87 102.5t50.5 66q8 11 20 13h5q9 0 18 -5q11 -8 13 -20v-5q0 -9 -5 -18
l-82.5 -112.5t-104.5 -121t-120 -97t-127 -38.5q-29 0 -56 9q-79 34 -111 121.5t-37 175.5q-23 -63 -56 -130t-78 -125t-102.5 -95t-129.5 -37q-44 0 -82 22q-55 34 -82 98.5t-35 138.5t-8 131v27q3 103 20 205q6 37 14 73q8 38 22 75q12 24 36 24q43 0 86 -12q17 -4 33 -13
q24 -15 24 -41q0 -6 -1 -12q-18 -65 -27 -131q-13 -85 -15 -170q0 -33 2 -66q2 -46 8 -92q2 -21 10.5 -58t24.5 -68.5t42 -31.5q27 0 54.5 27.5t50.5 60.5t35 54q27 47 50 96q17 35 31 72q34 95 58 193q16 63 28 127zM472 1445q79 -1 79 -66q0 -31 -84 -181q-40 -70 -75 -70
q-29 0 -31 41q0 35 25 156q25 120 86 120z" />
    <glyph glyph-name="ucircumflex" unicode="&#xfb;" horiz-adv-x="1076" 
d="M586 940l4 32q2 15 13 24t25 9q44 0 89 -9q16 -4 31 -10q14 -6 23 -18q7 -10 7 -23v-6q-16 -122 -17 -246q0 -31 3 -62q3 -46 10 -92q2 -18 10 -52.5t23 -64.5t38 -30q32 0 80 40.5t97.5 95t87 102.5t50.5 66q8 11 20 13h5q9 0 18 -5q11 -8 13 -20v-5q0 -9 -5 -18
l-82.5 -112.5t-104.5 -121t-120 -97t-127 -38.5q-29 0 -56 9q-79 34 -111 121.5t-37 175.5q-23 -63 -56 -130t-78 -125t-102.5 -95t-129.5 -37q-44 0 -82 22q-55 34 -82 98.5t-35 138.5t-8 131v27q3 103 20 205q6 37 14 73q8 38 22 75q12 24 36 24q43 0 86 -12q17 -4 33 -13
q24 -15 24 -41q0 -6 -1 -12q-18 -65 -27 -131q-13 -85 -15 -170q0 -33 2 -66q2 -46 8 -92q2 -21 10.5 -58t24.5 -68.5t42 -31.5q27 0 54.5 27.5t50.5 60.5t35 54q27 47 50 96q17 35 31 72q34 95 58 193q16 63 28 127zM320 1219q-40 -62 -76 -62q-29 0 -31 41q50 229 197 296
q166 -77 212 -296q-2 -40 -31 -40q-36 0 -78 61l-99 144z" />
    <glyph glyph-name="udieresis" unicode="&#xfc;" horiz-adv-x="1076" 
d="M586 940l4 32q2 15 13 24t25 9q44 0 89 -9q16 -4 31 -10q14 -6 23 -18q7 -10 7 -23v-6q-16 -122 -17 -246q0 -31 3 -62q3 -46 10 -92q2 -18 10 -52.5t23 -64.5t38 -30q32 0 80 40.5t97.5 95t87 102.5t50.5 66q8 11 20 13h5q9 0 18 -5q11 -8 13 -20v-5q0 -9 -5 -18
l-82.5 -112.5t-104.5 -121t-120 -97t-127 -38.5q-29 0 -56 9q-79 34 -111 121.5t-37 175.5q-23 -63 -56 -130t-78 -125t-102.5 -95t-129.5 -37q-44 0 -82 22q-55 34 -82 98.5t-35 138.5t-8 131v27q3 103 20 205q6 37 14 73q8 38 22 75q12 24 36 24q43 0 86 -12q17 -4 33 -13
q24 -15 24 -41q0 -6 -1 -12q-18 -65 -27 -131q-13 -85 -15 -170q0 -33 2 -66q2 -46 8 -92q2 -21 10.5 -58t24.5 -68.5t42 -31.5q27 0 54.5 27.5t50.5 60.5t35 54q27 47 50 96q17 35 31 72q34 95 58 193q16 63 28 127zM304 1429q44 0 76 -32t32 -77t-32 -77t-76 -32
q-45 0 -77 32t-32 77t32 77t77 32zM579 1429q45 0 76.5 -32t31.5 -77q0 -44 -31.5 -76t-76.5 -32t-77 32t-32 76q0 45 32 77t77 32z" />
    <glyph glyph-name="yacute" unicode="&#xfd;" horiz-adv-x="1147" 
d="M612 634q-9 -24 -19 -48q-24 -61 -61.5 -126t-87 -121t-111 -91.5t-134.5 -35.5q-39 0 -74 18q-80 50 -105 169q-20 94 -20 194q0 27 1 55q7 130 23 213q3 14 13.5 22.5t24.5 8.5q24 0 50 -2.5t49 -11.5q17 -6 31 -17q18 -16 18 -39v-5q-15 -96 -18 -193v-26
q0 -54 6 -116q9 -79 36 -136q12 -28 40 -28q20 0 39.5 10t34.5 23q58 51 102 122t72 142q31 75 50 154v4q0 11 5 20q8 15 25 19q19 4 39 4q7 0 15 -1q30 -2 60 -9q16 -4 30.5 -11t21.5 -23q38 -113 55 -231q10 -65 16 -131q194 156 401 294q9 5 18 5h5q12 -3 19 -13
q5 -9 5 -18v-5q-3 -12 -13 -20q-199 -138 -372 -290l-57 -48q1 -42 1 -84q0 -120 -22 -238q-42 -244 -172 -454q-53 -84 -131.5 -152t-179.5 -85q-22 -4 -43 -4q-74 0 -136 53q-36 32 -52.5 75.5t-16.5 90.5q0 57 28.5 119.5t68 119.5t75.5 101q83 100 175 192
q99 100 204 194q5 5 10 9q0 32 -1 63q-5 111 -22 220q-8 50 -19 99zM651 146q-80 -73 -157 -151q-89 -89 -169 -186q-29 -36 -65 -86.5t-63 -105t-27 -100.5q0 -40 18 -78q10 -16 25 -22.5t33 -6.5q38 0 73 25q127 101 202 247q114 218 130 464zM473 1295q78 -1 78 -66
q0 -31 -84 -181q-39 -70 -75 -70q-28 0 -30 41q0 35 25 156q25 120 86 120z" />
    <glyph glyph-name="thorn" unicode="&#xfe;" horiz-adv-x="810" 
d="M283 311q90 56 146 147q19 32 32 69.5t13 74.5q0 18 -7 35q-6 11 -17 11t-22 -7q-61 -50 -95.5 -142.5t-49.5 -187.5zM169 364q-1 -56 -1 -113q0 -127 6 -254q4 108 17 216q6 57 19 127.5t35.5 142t59 132t90 97.5t127.5 37q65 0 104.5 -41.5t39.5 -105.5
q0 -46 -14 -90.5t-37 -84.5q66 32 128.5 79t104.5 108q25 35 43 77q6 12 17 16q6 3 12 3t12 -3q11 -6 16 -18q2 -5 2 -10q0 -6 -3 -13q-18 -41 -41 -77q-53 -86 -116.5 -142t-173.5 -104q-50 -22 -101 -39q-23 -20 -50 -33q-72 -31 -151 -31h-10q-18 0 -30 14q-4 -27 -7 -50
q-19 -182 -22 -364v-27q-1 -48 -3 -96v-4q-1 -14 -3 -29q-2 -19 -12 -34t-32 -15h-9q-45 5 -73 43.5t-43.5 87.5t-21.5 87q-19 97 -28 196q-10 111 -14 222q-6 176 -6 352q0 206 21.5 350.5t80.5 271.5q101 216 262 216q38 0 48.5 -22.5t10.5 -54.5q0 -26 -16 -26
q-13 0 -27 -5t-24 -13q-57 -51 -90.5 -136t-48.5 -179q-10 -56 -15 -107q-31 -337 -33 -554z" />
    <glyph glyph-name="ydieresis" unicode="&#xff;" horiz-adv-x="1147" 
d="M612 634q-9 -24 -19 -48q-24 -61 -61.5 -126t-87 -121t-111 -91.5t-134.5 -35.5q-39 0 -74 18q-80 50 -105 169q-20 94 -20 194q0 27 1 55q7 130 23 213q3 14 13.5 22.5t24.5 8.5q24 0 50 -2.5t49 -11.5q17 -6 31 -17q18 -16 18 -39v-5q-15 -96 -18 -193v-26
q0 -54 6 -116q9 -79 36 -136q12 -28 40 -28q20 0 39.5 10t34.5 23q58 51 102 122t72 142q31 75 50 154v4q0 11 5 20q8 15 25 19q19 4 39 4q7 0 15 -1q30 -2 60 -9q16 -4 30.5 -11t21.5 -23q38 -113 55 -231q10 -65 16 -131q194 156 401 294q9 5 18 5h5q12 -3 19 -13
q5 -9 5 -18v-5q-3 -12 -13 -20q-199 -138 -372 -290l-57 -48q1 -42 1 -84q0 -120 -22 -238q-42 -244 -172 -454q-53 -84 -131.5 -152t-179.5 -85q-22 -4 -43 -4q-74 0 -136 53q-36 32 -52.5 75.5t-16.5 90.5q0 57 28.5 119.5t68 119.5t75.5 101q83 100 175 192
q99 100 204 194q5 5 10 9q0 32 -1 63q-5 111 -22 220q-8 50 -19 99zM651 146q-80 -73 -157 -151q-89 -89 -169 -186q-29 -36 -65 -86.5t-63 -105t-27 -100.5q0 -40 18 -78q10 -16 25 -22.5t33 -6.5q38 0 73 25q127 101 202 247q114 218 130 464zM264 1272q45 0 76.5 -31.5
t31.5 -76.5t-31.5 -77t-76.5 -32t-77 32t-32 77t32 76.5t77 31.5zM539 1273q45 0 77 -32t32 -77t-32 -76.5t-77 -31.5t-76.5 31.5t-31.5 76.5t31.5 77t76.5 32z" />
    <glyph glyph-name="dotlessi" unicode="&#x131;" horiz-adv-x="505" 
d="M644 678q-38 -142 -83 -282.5t-109 -273.5q-42 -92 -106 -171q-16 -20 -36 -36q-36 -32 -83 -32h-6q-60 9 -99 67t-61 130t-31 124q-26 142 -29 287q-1 37 -1 73q0 125 13 249q2 15 13 24.5t25 9.5q49 0 98 -18q12 -6 23 -13q29 -18 29 -51q-10 -98 -10 -196q0 -24 1 -49
q2 -127 20 -251q4 -26 10 -51q8 -42 18 -83q6 -24 13 -47q7 -21 15 -41q6 -15 15 -27q1 -3 4 -5.5t6 -2.5q1 0 2.5 0.5t2.5 1.5l2 2q7 7 13 15q17 23 30 49q22 37 41 76q124 259 201 538q4 13 14 19q7 4 16 4q4 0 8 -1q12 -4 18 -15q4 -7 4 -15q0 -4 -1 -8z" />
    <glyph glyph-name="circumflex" unicode="&#x2c6;" horiz-adv-x="409" 
d="M107 1046q-40 -62 -76 -62q-29 0 -31 41q50 229 197 296q166 -77 212 -296q-2 -40 -31 -40q-36 0 -78 61l-99 144z" />
    <glyph glyph-name="caron" unicode="&#x2c7;" horiz-adv-x="409" 
d="M107 1259l94 -144l99 144q42 61 78 61q29 0 31 -40q-46 -219 -212 -296q-147 67 -197 296q2 41 31 41q36 0 76 -62z" />
    <glyph glyph-name="uni02C9" unicode="&#x2c9;" horiz-adv-x="410" 
d="M37 1072q-17 2 -27 19t-10 41q1 24 13 39q10 15 25 15h334q15 0 25 -15q12 -15 13 -39q0 -24 -10 -41t-27 -19h-336z" />
    <glyph glyph-name="breve" unicode="&#x2d8;" horiz-adv-x="424" 
d="M212 1028q-112 0 -162 116t-50 144q0 14 8.5 20.5t19.5 6.5q39 -1 73 -95q31 -92 111 -92t112 91q33 95 72 95q11 0 19.5 -6t8.5 -20q0 -28 -50 -144t-162 -116z" />
    <glyph glyph-name="dotaccent" unicode="&#x2d9;" horiz-adv-x="381" 
d="M109 1273q44 0 76 -32t32 -77t-32 -77t-76 -32q-45 0 -77 32t-32 77t32 77t77 32z" />
    <glyph glyph-name="ring" unicode="&#x2da;" horiz-adv-x="1024" 
d="M194 1319q80 0 136.5 -56.5t56.5 -136.5t-56.5 -136.5t-136.5 -56.5t-136.5 56.5t-56.5 136.5t56.5 136.5t136.5 56.5zM194 1249q-51 0 -87 -36t-36 -87t36 -87t87 -36t87 36t36 87t-36 87t-87 36z" />
    <glyph glyph-name="ogonek" unicode="&#x2db;" horiz-adv-x="819" 
d="M650 -1q-254 -227 -254 -392q0 -58 28 -90.5t79 -32.5q50 0 70.5 24.5t20.5 52.5q0 32 -7 56q-5 15 -5 25q0 19 34 19q24 0 33 -18q2 -5 3 -10q9 -37 9 -72q0 -70 -49.5 -109.5t-119.5 -39.5q-103 0 -153 53t-50 136q0 180 289 398h72z" />
    <glyph glyph-name="tilde" unicode="&#x2dc;" horiz-adv-x="409" 
d="M380 1222q13 0 21 -8.5t8 -25.5t-8.5 -55.5t-40.5 -87.5t-67 -49q-63 4 -111 51t-67 48q-24 0 -46 -35q-24 -56 -40 -56h-8q-21 8 -21 34v7q0 12 38 85.5t81 74.5q45 -1 97.5 -49.5t74.5 -48.5q50 0 65 65q9 50 24 50z" />
    <glyph glyph-name="hungarumlaut" unicode="&#x2dd;" horiz-adv-x="1024" 
d="M16 1301q79 -1 79 -66q0 -31 -84 -181q-40 -70 -75 -70q-29 0 -31 41q0 35 25 156q25 120 86 120zM206 1301q79 -1 79 -66q0 -31 -84 -181q-40 -70 -75 -70q-29 0 -31 41q0 35 25 156q25 120 86 120z" />
    <glyph glyph-name="endash" unicode="&#x2013;" horiz-adv-x="1024" 
d="M30 340q-14 1 -22 12.5t-8 27.5q1 16 10 26q8 11 21 11l2 -1l987 -6q13 -1 21 -12.5t8 -27.5q-1 -17 -10.5 -27t-21.5 -10z" />
    <glyph glyph-name="emdash" unicode="&#x2014;" horiz-adv-x="1024" 
d="M30 340q-14 1 -22 12.5t-8 27.5q1 16 10 26q8 11 21 11l2 -1l1598 -6q13 -1 21 -12.5t8 -27.5q-1 -17 -10.5 -27t-21.5 -10z" />
    </font>
</defs>
</svg>
